<?xml version="1.0" encoding="UTF-8" standalone="no"?>
<svg
   version="1.0"
   width="600.000000pt"
   height="441.000000pt"
   viewBox="0 0 600.000000 441.000000"
   preserveAspectRatio="xMidYMid meet"
   id="svg31"
   sodipodi:docname="basmalah.svg"
   inkscape:version="1.4.3 (0d15f75, 2025-12-25)"
   inkscape:export-filename="basmalah.png"
   inkscape:export-xdpi="96"
   inkscape:export-ydpi="96"
   xmlns:inkscape="http://www.inkscape.org/namespaces/inkscape"
   xmlns:sodipodi="http://sodipodi.sourceforge.net/DTD/sodipodi-0.dtd"
   xmlns="http://www.w3.org/2000/svg"
   xmlns:svg="http://www.w3.org/2000/svg">
  <defs
     id="defs31" />
  <sodipodi:namedview
     id="namedview31"
     pagecolor="#ffffff"
     bordercolor="#000000"
     borderopacity="0.25"
     inkscape:showpageshadow="2"
     inkscape:pageopacity="0.0"
     inkscape:pagecheckerboard="0"
     inkscape:deskcolor="#d1d1d1"
     inkscape:document-units="pt"
     inkscape:zoom="0.73055675"
     inkscape:cx="288.13641"
     inkscape:cy="188.21262"
     inkscape:window-width="2560"
     inkscape:window-height="1417"
     inkscape:window-x="-8"
     inkscape:window-y="-8"
     inkscape:window-maximized="1"
     inkscape:current-layer="g31" />
  <g
     transform="translate(0.000000,441.000000) scale(0.100000,-0.100000)"
     fill="#000000"
     stroke="none"
     id="g31">
    <path
       d="m 3305.5663,4250.6022 c -39.4093,-13.6364 -162.8921,-109.0911 -193.1059,-148.6366 -42.0367,-58.6364 -5.2545,-61.3637 76.1915,-4.0909 101.1507,70.9092 135.3055,68.1819 264.0428,-28.6364 l 57.8004,-43.6364 -48.6049,-35.4546 C 2857.6131,3538.783 1872.3788,3297.419 1287.8064,3455.6011 c -148.442,40.9091 -174.7149,43.6364 -219.3789,30 -168.14662,-51.8183 -463.71693,-368.1823 -438.75766,-470.4552 10.50916,-45 -17.0774,-94.0911 -47.29125,-85.9093 -13.13646,4.091 -27.58656,-1.3635 -31.5275,-10.909 -2.62729,-9.5455 -47.29125,-45.0001 -98.52343,-80.4546 C 177.77569,2648.3272 49.038403,2297.8721 35.901943,1704.6895 c -6.56823,-274.0913 17.07739,-640.91 40.72302,-636.8191 7.88188,1.3636 17.07739,147.2729 22.33198,380.4551 9.195517,396.8188 43.350307,745.9101 85.386977,890.4558 44.66395,148.6365 185.22406,259.0913 447.95321,347.7278 172.08761,58.6364 233.82896,114.5455 274.55198,246.8185 27.58656,91.3637 1.31364,129.5456 -102.46437,156.8184 -35.46845,9.5455 -64.36865,24.5455 -64.36865,32.7274 0,23.1818 143.18739,129.5455 176.02854,130.9092 65.68229,4.0909 110.34627,-5.4546 168.14667,-36.8182 191.7923,-100.9093 610.8453,-120.0002 987.8617,-46.3637 484.7352,96.8183 977.3525,338.1822 1385.8963,680.4554 69.6232,58.6365 169.4603,133.6366 222.0061,169.0913 80.1325,54.5454 120.8555,103.6364 85.387,105.0001 -6.5682,1.3636 -39.4094,2.7273 -76.1915,4.0909 -47.2912,2.7273 -95.8961,19.091 -170.7739,60.0001 -112.9736,60 -166.833,75.0001 -212.8107,61.3637 z"
       id="path1"
       style="stroke-width:1.33841" />
    <path
       d="m 4411.6562,3456.9647 c -17.0774,-19.091 -19.7048,-36.8182 -13.1366,-64.091 14.4501,-51.8182 14.4501,-231.8185 1.3137,-290.4549 -11.8228,-47.7274 -11.8228,-47.7274 15.7638,-21.8182 59.114,53.1818 84.0733,204.5456 53.8594,330.0004 -18.391,73.6365 -27.5865,80.4547 -57.8003,46.3637 z"
       id="path2"
       style="stroke-width:1.33841" />
    <path
       d="m 5157.8069,3058.7823 c -15.7637,-21.8182 -76.1914,-165.0002 -102.4644,-242.7276 -10.5091,-31.3637 -31.5275,-159.5457 -45.9776,-285.0004 -13.1364,-124.0911 -28.9001,-246.8186 -34.1548,-270.0004 -11.8227,-58.6365 10.5092,-58.6365 45.9777,1.3637 47.2912,79.091 77.5051,190.9094 106.4053,398.1823 14.4501,110.4548 36.7821,244.0913 47.2912,295.9096 18.3911,92.7273 10.5091,140.4547 -17.0774,102.2728 z"
       id="path3"
       style="stroke-width:1.33841" />
    <path
       d="m 2757.7761,3042.4187 c -60.4277,-23.1819 -136.6192,-98.182 -177.3423,-173.1821 -34.1547,-61.3637 -17.0774,-69.5455 39.4095,-19.0909 63.055,54.5455 177.3422,75 286.3747,53.1819 57.8004,-12.2728 52.5459,-20.4546 -53.8594,-73.6366 -179.9695,-91.3636 -303.4522,-207.2729 -362.5662,-338.1822 -17.0774,-39.5455 -39.4095,-76.3637 -47.2914,-79.0911 -9.1955,-4.0909 -51.2321,-49.0909 -91.9551,-102.2728 -88.0143,-110.4547 -131.3646,-137.7275 -215.438,-135.0002 -98.5234,4.0909 -103.7779,1.3636 -118.228,-36.8182 -7.8819,-21.8182 -14.4502,-92.7275 -13.1365,-160.9093 3.9409,-542.7281 -457.1488,-960.0014 -840.7334,-760.9102 -177.34215,92.7274 -195.73319,244.0913 -69.6232,574.0917 32.8412,84.5455 34.1548,98.1819 9.1955,98.1819 -9.1955,0 -42.0366,-54.5455 -70.9368,-120.0001 -186.53774,-417.2733 -140.56015,-792.2739 106.4053,-868.63764 404.6029,-124.09109 824.9695,316.36414 955.0205,1002.27424 13.1365,72.2727 15.7637,76.3637 82.7597,109.091 52.5458,25.9091 84.0733,55.9092 133.9919,125.4547 72.2505,100.9093 106.4053,120.0002 169.4603,92.7275 88.0142,-36.8183 107.719,-34.091 144.501,23.1818 60.4277,94.091 59.1141,132.2729 -5.2546,192.273 -43.3503,39.5455 -53.8595,57.2728 -44.664,73.6365 27.5866,50.4545 153.6966,140.4547 294.2567,210.0003 212.8106,106.3637 211.497,105.0002 261.4155,175.9093 49.9186,70.9092 47.2913,94.0911 -13.1364,125.4547 -53.8595,27.2727 -298.1976,35.4546 -358.6253,12.2728 z"
       id="path4"
       style="stroke-width:1.33841" />
    <path
       d="m 1628.0406,2949.6912 c -65.6823,-151.3638 -70.9368,-174.5456 -99.837,-467.7278 -14.4501,-150.0003 -30.2139,-305.4551 -35.4684,-346.3643 -14.4501,-128.182 44.6639,-45 99.8371,139.0912 21.0183,69.5456 106.4053,684.5464 106.4053,762.2738 0,38.1819 -34.1548,-4.0909 -70.937,-87.2729 z"
       id="path5"
       style="stroke-width:1.33841" />
    <path
       d="m 1270.729,2929.2366 c -73.5642,-182.7274 -102.4644,-316.364 -118.2281,-560.4553 -10.5092,-177.2729 -28.9002,-207.273 -161.57846,-278.1822 -131.36458,-69.5455 -177.34219,-118.6365 -245.65177,-265.9094 -63.05499,-136.3638 -130.05093,-204.5458 -344.17519,-349.0915 -160.26479,-107.7274 -153.69656,-137.7275 19.70468,-98.1819 190.47864,43.6364 253.53363,95.4547 337.60697,279.5458 56.48677,125.4548 93.26885,166.3639 189.165,216.8186 166.83297,88.6364 278.49287,313.6368 317.90227,636.8191 7.8819,66.8183 22.332,189.5457 32.8412,272.7276 10.5091,83.182 19.7046,160.9093 19.7046,173.1821 0,40.9091 -24.9592,24.5455 -47.2912,-27.2729 z"
       id="path8"
       style="stroke-width:1.33841" />
    <path
       d="m 3598.5093,2912.873 c -60.4276,-122.7274 -86.7006,-211.364 -99.837,-335.4549 -6.5683,-66.8183 -21.0184,-211.364 -32.8411,-320.4551 -11.8229,-109.0911 -23.6456,-211.364 -27.5866,-227.7276 -5.2546,-19.0909 -2.6273,-31.3636 6.5682,-31.3636 61.7414,0 126.11,244.0912 172.0876,647.7281 14.4501,128.182 30.2138,255.0003 34.1548,283.6367 11.8228,72.2729 -13.1364,64.0911 -52.5459,-16.3636 z"
       id="path9"
       style="stroke-width:1.33841" />
    <path
       d="m 3256.9614,2915.6003 c -60.4276,-124.0911 -101.1506,-286.364 -119.5417,-486.8189 -27.5866,-295.9095 -27.5866,-295.9095 -164.2057,-358.6369 -123.4828,-58.6364 -177.3422,-114.5456 -243.0245,-256.364 -68.3096,-148.6365 -126.11,-208.6366 -323.1568,-342.2732 -135.3056,-90.0001 -153.6966,-109.0911 -132.6783,-130.9092 18.3911,-19.091 182.5968,19.0909 271.9247,62.7273 82.7596,39.5455 130.051,95.4547 183.9104,219.5457 57.8004,129.5457 97.2098,174.5458 204.9288,233.1822 51.2322,28.6364 106.4053,69.5456 123.4827,92.7275 94.5824,129.5456 170.7739,379.0914 197.0468,649.0918 10.5092,102.2729 24.9592,212.7275 31.5276,245.4548 24.9591,110.4547 9.1954,148.6366 -30.214,72.2729 z"
       id="path11"
       style="stroke-width:1.33841" />
    <path
       d="m 4510.1795,2933.3276 c 0,-77.7274 -68.3095,-120.0002 -91.9551,-55.9092 -17.0774,45.0001 -32.8412,43.6364 -52.5459,-6.8181 -32.8411,-83.182 -91.9552,-85.9093 -91.9552,-2.7274 0,68.182 -38.0957,31.3638 -48.6049,-47.7273 -11.8228,-94.091 52.5459,-129.5456 124.7964,-65.4546 26.2729,23.1818 42.0366,28.6364 51.2322,19.0909 26.2729,-27.2727 86.7006,-8.1818 110.3462,35.4546 28.9002,51.8183 36.7821,130.9093 15.7637,139.0911 -9.1955,4.091 -17.0774,-2.7273 -17.0774,-15 z"
       id="path12"
       style="stroke-width:1.33841" />
    <path
       d="m 4771.595,2829.691 c -69.6231,-121.3637 -94.5824,-220.9093 -80.1323,-309.5458 17.0774,-103.6366 3.9409,-135.0002 -69.6232,-169.0912 -103.7781,-47.7273 -164.2058,-15 -164.2058,90.0001 0,73.6366 -38.0957,57.2729 -81.446,-34.0909 -106.4053,-219.5457 -378.33,-240.0003 -378.33,-30 0,53.1818 -23.6457,43.6363 -72.2505,-25.9092 -70.9369,-102.2728 -141.8737,-178.6366 -291.6294,-315.0005 -74.8778,-66.8181 -135.3055,-128.182 -135.3055,-135.0001 0,-45.0001 152.3829,38.1819 278.4929,152.7275 l 73.5641,66.8183 24.9593,-51.8182 c 74.8778,-147.273 248.2791,-148.6367 379.6437,0 l 53.8594,60 35.4685,-31.3636 c 109.0326,-96.8184 270.6111,6.8181 391.4665,250.9094 81.446,165.0002 95.8961,238.6366 81.446,407.7278 l -11.8229,135.0002 z"
       id="path13"
       style="stroke-width:1.33841" />
    <path
       d="m 5884.2531,2691.9636 c -32.8412,-53.1818 -72.2505,-137.7275 -88.0144,-186.8184 -49.9184,-155.4548 -294.2565,-373.637 -589.8269,-527.728 -599.0225,-310.9096 -1455.5195,-392.7278 -1764.2262,-167.7276 -21.0184,15.0001 -27.5866,13.6364 -47.2914,-10.9091 -13.1364,-16.3636 -53.8594,-46.3637 -91.9551,-66.8182 -299.5113,-156.8184 -436.1305,-634.0919 -383.5846,-1343.18381 18.391,-240.00034 23.6456,-268.63674 44.6639,-246.81853 10.5092,10.90911 15.7638,133.63655 18.3911,385.90963 3.941,578.18261 42.0367,797.72841 160.2647,928.63781 88.0144,99.5456 140.5602,99.5456 239.0836,2.7272 89.3279,-88.6365 147.1284,-95.4547 172.0876,-20.4546 2.6274,10.9091 30.2139,8.1819 82.7597,-6.8181 95.8962,-25.9092 265.3564,-38.1819 275.8656,-20.4546 14.4501,24.5455 -6.5682,43.6364 -27.5866,25.9091 -10.5092,-9.5454 -18.391,-9.5454 -18.391,-1.3636 0,6.8181 9.1955,20.4546 19.7047,29.9999 27.5866,24.5455 24.9593,39.5456 -6.5682,31.3638 -21.0184,-5.4546 -24.9593,-2.7274 -18.3911,15 10.5092,30 66.996,28.6364 76.1915,-2.7273 3.9409,-12.2727 2.6272,-45 -5.2546,-69.5455 l -11.8228,-46.3637 166.833,8.1818 c 826.2832,43.6364 1580.3159,537.2735 1828.595,1197.2744 80.1324,215.4549 68.3095,253.6367 -31.5275,92.7274 z"
       id="path14"
       style="stroke-width:1.33841" />
    <path
       d="m 1465.1486,1871.0533 c -28.9002,-35.4545 -81.4461,-167.7274 -81.4461,-203.1821 0,-30 10.5092,-43.6364 51.2322,-65.4546 28.9002,-15 55.1731,-32.7273 60.4278,-40.9092 48.6049,-81.8182 185.224,126.8185 145.8147,223.6367 -32.8412,80.4547 -139.2465,132.2729 -176.0286,85.9092 z"
       id="path15"
       style="stroke-width:1.33841" />
    <path
       d="m 5136.7886,1277.8707 c -21.0183,-25.9091 -80.1324,-143.182 -93.2688,-189.5458 -9.1956,-28.6364 105.0916,-126.81833 145.8146,-126.81833 23.6456,0 91.9553,90.00013 109.0327,141.81843 30.2138,95.4547 -103.7781,241.364 -161.5785,174.5457 z"
       id="path16"
       style="stroke-width:1.33841" />
    <path
       d="m 2362.3687,953.32475 -47.2913,-76.36375 -35.4684,36.81824 c -59.114,61.36372 -101.1507,79.09102 -123.4828,50.45462 -28.9001,-35.4546 -115.6007,-188.18209 -115.6007,-204.54575 0,-15.00002 123.4826,-111.81834 143.1873,-111.81834 11.8229,0 72.2505,68.18191 106.4054,120.00017 l 19.7047,30.00004 51.2321,-47.72734 c 63.0551,-58.63645 88.0142,-60.00008 133.9919,-2.72728 82.7597,102.27288 85.3869,174.54571 7.8819,241.36398 -66.996,57.27286 -86.7006,51.81826 -140.5601,-35.45459 z"
       id="path17"
       style="stroke-width:1.33841" />
    <path
       style="fill:#000000;stroke-width:10.0381"
       d="m 3793.2208,1569.0832 23.8403,-163.3335 157.3456,-14.8485 9.5361,178.182 z"
       id="path31" />
  </g>
</svg>
