<?xml version="1.0" encoding="UTF-8" standalone="no"?>
<!-- Created with Inkscape (http://www.inkscape.org/) -->

<svg
   width="464.48706mm"
   height="233.23062mm"
   viewBox="0 0 464.48704 233.23061"
   version="1.1"
   id="svg1"
   xml:space="preserve"
   inkscape:version="1.4.3 (fcd0343856, 2026-01-01)"
   sodipodi:docname="basmalah.svg"
   xmlns:inkscape="http://www.inkscape.org/namespaces/inkscape"
   xmlns:sodipodi="http://sodipodi.sourceforge.net/DTD/sodipodi-0.dtd"
   xmlns="http://www.w3.org/2000/svg"
   xmlns:svg="http://www.w3.org/2000/svg"><sodipodi:namedview
     id="namedview1"
     pagecolor="#ffffff"
     bordercolor="#000000"
     borderopacity="0.25"
     inkscape:showpageshadow="2"
     inkscape:pageopacity="0.0"
     inkscape:pagecheckerboard="0"
     inkscape:deskcolor="#d1d1d1"
     inkscape:document-units="mm"
     inkscape:zoom="0.63370775"
     inkscape:cx="680.91324"
     inkscape:cy="404.76071"
     inkscape:window-width="2500"
     inkscape:window-height="1371"
     inkscape:window-x="60"
     inkscape:window-y="32"
     inkscape:window-maximized="1"
     inkscape:current-layer="layer1"
     showgrid="false"><inkscape:grid
       id="grid16"
       units="mm"
       originx="78.530808"
       originy="-20.666003"
       spacingx="0.99999998"
       spacingy="1"
       empcolor="#0099e5"
       empopacity="0.30196078"
       color="#0099e5"
       opacity="0.14901961"
       empspacing="5"
       enabled="true"
       visible="false" /><inkscape:page
       x="0"
       y="0"
       width="464.48706"
       height="233.23061"
       id="page19"
       margin="0"
       bleed="0" /></sodipodi:namedview><defs
     id="defs1"><filter
       inkscape:collect="always"
       style="color-interpolation-filters:sRGB"
       id="filter80"
       x="-0.0044123988"
       y="-0.006323354"
       width="1.0088248"
       height="1.0126467"><feGaussianBlur
         inkscape:collect="always"
         stdDeviation="0.24750663"
         id="feGaussianBlur80" /></filter><filter
       inkscape:collect="always"
       style="color-interpolation-filters:sRGB"
       id="filter81"
       x="-0.049680342"
       y="-0.045875482"
       width="1.0993607"
       height="1.091751"><feGaussianBlur
         inkscape:collect="always"
         stdDeviation="0.24750663"
         id="feGaussianBlur81" /></filter><filter
       inkscape:collect="always"
       style="color-interpolation-filters:sRGB"
       id="filter82"
       x="-0.049680342"
       y="-0.045875482"
       width="1.0993607"
       height="1.091751"><feGaussianBlur
         inkscape:collect="always"
         stdDeviation="0.24750663"
         id="feGaussianBlur82" /></filter><filter
       inkscape:collect="always"
       style="color-interpolation-filters:sRGB"
       id="filter83"
       x="-0.049680342"
       y="-0.045875482"
       width="1.0993607"
       height="1.091751"><feGaussianBlur
         inkscape:collect="always"
         stdDeviation="0.24750663"
         id="feGaussianBlur83" /></filter><filter
       inkscape:collect="always"
       style="color-interpolation-filters:sRGB"
       id="filter84"
       x="-0.049680342"
       y="-0.045875482"
       width="1.0993607"
       height="1.091751"><feGaussianBlur
         inkscape:collect="always"
         stdDeviation="0.24750663"
         id="feGaussianBlur84" /></filter><filter
       inkscape:collect="always"
       style="color-interpolation-filters:sRGB"
       id="filter85"
       x="-0.02022164"
       y="-0.041013092"
       width="1.0404433"
       height="1.0820262"><feGaussianBlur
         inkscape:collect="always"
         stdDeviation="0.24750663"
         id="feGaussianBlur85" /></filter><filter
       inkscape:collect="always"
       style="color-interpolation-filters:sRGB"
       id="filter86"
       x="-0.023611996"
       y="-0.025341014"
       width="1.047224"
       height="1.050682"><feGaussianBlur
         inkscape:collect="always"
         stdDeviation="0.24750663"
         id="feGaussianBlur86" /></filter><filter
       inkscape:collect="always"
       style="color-interpolation-filters:sRGB"
       id="filter87"
       x="-0.012764229"
       y="-0.018714028"
       width="1.0255285"
       height="1.0374281"><feGaussianBlur
         inkscape:collect="always"
         stdDeviation="0.24750663"
         id="feGaussianBlur87" /></filter><filter
       inkscape:collect="always"
       style="color-interpolation-filters:sRGB"
       id="filter88"
       x="-0.020020435"
       y="-0.031695809"
       width="1.0400409"
       height="1.0633916"><feGaussianBlur
         inkscape:collect="always"
         stdDeviation="0.24750663"
         id="feGaussianBlur88" /></filter><filter
       inkscape:collect="always"
       style="color-interpolation-filters:sRGB"
       id="filter89"
       x="-0.0055218248"
       y="-0.013669184"
       width="1.0110436"
       height="1.0273384"><feGaussianBlur
         inkscape:collect="always"
         stdDeviation="0.24750663"
         id="feGaussianBlur89" /></filter><filter
       inkscape:collect="always"
       style="color-interpolation-filters:sRGB"
       id="filter90"
       x="-0.020020435"
       y="-0.031695809"
       width="1.0400409"
       height="1.0633916"><feGaussianBlur
         inkscape:collect="always"
         stdDeviation="0.24750663"
         id="feGaussianBlur90" /></filter><filter
       inkscape:collect="always"
       style="color-interpolation-filters:sRGB"
       id="filter91"
       x="-0.011467743"
       y="-0.020931552"
       width="1.0229355"
       height="1.0418631"><feGaussianBlur
         inkscape:collect="always"
         stdDeviation="0.24750663"
         id="feGaussianBlur91" /></filter><filter
       inkscape:collect="always"
       style="color-interpolation-filters:sRGB"
       id="filter92"
       x="-0.064906366"
       y="-0.052826255"
       width="1.1298127"
       height="1.1056525"><feGaussianBlur
         inkscape:collect="always"
         stdDeviation="0.24750663"
         id="feGaussianBlur92" /></filter><filter
       inkscape:collect="always"
       style="color-interpolation-filters:sRGB"
       id="filter93"
       x="-0.064906366"
       y="-0.052826246"
       width="1.1298127"
       height="1.1056525"><feGaussianBlur
         inkscape:collect="always"
         stdDeviation="0.24750663"
         id="feGaussianBlur93" /></filter><filter
       inkscape:collect="always"
       style="color-interpolation-filters:sRGB"
       id="filter94"
       x="-0.064906366"
       y="-0.052826246"
       width="1.1298127"
       height="1.1056525"><feGaussianBlur
         inkscape:collect="always"
         stdDeviation="0.24750663"
         id="feGaussianBlur94" /></filter><filter
       inkscape:collect="always"
       style="color-interpolation-filters:sRGB"
       id="filter95"
       x="-0.064906366"
       y="-0.052826255"
       width="1.1298127"
       height="1.1056525"><feGaussianBlur
         inkscape:collect="always"
         stdDeviation="0.24750663"
         id="feGaussianBlur95" /></filter><filter
       inkscape:collect="always"
       style="color-interpolation-filters:sRGB"
       id="filter96"
       x="-0.064906366"
       y="-0.052826255"
       width="1.1298127"
       height="1.1056525"><feGaussianBlur
         inkscape:collect="always"
         stdDeviation="0.24750663"
         id="feGaussianBlur96" /></filter><filter
       inkscape:collect="always"
       style="color-interpolation-filters:sRGB"
       id="filter97"
       x="-0.064906366"
       y="-0.052826255"
       width="1.1298127"
       height="1.1056525"><feGaussianBlur
         inkscape:collect="always"
         stdDeviation="0.24750663"
         id="feGaussianBlur97" /></filter><filter
       inkscape:collect="always"
       style="color-interpolation-filters:sRGB"
       id="filter98"
       x="-0.076979669"
       y="-0.03374958"
       width="1.1539593"
       height="1.0674992"><feGaussianBlur
         inkscape:collect="always"
         stdDeviation="0.24750663"
         id="feGaussianBlur98" /></filter><filter
       inkscape:collect="always"
       style="color-interpolation-filters:sRGB"
       id="filter99"
       x="-0.076979669"
       y="-0.033749561"
       width="1.1539593"
       height="1.0674991"><feGaussianBlur
         inkscape:collect="always"
         stdDeviation="0.24750663"
         id="feGaussianBlur99" /></filter><filter
       inkscape:collect="always"
       style="color-interpolation-filters:sRGB"
       id="filter100"
       x="-0.066229309"
       y="-0.027077377"
       width="1.1324586"
       height="1.0541548"><feGaussianBlur
         inkscape:collect="always"
         stdDeviation="0.24750663"
         id="feGaussianBlur100" /></filter><filter
       inkscape:collect="always"
       style="color-interpolation-filters:sRGB"
       id="filter101"
       x="-0.076979669"
       y="-0.03374958"
       width="1.1539593"
       height="1.0674992"><feGaussianBlur
         inkscape:collect="always"
         stdDeviation="0.24750663"
         id="feGaussianBlur101" /></filter><filter
       inkscape:collect="always"
       style="color-interpolation-filters:sRGB"
       id="filter102"
       x="-0.076979669"
       y="-0.033749576"
       width="1.1539593"
       height="1.0674992"><feGaussianBlur
         inkscape:collect="always"
         stdDeviation="0.24750663"
         id="feGaussianBlur102" /></filter><filter
       inkscape:collect="always"
       style="color-interpolation-filters:sRGB"
       id="filter104"
       x="-0.028539783"
       y="-0.037489621"
       width="1.0570796"
       height="1.0749792"><feGaussianBlur
         inkscape:collect="always"
         stdDeviation="0.24750663"
         id="feGaussianBlur104" /></filter><filter
       inkscape:collect="always"
       style="color-interpolation-filters:sRGB"
       id="filter105"
       x="-0.028539783"
       y="-0.037489626"
       width="1.0570796"
       height="1.0749793"><feGaussianBlur
         inkscape:collect="always"
         stdDeviation="0.24750663"
         id="feGaussianBlur105" /></filter><filter
       inkscape:collect="always"
       style="color-interpolation-filters:sRGB"
       id="filter106"
       x="-0.027457062"
       y="-0.031552376"
       width="1.0549141"
       height="1.0631048"><feGaussianBlur
         inkscape:collect="always"
         stdDeviation="0.24750663"
         id="feGaussianBlur106" /></filter><filter
       inkscape:collect="always"
       style="color-interpolation-filters:sRGB"
       id="filter107"
       x="-0.027509035"
       y="-0.03014406"
       width="1.0550181"
       height="1.0602881"><feGaussianBlur
         inkscape:collect="always"
         stdDeviation="0.24750663"
         id="feGaussianBlur107" /></filter><filter
       inkscape:collect="always"
       style="color-interpolation-filters:sRGB"
       id="filter108"
       x="-0.027509035"
       y="-0.030144059"
       width="1.0550181"
       height="1.0602881"><feGaussianBlur
         inkscape:collect="always"
         stdDeviation="0.24750663"
         id="feGaussianBlur108" /></filter><filter
       inkscape:collect="always"
       style="color-interpolation-filters:sRGB"
       id="filter109"
       x="-0.027509035"
       y="-0.030144054"
       width="1.0550181"
       height="1.0602881"><feGaussianBlur
         inkscape:collect="always"
         stdDeviation="0.24750663"
         id="feGaussianBlur109" /></filter><filter
       inkscape:collect="always"
       style="color-interpolation-filters:sRGB"
       id="filter110"
       x="-0.027509035"
       y="-0.030144067"
       width="1.0550181"
       height="1.0602881"><feGaussianBlur
         inkscape:collect="always"
         stdDeviation="0.24750663"
         id="feGaussianBlur110" /></filter><filter
       inkscape:collect="always"
       style="color-interpolation-filters:sRGB"
       id="filter111"
       x="-0.042618351"
       y="-0.044066463"
       width="1.0852367"
       height="1.0881329"><feGaussianBlur
         inkscape:collect="always"
         stdDeviation="0.24750663"
         id="feGaussianBlur111" /></filter><filter
       inkscape:collect="always"
       style="color-interpolation-filters:sRGB"
       id="filter112"
       x="-0.02657655"
       y="-0.044901477"
       width="1.0531531"
       height="1.089803"><feGaussianBlur
         inkscape:collect="always"
         stdDeviation="0.24750663"
         id="feGaussianBlur112" /></filter><filter
       inkscape:collect="always"
       style="color-interpolation-filters:sRGB"
       id="filter113"
       x="-0.02657655"
       y="-0.044901448"
       width="1.0531531"
       height="1.0898029"><feGaussianBlur
         inkscape:collect="always"
         stdDeviation="0.24750663"
         id="feGaussianBlur113" /></filter><filter
       inkscape:collect="always"
       style="color-interpolation-filters:sRGB"
       id="filter114"
       x="-0.02657655"
       y="-0.044901448"
       width="1.0531531"
       height="1.0898029"><feGaussianBlur
         inkscape:collect="always"
         stdDeviation="0.24750663"
         id="feGaussianBlur114" /></filter><filter
       inkscape:collect="always"
       style="color-interpolation-filters:sRGB"
       id="filter115"
       x="-0.03143838"
       y="-0.040778223"
       width="1.0628768"
       height="1.0815564"><feGaussianBlur
         inkscape:collect="always"
         stdDeviation="0.24750663"
         id="feGaussianBlur115" /></filter><filter
       inkscape:collect="always"
       style="color-interpolation-filters:sRGB"
       id="filter116"
       x="-0.034992296"
       y="-0.044414507"
       width="1.0699846"
       height="1.088829"><feGaussianBlur
         inkscape:collect="always"
         stdDeviation="0.24750663"
         id="feGaussianBlur116" /></filter><filter
       inkscape:collect="always"
       style="color-interpolation-filters:sRGB"
       id="filter117"
       x="-0.03143838"
       y="-0.040778231"
       width="1.0628768"
       height="1.0815565"><feGaussianBlur
         inkscape:collect="always"
         stdDeviation="0.24750663"
         id="feGaussianBlur117" /></filter><filter
       inkscape:collect="always"
       style="color-interpolation-filters:sRGB"
       id="filter118"
       x="-0.027216744"
       y="-0.034271482"
       width="1.0544335"
       height="1.068543"><feGaussianBlur
         inkscape:collect="always"
         stdDeviation="0.24750663"
         id="feGaussianBlur118" /></filter><filter
       inkscape:collect="always"
       style="color-interpolation-filters:sRGB"
       id="filter119"
       x="-0.03108155"
       y="-0.05611232"
       width="1.0621631"
       height="1.1122246"><feGaussianBlur
         inkscape:collect="always"
         stdDeviation="0.24750663"
         id="feGaussianBlur119" /></filter><filter
       inkscape:collect="always"
       style="color-interpolation-filters:sRGB"
       id="filter120"
       x="-0.034656958"
       y="-0.0061599608"
       width="1.0693139"
       height="1.0123199"><feGaussianBlur
         inkscape:collect="always"
         stdDeviation="0.24750663"
         id="feGaussianBlur120" /></filter><filter
       inkscape:collect="always"
       style="color-interpolation-filters:sRGB"
       id="filter121"
       x="-0.037446065"
       y="-0.0070837014"
       width="1.0748921"
       height="1.0141674"><feGaussianBlur
         inkscape:collect="always"
         stdDeviation="0.24750663"
         id="feGaussianBlur121" /></filter><filter
       inkscape:collect="always"
       style="color-interpolation-filters:sRGB"
       id="filter122"
       x="-0.037446065"
       y="-0.0070837017"
       width="1.0748921"
       height="1.0141674"><feGaussianBlur
         inkscape:collect="always"
         stdDeviation="0.24750663"
         id="feGaussianBlur122" /></filter><filter
       inkscape:collect="always"
       style="color-interpolation-filters:sRGB"
       id="filter123"
       x="-0.037446058"
       y="-0.0070837008"
       width="1.0748921"
       height="1.0141674"><feGaussianBlur
         inkscape:collect="always"
         stdDeviation="0.24750663"
         id="feGaussianBlur123" /></filter><filter
       inkscape:collect="always"
       style="color-interpolation-filters:sRGB"
       id="filter124"
       x="-0.037446065"
       y="-0.0070837015"
       width="1.0748921"
       height="1.0141674"><feGaussianBlur
         inkscape:collect="always"
         stdDeviation="0.24750663"
         id="feGaussianBlur124" /></filter><filter
       inkscape:collect="always"
       style="color-interpolation-filters:sRGB"
       id="filter125"
       x="-0.0074391465"
       y="-0.010627749"
       width="1.0148783"
       height="1.0212555"><feGaussianBlur
         inkscape:collect="always"
         stdDeviation="0.24750663"
         id="feGaussianBlur125" /></filter><filter
       inkscape:collect="always"
       style="color-interpolation-filters:sRGB"
       id="filter126"
       x="-0.020465372"
       y="-0.02417894"
       width="1.0409307"
       height="1.0483579"><feGaussianBlur
         inkscape:collect="always"
         stdDeviation="0.24750663"
         id="feGaussianBlur126" /></filter><filter
       inkscape:collect="always"
       style="color-interpolation-filters:sRGB"
       id="filter127"
       x="-0.039303022"
       y="-0.028328474"
       width="1.078606"
       height="1.0566569"><feGaussianBlur
         inkscape:collect="always"
         stdDeviation="0.24750663"
         id="feGaussianBlur127" /></filter><filter
       inkscape:collect="always"
       style="color-interpolation-filters:sRGB"
       id="filter128"
       x="-0.0084713098"
       y="-0.01095713"
       width="1.0169426"
       height="1.0219143"><feGaussianBlur
         inkscape:collect="always"
         stdDeviation="0.24750663"
         id="feGaussianBlur128" /></filter><filter
       inkscape:collect="always"
       style="color-interpolation-filters:sRGB"
       id="filter129"
       x="-0.0031793065"
       y="-0.0069057494"
       width="1.0063586"
       height="1.0138115"><feGaussianBlur
         inkscape:collect="always"
         stdDeviation="0.24750663"
         id="feGaussianBlur129" /></filter><filter
       inkscape:collect="always"
       style="color-interpolation-filters:sRGB"
       id="filter130"
       x="-0.062293204"
       y="-0.027120222"
       width="1.1245864"
       height="1.0542404"><feGaussianBlur
         inkscape:collect="always"
         stdDeviation="0.24750663"
         id="feGaussianBlur130" /></filter><filter
       inkscape:collect="always"
       style="color-interpolation-filters:sRGB"
       id="filter131"
       x="-0.0039948874"
       y="-0.0072825854"
       width="1.0079898"
       height="1.0145652"><feGaussianBlur
         inkscape:collect="always"
         stdDeviation="0.24750663"
         id="feGaussianBlur131" /></filter><filter
       inkscape:collect="always"
       style="color-interpolation-filters:sRGB"
       id="filter132"
       x="-0.022356155"
       y="-0.020730544"
       width="1.0447123"
       height="1.0414611"><feGaussianBlur
         inkscape:collect="always"
         stdDeviation="0.24750663"
         id="feGaussianBlur132" /></filter><filter
       inkscape:collect="always"
       style="color-interpolation-filters:sRGB"
       id="filter102-7"
       x="-0.076979669"
       y="-0.03374958"
       width="1.1539593"
       height="1.0674992"><feGaussianBlur
         inkscape:collect="always"
         stdDeviation="0.24750663"
         id="feGaussianBlur102-5" /></filter></defs><g
     inkscape:label="Layer 1"
     inkscape:groupmode="layer"
     id="layer1"
     transform="translate(78.530813,-20.666004)"><path
       style="opacity:1;fill:#000000;fill-opacity:1;stroke-width:0.284249;paint-order:markers stroke fill;filter:url(#filter80)"
       d="m 372.87375,118.25437 c 0.59047,0 2.50944,-1.02225 2.50944,-1.02225 l 1.47616,0.85187 -2.21422,-3.23711 -2.0666,-2.04448 -3.39514,-4.42973 c 0,0 -1.91897,-2.72599 -2.50944,-2.21487 -0.59044,0.51113 -2.50944,4.77048 -2.50944,4.77048 l 0.88569,2.72599 c 0,0 2.06659,2.89636 2.36183,3.9186 0.29523,1.02225 1.32853,4.42973 1.77136,6.13348 0.44286,1.70374 2.65705,6.64458 3.09991,8.17795 0.44284,1.53337 3.39514,4.60011 3.39514,4.60011 0,0 1.91897,5.28159 1.91897,5.96309 0,0.6815 0.44286,2.04449 0.44286,2.04449 l -6.34744,-0.34075 c 0,0 -0.44283,1.02225 -2.36183,0 -1.91897,-1.02224 -3.24749,-1.87411 -3.98557,-2.72599 -0.73809,-0.85187 -1.03331,-1.19261 -1.03331,-1.19261 l 0.59047,-4.77048 c 0,0 -1.0333,1.363 -1.62377,1.70375 -0.59045,0.34075 -1.47614,2.21485 -1.47614,2.21485 0,0 -1.0333,2.55562 -1.91899,3.57786 -0.88567,1.02225 -3.09989,3.57786 -3.09989,3.57786 0,0 -3.83797,0.34075 -4.57605,0.34075 -0.73808,0 -1.62375,-0.17037 -1.62375,-0.17037 0,0 -1.32855,-1.363 -1.91899,-2.04449 -0.59047,-0.6815 -1.47614,-2.04449 -1.47614,-2.04449 l 1.32853,-4.42974 c 0,0 -2.21422,0.85187 -2.80467,1.53337 -0.59047,0.6815 -0.44286,1.363 -1.47616,2.55562 -1.0333,1.19262 -1.62375,2.72598 -2.65705,3.57786 -1.0333,0.85187 -1.18092,1.70374 -3.09991,2.5556 -1.91897,0.85187 -4.42841,1.70374 -6.1998,1.70374 -1.77136,0 -2.50944,0 -3.39513,-0.17037 -0.88567,-0.17037 -1.18092,-0.34075 -3.09989,-1.36298 -1.91899,-1.02225 -2.36183,-1.53337 -2.65705,-2.21487 -0.29525,-0.6815 0,-0.6815 -1.32855,-2.72599 -1.32853,-2.04449 -1.91897,-3.57786 -2.65705,-4.60011 -0.73806,-1.02224 -0.14761,-1.53335 -1.18092,-2.04449 -1.0333,-0.51111 0.59047,-1.02223 -2.21421,-0.85186 -2.80467,0.17036 -3.98558,0.34075 -5.1665,1.02225 -1.18091,0.68148 -0.14761,0.68148 -2.65705,2.38523 -2.50944,1.70374 -4.13321,6.47422 -5.16649,7.83722 -1.0333,1.36298 -2.50947,6.81496 -2.50947,7.49646 0,0.68149 0.8857,4.42973 0.8857,4.42973 l 0.29522,3.06672 -3.2475,1.53338 -5.01891,2.04448 -6.93785,4.25935 -4.28082,3.91861 -3.83797,4.94086 c 0,0 -5.16649,5.45197 -5.46174,6.13346 -0.29522,0.6815 -7.38071,5.62236 -7.38071,5.62236 l -6.64263,3.06672 -5.01891,-1.36298 -1.91897,-4.77048 0.14761,-5.96309 1.77136,-6.13348 4.13322,-6.13346 4.87127,-6.98535 2.0666,-2.89635 -1.91899,-0.6815 -4.72366,5.45197 -4.87127,6.30385 -3.09991,7.15571 -1.47614,7.83721 1.77139,8.34833 c 0,0 2.65705,2.72599 3.54274,3.23711 0.88567,0.51112 5.90457,2.72599 5.90457,2.72599 l 7.52833,-1.02225 6.19979,-4.25936 c 0,0 6.49502,-8.00758 7.08549,-8.34833 0.59044,-0.34075 8.70924,-7.66683 8.70924,-7.66683 l 9.74254,-5.79273 3.83799,-1.53337 7.08549,1.19262 8.11877,2.0445 3.09991,1.02224 c 0,0 0.73808,-4.08898 0.73808,-4.94084 0,-0.85187 -0.73808,-4.42974 -0.73808,-4.42974 0,0 -1.62375,-1.53336 -2.36183,-1.53336 -0.73808,0 -1.18092,0 -1.77136,-0.34075 -0.59047,-0.34075 -3.98561,-1.53337 -3.98561,-1.53337 l -6.79026,-4.6001 -2.06658,-2.21486 2.06658,-3.40749 c 0,0 1.18091,-1.87412 2.21422,-2.72599 1.0333,-0.85187 5.60935,-4.94085 5.60935,-4.94085 h 3.39513 l 1.62375,6.98534 3.69035,4.42973 4.87127,2.55562 c 0,0 3.838,-0.17039 4.42844,0.17036 0.59047,0.34075 6.1998,-1.53335 6.1998,-1.53335 l 3.69035,-3.23712 1.32856,-3.40748 6.79024,4.94085 c 0,0 4.42843,0.17038 5.01888,0 0.59047,-0.17037 4.57604,-2.21487 4.57604,-2.21487 l 1.47614,-4.42973 0.29525,-1.70373 7.08549,5.28159 6.05218,0.6815 3.54275,-1.53337 3.69035,-5.45197 1.32853,-2.72598 -1.919,-4.77049 -0.88566,-3.57785 c 0,0 -0.8857,-3.06673 -1.32856,-3.9186 -0.44283,-0.85188 -5.3141,-10.05208 -5.3141,-10.05208 z"
       id="path59" /><path
       style="opacity:1;fill:#000000;fill-opacity:1;stroke-width:0.284249;paint-order:markers stroke fill;filter:url(#filter81)"
       d="m 375.67844,173.11485 c 0.88566,-1.363 3.69035,-7.49646 3.69035,-7.49646 l -7.82357,-5.45198 -4.13319,6.6446 z"
       id="path60" /><path
       style="fill:#000000;fill-opacity:1;stroke-width:0.284249;paint-order:markers stroke fill;filter:url(#filter82)"
       d="m -19.403434,194.67686 c 0.88566,-1.363 3.69035,-7.49647 3.69035,-7.49647 l -7.82357,-5.45197 -4.13319,6.64459 z"
       id="path60-4" /><path
       style="fill:#000000;fill-opacity:1;stroke-width:0.284249;paint-order:markers stroke fill;filter:url(#filter83)"
       d="m -8.5071812,193.69414 c 0.88566,-1.363 3.69035,-7.49647 3.69035,-7.49647 l -7.8235698,-5.45197 -4.13319,6.64459 z"
       id="path60-9" /><path
       style="fill:#000000;fill-opacity:1;stroke-width:0.284249;paint-order:markers stroke fill;filter:url(#filter84)"
       d="m 115.37927,151.45613 c 0.88566,-1.363 3.69035,-7.49646 3.69035,-7.49646 l -7.82357,-5.45198 -4.13319,6.6446 z"
       id="path60-3" /><path
       style="opacity:1;fill:#000000;fill-opacity:1;stroke-width:0.284249;paint-order:markers stroke fill;filter:url(#filter85)"
       d="m 379.36879,178.39645 c -2.0666,-0.17037 -28.19434,12.09657 -28.19434,12.09657 l 0.14761,2.38524 28.04673,-11.92621 1.18092,-1.70373 z"
       id="path61" /><path
       style="fill:#000000;fill-opacity:1;stroke-width:0.284249;paint-order:markers stroke fill;filter:url(#filter86)"
       d="m 119.68124,185.30903 c -2.01722,0.5456 -23.810559,21.21382 -23.810559,21.21382 l 0.754607,2.22707 23.713442,-21.00055 0.68933,-2.03162 z"
       id="path61-0" /><path
       style="opacity:1;fill:#000000;fill-opacity:1;stroke-width:0.284249;paint-order:markers stroke fill;filter:url(#filter87)"
       d="m 355.7505,169.02587 c -0.59047,0 -1.62375,-0.68149 -1.32853,0.34075 0.29522,1.02225 0.59045,3.40748 0.59045,3.40748 l -2.50945,-0.34075 -1.77135,-2.5556 -0.59047,2.72597 c 0,0 -1.62375,2.0445 -2.06661,2.72599 -0.44284,0.6815 -2.06658,0.51113 -2.06658,0.51113 0,0 -2.36183,-1.70375 -3.69036,-1.70375 -1.32852,0 -2.06661,0.17038 -2.36183,0.85187 -0.29525,0.6815 -7.08549,8.17796 -7.08549,8.17796 l -22.28977,16.86705 v 0.51112 l 16.82803,-8.68908 7.97118,-7.66684 6.34741,-8.00758 c 0,0 2.06661,2.04449 2.80469,2.21486 0.73805,0.17038 3.83797,0 3.83797,0 l 2.36183,-1.87412 1.0333,-1.36299 4.13319,0.17037 c 0,0 1.47613,-0.17037 1.18091,-1.53337 -0.29522,-1.36299 -1.32852,-4.77047 -1.32852,-4.77047 z"
       id="path62" /><path
       style="opacity:1;fill:#000000;fill-opacity:1;stroke-width:0.284249;paint-order:markers stroke fill;filter:url(#filter88)"
       d="m 315.89464,179.92982 -29.22764,15.84479 -0.44284,1.70374 1.62375,1.19262 27.8991,-16.69667 z"
       id="path63" /><path
       style="fill:#000000;fill-opacity:1;stroke-width:0.610579;paint-order:markers stroke fill;filter:url(#filter89)"
       d="m 58.026644,73.291114 -106.213804,40.846226 -1.362213,2.38225 6.250652,0.2281 101.120484,-40.883562 z"
       id="path63-68" /><path
       style="fill:#000000;fill-opacity:1;stroke-width:0.284249;paint-order:markers stroke fill;filter:url(#filter90)"
       d="m 212.97349,178.8566 -29.22764,15.84479 -0.44284,1.70374 1.62375,1.19262 27.8991,-16.69666 z"
       id="path63-6" /><path
       style="fill:#000000;fill-opacity:1;stroke-width:0.462166;paint-order:markers stroke fill;filter:url(#filter91)"
       d="m 270.72068,65.618711 -51.02574,23.99314 -0.77311,2.579903 2.83475,1.805929 48.70636,-25.283086 z"
       id="path63-6-4" /><path
       id="path64"
       style="opacity:1;fill:#000000;fill-opacity:1;stroke-width:0.284249;paint-order:markers stroke fill;filter:url(#filter92)"
       d="m 266.00113,171.92229 -2.36213,0.17059 -3.09955,5.28148 0.44286,5.11091 2.06654,0.68173 3.83801,-0.68173 1.77095,-2.55575 1.03353,-3.23689 c 0,0 -0.14784,-0.85173 -1.03353,-1.36286 -0.88569,-0.51112 -2.80448,-1.36288 -2.80448,-1.36288 l -0.73794,-1.0223 z m -1.62367,4.08921 2.36161,0.85172 -0.44287,2.38517 -2.21433,1.53345 -1.47588,-1.70404 z" /><path
       id="path64-2"
       style="fill:#000000;fill-opacity:1;stroke-width:0.284249;paint-order:markers stroke fill;filter:url(#filter93)"
       d="m 343.08079,66.570571 -2.36213,0.170588 -3.09955,5.28148 0.44286,5.110913 2.06654,0.681731 3.83801,-0.681731 1.77095,-2.555757 1.03353,-3.236887 c 0,0 -0.14784,-0.851731 -1.03353,-1.362861 -0.88569,-0.511119 -2.80448,-1.362873 -2.80448,-1.362873 l -0.73794,-1.022307 z m -1.62367,4.089206 2.36161,0.851719 -0.44287,2.385169 -2.21433,1.533449 -1.47588,-1.704038 z" /><path
       id="path64-2-2"
       style="fill:#000000;fill-opacity:1;stroke-width:0.284249;paint-order:markers stroke fill;filter:url(#filter94)"
       d="m 245.08766,57.914967 -2.36213,0.170588 -3.09955,5.28148 0.44286,5.110913 2.06654,0.681731 3.83801,-0.681731 1.77095,-2.555757 1.03353,-3.236887 c 0,0 -0.14784,-0.851731 -1.03353,-1.362861 -0.88569,-0.511119 -2.80448,-1.362873 -2.80448,-1.362873 l -0.73794,-1.022307 z m -1.62367,4.089206 2.36161,0.851719 -0.44287,2.385169 -2.21433,1.53345 -1.47588,-1.704039 z" /><path
       id="path64-2-4"
       style="fill:#000000;fill-opacity:1;stroke-width:0.284249;paint-order:markers stroke fill;filter:url(#filter95)"
       d="m 141.09137,165.40264 -2.36213,0.17059 -3.09955,5.28148 0.44286,5.11091 2.06654,0.68173 3.83801,-0.68173 1.77095,-2.55576 1.03353,-3.23689 c 0,0 -0.14784,-0.85173 -1.03353,-1.36286 -0.88569,-0.51112 -2.80448,-1.36287 -2.80448,-1.36287 l -0.73794,-1.02231 z m -1.62367,4.0892 2.36161,0.85172 -0.44287,2.38517 -2.21433,1.53345 -1.47588,-1.70404 z" /><path
       id="path64-2-6"
       style="fill:#000000;fill-opacity:1;stroke-width:0.284249;paint-order:markers stroke fill;filter:url(#filter96)"
       d="m 20.473272,168.2983 -2.36213,0.17059 -3.09955,5.28148 0.44286,5.11091 2.06654,0.68173 3.83801,-0.68173 1.77095,-2.55575 1.03353,-3.23689 c 0,0 -0.14784,-0.85173 -1.03353,-1.36286 -0.88569,-0.51112 -2.80448,-1.36287 -2.80448,-1.36287 l -0.73794,-1.02231 z m -1.62367,4.08921 2.36161,0.85172 -0.44287,2.38517 -2.21433,1.53345 -1.47588,-1.70404 z" /><path
       id="path64-2-1"
       style="fill:#000000;fill-opacity:1;stroke-width:0.284249;paint-order:markers stroke fill;filter:url(#filter97)"
       d="m -7.576298,108.35649 -2.36213,0.17059 -3.09955,5.28148 0.44286,5.11091 2.06654,0.68173 3.83801,-0.68173 1.77095,-2.55576 1.03353,-3.23688 c 0,0 -0.14784,-0.85173 -1.03353,-1.36286 -0.88569,-0.51112 -2.80448,-1.36288 -2.80448,-1.36288 l -0.73794,-1.0223 z m -1.62367,4.08921 2.36161,0.85171 -0.44287,2.38517 -2.21433,1.53345 -1.47588,-1.70404 z" /><path
       style="opacity:1;fill:#000000;fill-opacity:1;stroke-width:0.284249;paint-order:markers stroke fill;filter:url(#filter98)"
       d="m 329.5363,119.85831 -2.36183,6.30384 -0.59047,4.77048 1.62377,1.363 2.36183,-1.02225 1.18092,-3.23711 c 0,0 0.59044,3.91861 0.14761,4.60011 -0.44286,0.68149 -2.50944,4.60009 -2.50944,4.60009 0,0 -1.47617,0.6815 -2.21422,-0.34075 -0.73808,-1.02224 -2.06661,-2.21485 -2.21422,-3.40747 -0.14761,-1.19262 -0.73808,-2.89637 -0.59047,-3.74824 0.14764,-0.85187 1.32855,-5.11123 1.32855,-5.11123 z"
       id="path65" /><path
       style="fill:#000000;fill-opacity:1;stroke-width:0.284249;paint-order:markers stroke fill;filter:url(#filter99)"
       d="m 111.61747,113.5647 -2.36183,6.30385 -0.59047,4.77047 1.62377,1.363 2.36183,-1.02225 1.18092,-3.23711 c 0,0 0.59044,3.91861 0.14761,4.60011 -0.44286,0.68149 -2.50944,4.6001 -2.50944,4.6001 0,0 -1.47617,0.6815 -2.21422,-0.34075 -0.73808,-1.02224 -2.06661,-2.21486 -2.21422,-3.40748 -0.14761,-1.19262 -0.73808,-2.89637 -0.59047,-3.74824 0.14764,-0.85187 1.32855,-5.11122 1.32855,-5.11122 z"
       id="path65-8" /><path
       style="fill:#000000;fill-opacity:1;stroke-width:0.342132;paint-order:markers stroke fill;filter:url(#filter100)"
       d="m 87.82693,157.21209 -2.745203,7.8572 -0.686315,5.94597 1.887341,1.69886 2.745202,-1.27415 1.372608,-4.03476 c 0,0 0.68628,4.88419 0.17157,5.73363 -0.514745,0.84941 -2.916773,5.7336 -2.916773,5.7336 0,0 -1.715783,0.84944 -2.573633,-0.42471 -0.857885,-1.27413 -2.402063,-2.76063 -2.573633,-4.24711 -0.17157,-1.4865 -0.857885,-3.61007 -0.686315,-4.67185 0.171605,-1.06178 1.544201,-6.3707 1.544201,-6.3707 z"
       id="path65-7" /><path
       style="fill:#000000;fill-opacity:1;stroke-width:0.284249;paint-order:markers stroke fill;filter:url(#filter101)"
       d="m 170.07068,134.13766 -2.36183,6.30384 -0.59047,4.77048 1.62377,1.363 2.36183,-1.02225 1.18092,-3.23711 c 0,0 0.59044,3.91861 0.14761,4.60011 -0.44286,0.68149 -2.50944,4.60009 -2.50944,4.60009 0,0 -1.47617,0.6815 -2.21422,-0.34075 -0.73808,-1.02223 -2.06661,-2.21485 -2.21422,-3.40747 -0.14761,-1.19262 -0.73808,-2.89637 -0.59047,-3.74824 0.14764,-0.85187 1.32855,-5.11122 1.32855,-5.11122 z"
       id="path65-0" /><path
       style="fill:#000000;fill-opacity:1;stroke-width:0.284249;paint-order:markers stroke fill;filter:url(#filter102)"
       d="m 18.709781,93.141198 -2.36183,6.303844 -0.59047,4.770478 1.62377,1.363 2.36183,-1.02225 1.18092,-3.23711 c 0,0 0.59044,3.91861 0.14761,4.60011 -0.44286,0.68149 -2.50944,4.60009 -2.50944,4.60009 0,0 -1.47617,0.6815 -2.21422,-0.34075 -0.73808,-1.02224 -2.06661,-2.21486 -2.21422,-3.40747 -0.14761,-1.19262 -0.73808,-2.89637 -0.59047,-3.74824 0.14764,-0.85187 1.32855,-5.111227 1.32855,-5.111227 z"
       id="path65-4" /><path
       style="fill:#000000;fill-opacity:1;stroke-width:0.284249;paint-order:markers stroke fill;filter:url(#filter102-7)"
       d="m -62.969873,142.14576 -2.36183,6.30385 -0.59047,4.77047 1.62377,1.363 2.36183,-1.02225 1.18092,-3.23711 c 0,0 0.59044,3.91861 0.14761,4.60011 -0.44286,0.68149 -2.50944,4.60009 -2.50944,4.60009 0,0 -1.47617,0.6815 -2.21422,-0.34075 -0.73808,-1.02224 -2.06661,-2.21486 -2.21422,-3.40747 -0.14761,-1.19262 -0.73808,-2.89637 -0.59047,-3.74824 0.14764,-0.85187 1.32855,-5.11122 1.32855,-5.11122 z"
       id="path65-4-6"
       transform="matrix(1.4454352,0,0,2.1110823,28.329068,-177.4208)" /><path
       style="opacity:1;fill:#000000;fill-opacity:1;stroke-width:0.284249;paint-order:markers stroke fill;filter:url(#filter104)"
       d="m 339.07008,124.04709 5.75696,-4.6001 c 0,0 3.98558,-2.21487 2.36183,-2.04449 -1.62377,0.17037 -7.08549,1.02224 -7.08549,1.02224 l -4.28082,0.34075 -0.73806,-2.21486 2.95228,-3.74823 1.77138,-2.55561 14.76142,-0.85188 1.32853,1.87412 -5.16649,7.66684 -4.72366,4.77048 -5.60936,1.53337 z"
       id="path66" /><path
       style="fill:#000000;fill-opacity:1;stroke-width:0.284249;paint-order:markers stroke fill;filter:url(#filter105)"
       d="M 0.17892367,83.283527 5.9358837,78.683431 c 0,0 3.98558,-2.214869 2.36183,-2.044488 -1.62377,0.170369 -7.08549,1.022238 -7.08549,1.022238 l -4.28082,0.34075 -0.73806,-2.214857 2.95227997,-3.748238 1.77138,-2.555607 14.76142033,-0.85188 1.32853,1.874119 -5.16649,7.666844 -4.7236603,4.770475 -5.60936,1.53337 z"
       id="path66-1" /><path
       style="opacity:1;fill:#000000;fill-opacity:1;stroke-width:0.284249;paint-order:markers stroke fill;filter:url(#filter106)"
       d="m 344.67943,102.2392 c 0.44283,-1.19262 3.39511,-10.563194 3.39511,-10.563194 l 2.80469,-5.281606 2.0666,-0.851869 0.59045,1.533369 0.14761,1.703738 1.18091,-0.6815 c 0,0 0.59047,-0.170369 0.29523,-1.192619 -0.29523,-1.022238 0,-0.851869 -0.59045,-1.362988 -0.59047,-0.511119 0.14761,-1.022249 -1.32852,-1.703738 -1.47614,-0.681501 -2.9523,-0.34075 -2.9523,-0.34075 0,0 -0.88567,0.511119 -1.32853,1.362988 -0.44283,0.851881 -2.36183,4.259357 -2.50944,5.281607 -0.14761,1.022238 -0.88569,5.963094 -0.88569,5.963094 0,0 -0.88567,-2.725988 -1.18092,-3.748237 -0.29522,-1.022238 -2.65705,-4.429726 -3.24749,-4.770476 -0.59047,-0.34075 -3.69036,-1.703738 -3.69036,-1.703738 l -3.83799,0.34075 0.73808,4.088976 2.65705,1.874119 1.77139,0.681499 3.09988,-0.681499 z"
       id="path67" /><path
       style="fill:#000000;fill-opacity:1;stroke-width:0.284249;paint-order:markers stroke fill;filter:url(#filter107)"
       d="m 314.78892,121.83493 c 0.30489,-1.2489 2.1778,-10.98263 2.1778,-10.98263 l 2.18666,-5.65728 1.95324,-1.15442 0.75799,1.43188 0.33806,1.66719 1.09423,-0.85274 c 0,0 0.5663,-0.25744 0.15854,-1.22677 -0.40776,-0.96933 -0.0959,-0.84465 -0.73882,-1.26294 -0.64298,-0.41829 0.0313,-1.03572 -1.50897,-1.49018 -1.54032,-0.45447 -2.96564,0.10468 -2.96564,0.10468 0,0 -0.82066,0.63955 -1.16391,1.55058 -0.34323,0.91105 -1.86258,4.5773 -1.89391,5.61302 -0.0313,1.03571 -0.20723,6.04535 -0.20723,6.04535 0,0 -1.1849,-2.57015 -1.59267,-3.53948 -0.40774,-0.96933 -3.13297,-3.99395 -3.75675,-4.24331 -0.62382,-0.24935 -3.85082,-1.13616 -3.85082,-1.13616 l -3.76714,0.91315 1.19191,3.94372 2.84543,1.45997 1.83307,0.41021 2.99694,-1.14037 z"
       id="path67-0" /><path
       style="fill:#000000;fill-opacity:1;stroke-width:0.284249;paint-order:markers stroke fill;filter:url(#filter108)"
       d="m 138.50872,115.56735 c 0.30489,-1.2489 2.1778,-10.98263 2.1778,-10.98263 l 2.18666,-5.657284 1.95324,-1.154415 0.75799,1.431881 0.33806,1.667188 1.09423,-0.85274 c 0,0 0.5663,-0.257438 0.15854,-1.226769 -0.40776,-0.96933 -0.0959,-0.844655 -0.73882,-1.262943 -0.64298,-0.418288 0.0313,-1.035719 -1.50897,-1.490179 -1.54032,-0.454472 -2.96564,0.104684 -2.96564,0.104684 0,0 -0.82066,0.639546 -1.16391,1.550578 -0.34323,0.911044 -1.86258,4.577299 -1.89391,5.613019 -0.0313,1.03571 -0.20723,6.04535 -0.20723,6.04535 0,0 -1.1849,-2.57015 -1.59267,-3.53948 -0.40774,-0.96933 -3.13297,-3.99395 -3.75675,-4.24331 -0.62382,-0.24935 -3.85082,-1.13616 -3.85082,-1.13616 l -3.76714,0.91315 1.19191,3.94372 2.84543,1.45997 1.83307,0.41021 2.99694,-1.14037 z"
       id="path67-0-7" /><path
       style="fill:#000000;fill-opacity:1;stroke-width:0.284249;paint-order:markers stroke fill;filter:url(#filter109)"
       d="m -34.282489,144.48622 c 0.30489,-1.2489 2.1778,-10.98263 2.1778,-10.98263 l 2.18666,-5.65729 1.95324,-1.15441 0.75799,1.43188 0.33806,1.66718 1.09423,-0.85273 c 0,0 0.5663,-0.25744 0.15854,-1.22677 -0.40776,-0.96933 -0.0959,-0.84466 -0.73882,-1.26294 -0.64298,-0.41829 0.0313,-1.03572 -1.50897,-1.49018 -1.54032,-0.45448 -2.96564,0.10468 -2.96564,0.10468 0,0 -0.82066,0.63955 -1.16391,1.55058 -0.34323,0.91104 -1.86258,4.5773 -1.89391,5.61302 -0.0313,1.0357 -0.20723,6.04535 -0.20723,6.04535 0,0 -1.1849,-2.57015 -1.59267,-3.53948 -0.40774,-0.96933 -3.13297,-3.99395 -3.75675,-4.24331 -0.62382,-0.24935 -3.85082,-1.13616 -3.85082,-1.13616 l -3.76714,0.91315 1.19191,3.94372 2.84543,1.45997 1.83307,0.41021 2.99694,-1.14037 z"
       id="path67-0-7-2" /><path
       style="fill:#000000;fill-opacity:1;stroke-width:0.284249;paint-order:markers stroke fill;filter:url(#filter110)"
       d="m -27.682903,98.827322 c 0.30489,-1.248897 2.1778,-10.982631 2.1778,-10.982631 l 2.18666,-5.657277 1.95324,-1.154416 0.75799,1.431882 0.33806,1.66718 1.09423,-0.852735 c 0,0 0.5663,-0.257436 0.15854,-1.226766 -0.40776,-0.969331 -0.0959,-0.844656 -0.73882,-1.262944 -0.64298,-0.418288 0.0313,-1.035719 -1.50897,-1.490179 -1.54032,-0.454471 -2.96564,0.104685 -2.96564,0.104685 0,0 -0.82066,0.639545 -1.16391,1.550577 -0.34323,0.911044 -1.86258,4.577296 -1.89391,5.613015 -0.0313,1.035707 -0.20723,6.045353 -0.20723,6.045353 0,0 -1.1849,-2.57015 -1.59267,-3.53948 -0.40774,-0.969331 -3.13297,-3.993952 -3.75675,-4.243314 -0.62382,-0.24935 -3.85082,-1.136156 -3.85082,-1.136156 l -3.76714,0.913145 1.19191,3.943722 2.84543,1.459974 1.83307,0.410208 2.99694,-1.140368 z"
       id="path67-0-7-6" /><path
       style="opacity:1;fill:#000000;fill-opacity:1;stroke-width:0.284249;paint-order:markers stroke fill;filter:url(#filter111)"
       d="M 308.07107,94.742733 319.73261,87.0759 c 0,0 0.44283,-1.874119 -1.0333,-1.192619 -1.47614,0.6815 -2.65706,1.362988 -2.65706,1.362988 0,0 -2.21421,0.6815 -3.09991,0.851869 -0.88569,0.170381 -2.50944,0.34075 -2.50944,0.34075 l -1.62375,-0.681488 -0.29524,-1.533369 1.18091,-1.363 1.0333,0.34075 1.47614,1.533369 1.47616,-0.170369 0.73806,-0.6815 c 0,0 0.73808,0 -0.14761,-1.533369 -0.88569,-1.533366 -1.47614,-2.214864 -1.47614,-2.214864 0,0 -1.47613,-1.362992 -2.06661,-0.681496 -0.59044,0.681496 -1.0333,0.340746 -1.77135,1.022244 -0.73809,0.681496 -1.62378,1.362997 -1.62378,1.362997 l -0.59044,0.851869 c 0,0 -0.8857,1.02225 -0.8857,1.703738 0,0.6815 0,3.407488 0,3.407488 l 1.62375,1.022238 1.18092,0.511131"
       id="path68" /><path
       id="path69"
       style="opacity:1;fill:#000000;fill-opacity:1;stroke-width:0.284249;paint-order:markers stroke fill;filter:url(#filter112)"
       d="m 289.15217,49.354182 c -0.10242,0.0049 -0.22923,0.04775 -0.45527,0.196826 -0.51665,0.340748 -0.4064,0.29821 -0.99684,1.022301 -0.59047,0.724091 -0.70114,1.235013 -1.2547,1.788727 -0.55354,0.553718 -0.33206,0.59668 -0.99632,1.278174 -0.66426,0.681496 -0.62735,0.851501 -1.25471,1.405215 -0.62738,0.553718 -0.70091,0.638854 -0.84852,0.93701 -0.14761,0.298156 0.0734,1.320324 -0.29559,0.425859 -0.36904,-0.894464 -1.43881,-1.831311 -1.77095,-2.512807 -0.33213,-0.681498 -0.4428,-1.022499 -0.81184,-1.916963 -0.36904,-0.894465 -1.43971,-2.299878 -1.43971,-2.299878 0,0 0.66456,4.429694 0.66456,4.855629 0,0.425938 0.0368,0.72421 0.11059,1.320522 0.0738,0.596308 0.55356,1.235333 0,1.320521 -0.55356,0.08519 -2.17709,-0.170476 -2.36161,-0.08529 -0.18452,0.08519 -0.33229,0.08537 -0.77515,-0.340568 -0.44284,-0.425938 -0.29507,-0.681939 -0.92242,-0.852315 -0.34063,-0.09251 -0.0937,-0.172809 -0.0863,-0.21293 2e-5,-2.84e-4 -1e-5,-0.0015 0,-0.0018 -3e-5,-2.77e-4 -4.7e-4,-0.0015 -5.2e-4,-0.0018 v -5.95e-4 c -1.1e-4,-2.65e-4 -9e-4,-0.0015 -0.001,-0.0018 l -5.2e-4,-5.96e-4 c -0.0211,-0.02708 -0.21898,-0.02938 -0.98185,0.0066 -1.80827,0.08519 -2.32519,0.29843 -2.54662,0.468804 -0.22141,0.170373 -0.73809,0.894688 -1.07022,1.405811 -0.33213,0.511123 -0.29514,0.255411 -0.55345,0.851719 -0.25831,0.596309 -0.25806,1.959271 -0.22118,2.172239 0.0369,0.212967 0.25839,0.383513 0.25839,0.383513 0,0 0.59007,0.468103 0.95911,0.382915 0.36904,-0.08519 0.55361,-0.340636 0.88574,-0.638789 0.33213,-0.298156 0.66444,-0.596263 0.77514,-0.93701 0.11073,-0.340747 -0.0369,-0.638892 0.44287,-0.72408 0.47974,-0.08519 0.70129,-0.426035 0.95963,-0.08529 0.25831,0.340746 0.22132,-0.04237 0.55345,0.681733 0.33213,0.724088 0.70078,0.809191 0.95912,1.149938 0.25831,0.34075 0.5907,0.723937 0.84904,0.851719 0.25831,0.12778 0.0738,0.639187 1.07022,-0.255277 0.99639,-0.894464 1.73463,-1.44854 2.02985,-2.002254 0.29525,-0.553718 0.2582,-0.809193 0.73794,-1.149939 0.47974,-0.34075 0.4796,-0.596335 0.73794,-0.511151 0.25832,0.08519 0.33206,4.15e-4 0.36897,0.341165 0.0369,0.340747 0.11102,-0.170528 0.0372,0.851719 -0.0738,1.022244 -0.0742,0.894483 -0.11111,1.23523 -0.0369,0.34075 -0.81172,2.76851 -0.29507,2.385168 0.51666,-0.383344 2.87838,-3.023957 2.87838,-3.023957 0,0 1.21816,-0.425963 1.55029,-0.511151 0.33214,-0.08519 0.55332,-0.341265 1.2914,-0.426455 0.73805,-0.08519 1.18072,-0.08487 1.73426,-0.468206 0.55356,-0.383342 0.84893,-0.426134 1.40249,-0.894663 0.55356,-0.468526 0.70118,-0.681163 1.07022,-1.192286 0.36905,-0.511123 0.70144,-0.426406 0.84905,-1.363465 0.14761,-0.937058 0.59011,-0.297707 0.14728,-1.831075 -0.44286,-1.533366 -1.32827,-3.024516 -1.47588,-3.237484 -0.14761,-0.212967 -0.99625,-0.255524 -1.36529,-0.21293 -0.20759,0.02396 -0.29878,-0.03251 -0.43047,-0.02624 z m 0.0982,1.815568 c 0.51665,0 0.81194,0.383188 0.88573,0.851717 0.0738,0.46853 0.25838,0.468482 0.25838,0.93701 0,0.468526 0.59048,0.17043 -0.18448,1.022301 -0.77496,0.85187 -0.55385,0.766352 -1.29191,1.192286 -0.73808,0.425936 -0.22133,0.213101 -1.18081,0.596441 -0.95951,0.383342 -1.43919,0.341166 -1.43919,0.341166 0,0 -0.2956,-5.51e-4 0.33176,-0.937607 0.62738,-0.937058 0.92265,-1.40527 1.51309,-2.427517 0.59047,-1.022244 0.59077,-1.575797 1.10743,-1.575797 z" /><path
       id="path69-4"
       style="fill:#000000;fill-opacity:1;stroke-width:0.284249;paint-order:markers stroke fill;filter:url(#filter113)"
       d="m 207.95381,50.128332 c -0.10242,0.0048 -0.22923,0.04775 -0.45527,0.196827 -0.51665,0.340748 -0.4064,0.29821 -0.99684,1.0223 -0.59047,0.724092 -0.70114,1.235014 -1.2547,1.788728 -0.55354,0.553718 -0.33206,0.59668 -0.99632,1.278174 -0.66426,0.681496 -0.62735,0.851501 -1.25471,1.405215 -0.62738,0.553718 -0.70091,0.638854 -0.84852,0.93701 -0.14761,0.298156 0.0734,1.320323 -0.29559,0.425859 -0.36904,-0.894464 -1.43881,-1.831311 -1.77095,-2.512807 -0.33213,-0.681498 -0.4428,-1.022499 -0.81184,-1.916964 -0.36904,-0.894464 -1.43971,-2.299877 -1.43971,-2.299877 0,0 0.66456,4.429694 0.66456,4.855629 0,0.425938 0.0368,0.72421 0.11059,1.320522 0.0738,0.596308 0.55356,1.235333 0,1.320521 -0.55356,0.08519 -2.17709,-0.170477 -2.36161,-0.08529 -0.18452,0.08519 -0.33229,0.08536 -0.77515,-0.340569 -0.44284,-0.425938 -0.29507,-0.681938 -0.92242,-0.852315 -0.34063,-0.09251 -0.0937,-0.172809 -0.0863,-0.212929 2e-5,-2.84e-4 -1e-5,-0.0015 0,-0.0017 -3e-5,-2.77e-4 -4.7e-4,-0.0015 -5.2e-4,-0.0018 v -5.96e-4 c -1.1e-4,-2.64e-4 -9e-4,-0.0015 -10e-4,-0.0018 l -5.2e-4,-5.96e-4 c -0.0211,-0.02708 -0.21898,-0.02937 -0.98185,0.0066 -1.80827,0.08519 -2.32519,0.298429 -2.54662,0.468803 -0.22141,0.170374 -0.73809,0.894688 -1.07022,1.405812 -0.33213,0.511122 -0.29514,0.25541 -0.55345,0.851719 -0.25831,0.596308 -0.25806,1.959271 -0.22118,2.172239 0.0369,0.212966 0.25839,0.383512 0.25839,0.383512 0,0 0.59007,0.468104 0.95911,0.382916 0.36904,-0.08519 0.55361,-0.340637 0.88574,-0.638789 0.33213,-0.298156 0.66444,-0.596264 0.77514,-0.93701 0.11073,-0.340748 -0.0369,-0.638892 0.44287,-0.72408 0.47974,-0.08519 0.70129,-0.426035 0.95963,-0.08529 0.25831,0.340746 0.22132,-0.04236 0.55345,0.681733 0.33213,0.724088 0.70078,0.809191 0.95912,1.149938 0.25831,0.34075 0.5907,0.723937 0.84904,0.851719 0.25831,0.12778 0.0738,0.639187 1.07022,-0.255277 0.99639,-0.894464 1.73463,-1.44854 2.02985,-2.002254 0.29525,-0.553718 0.2582,-0.809193 0.73794,-1.149939 0.47974,-0.34075 0.4796,-0.596335 0.73794,-0.511151 0.25832,0.08519 0.33206,4.15e-4 0.36897,0.341165 0.0369,0.340747 0.11102,-0.170528 0.0372,0.851719 -0.0738,1.022243 -0.0742,0.894483 -0.11111,1.23523 -0.0369,0.34075 -0.81172,2.76851 -0.29507,2.385168 0.51666,-0.383344 2.87838,-3.023957 2.87838,-3.023957 0,0 1.21816,-0.425963 1.55029,-0.511151 0.33214,-0.08519 0.55332,-0.341266 1.2914,-0.426455 0.73805,-0.08519 1.18072,-0.08487 1.73426,-0.468206 0.55356,-0.383342 0.84893,-0.426134 1.40249,-0.894663 0.55356,-0.468526 0.70118,-0.681163 1.07022,-1.192286 0.36905,-0.511123 0.70144,-0.426406 0.84905,-1.363465 0.14761,-0.937058 0.59011,-0.297707 0.14728,-1.831075 -0.44286,-1.533366 -1.32827,-3.024516 -1.47588,-3.237484 -0.14761,-0.212967 -0.99625,-0.255524 -1.36529,-0.21293 -0.20759,0.02396 -0.29878,-0.03251 -0.43047,-0.02625 z m 0.0982,1.815568 c 0.51665,0 0.81194,0.383189 0.88573,0.851718 0.0738,0.46853 0.25838,0.468481 0.25838,0.93701 0,0.468526 0.59048,0.17043 -0.18448,1.0223 -0.77496,0.851871 -0.55385,0.766352 -1.29191,1.192287 -0.73808,0.425936 -0.22133,0.2131 -1.18081,0.596441 -0.95951,0.383342 -1.43919,0.341165 -1.43919,0.341165 0,0 -0.2956,-5.5e-4 0.33176,-0.937606 0.62738,-0.937058 0.92265,-1.405271 1.51309,-2.427517 0.59047,-1.022244 0.59077,-1.575798 1.10743,-1.575798 z" /><path
       id="path69-4-1"
       style="fill:#000000;fill-opacity:1;stroke-width:0.284249;paint-order:markers stroke fill;filter:url(#filter114)"
       d="m 92.936945,55.815774 c -0.10242,0.0048 -0.22923,0.04775 -0.45527,0.196827 -0.51665,0.340747 -0.4064,0.29821 -0.99684,1.0223 -0.59047,0.724092 -0.70114,1.235013 -1.2547,1.788728 -0.55354,0.553717 -0.33206,0.59668 -0.99632,1.278174 -0.66426,0.681496 -0.62735,0.8515 -1.25471,1.405215 -0.62738,0.553717 -0.70091,0.638854 -0.84852,0.937009 -0.14761,0.298156 0.0734,1.320324 -0.29559,0.42586 -0.36904,-0.894464 -1.43881,-1.831311 -1.77095,-2.512808 -0.33213,-0.681497 -0.4428,-1.022499 -0.81184,-1.916963 -0.36904,-0.894464 -1.43971,-2.299878 -1.43971,-2.299878 0,0 0.66456,4.429695 0.66456,4.855629 0,0.425938 0.0368,0.724211 0.11059,1.320523 0.0738,0.596308 0.55356,1.235333 0,1.320521 -0.55356,0.08519 -2.17709,-0.170477 -2.36161,-0.08529 -0.18452,0.08519 -0.33229,0.08536 -0.77515,-0.340568 -0.44284,-0.425938 -0.29507,-0.681939 -0.92242,-0.852315 -0.34063,-0.09251 -0.0937,-0.172809 -0.0863,-0.21293 2e-5,-2.83e-4 -1e-5,-0.0015 0,-0.0017 -3e-5,-2.77e-4 -4.7e-4,-0.0015 -5.2e-4,-0.0018 v -5.95e-4 c -1.1e-4,-2.64e-4 -9e-4,-0.0015 -10e-4,-0.0018 l -5.2e-4,-5.95e-4 c -0.0211,-0.02708 -0.21898,-0.02937 -0.98185,0.0066 -1.80827,0.08519 -2.32519,0.298429 -2.54662,0.468803 -0.22141,0.170374 -0.73809,0.894688 -1.07022,1.405812 -0.33213,0.511122 -0.29514,0.25541 -0.55345,0.851718 -0.25831,0.596309 -0.25806,1.959271 -0.22118,2.172239 0.0369,0.212967 0.25839,0.383513 0.25839,0.383513 0,0 0.59007,0.468104 0.95911,0.382915 0.36904,-0.08519 0.55361,-0.340636 0.88574,-0.638789 0.33213,-0.298156 0.66444,-0.596263 0.77514,-0.937009 0.11073,-0.340748 -0.0369,-0.638892 0.44287,-0.72408 0.47974,-0.08519 0.70129,-0.426035 0.95963,-0.0853 0.25831,0.340747 0.22132,-0.04236 0.55345,0.681733 0.33213,0.724088 0.70078,0.809192 0.95912,1.149939 0.25831,0.340749 0.5907,0.723936 0.84904,0.851719 0.25831,0.127779 0.0738,0.639187 1.07022,-0.255277 0.99639,-0.894464 1.73463,-1.44854 2.02985,-2.002254 0.29525,-0.553718 0.2582,-0.809193 0.73794,-1.14994 0.47974,-0.34075 0.4796,-0.596335 0.73794,-0.51115 0.25832,0.08519 0.33206,4.14e-4 0.36897,0.341164 0.0369,0.340748 0.11102,-0.170527 0.0372,0.851719 -0.0738,1.022244 -0.0742,0.894484 -0.11111,1.235231 -0.0369,0.340749 -0.81172,2.76851 -0.29507,2.385168 0.51666,-0.383344 2.87838,-3.023958 2.87838,-3.023958 0,0 1.21816,-0.425962 1.55029,-0.51115 0.33214,-0.08519 0.55332,-0.341266 1.2914,-0.426455 0.73805,-0.08519 1.18072,-0.08487 1.73426,-0.468206 0.55356,-0.383342 0.84893,-0.426135 1.40249,-0.894663 0.55356,-0.468526 0.70118,-0.681163 1.07022,-1.192287 0.36905,-0.511122 0.70144,-0.426405 0.84905,-1.363464 0.14761,-0.937059 0.59011,-0.297707 0.14728,-1.831075 -0.44286,-1.533366 -1.32827,-3.024516 -1.47588,-3.237484 -0.14761,-0.212967 -0.99625,-0.255524 -1.36529,-0.21293 -0.20759,0.02396 -0.29878,-0.03251 -0.43047,-0.02625 z m 0.0982,1.815568 c 0.51665,0 0.81194,0.383188 0.88573,0.851718 0.0738,0.46853 0.25838,0.468481 0.25838,0.93701 0,0.468526 0.59048,0.17043 -0.18448,1.0223 -0.77496,0.85187 -0.55385,0.766352 -1.29191,1.192287 -0.73808,0.425935 -0.22133,0.2131 -1.18081,0.596441 -0.95951,0.383341 -1.43919,0.341165 -1.43919,0.341165 0,0 -0.2956,-5.5e-4 0.33176,-0.937606 0.62738,-0.937059 0.92265,-1.405271 1.51309,-2.427517 0.59047,-1.022244 0.59077,-1.575798 1.10743,-1.575798 z" /><path
       style="opacity:1;fill:#000000;fill-opacity:1;stroke-width:0.284249;paint-order:markers stroke fill;filter:url(#filter115)"
       d="m 264.52484,88.353709 0.51665,-1.874118 c 0,0 1.54995,1.192619 1.69757,1.533368 0.14761,0.34075 1.47616,1.788929 1.69756,2.385238 0.22143,0.59631 0.73808,2.300048 0.73808,2.300048 l 0.0738,5.281606 -2.28801,1.022238 -1.69757,-0.42594 -1.84518,-1.192608 -0.81187,-0.681499 -2.65705,3.663038 -2.87849,0.6815 c 0,0 -1.47616,-0.85187 -1.84517,-1.107432 -0.36904,-0.255559 -0.95952,-1.703738 -0.95952,-1.703738 l -0.59044,-2.129678 0.51665,-2.214868 -0.14761,-1.27781 -1.32852,1.448179 -2.36183,0.255571 0.73805,-1.959309 c 0,0 0.51665,-1.788929 0.81188,-2.129679 0.29524,-0.340749 1.54995,-1.277797 1.99281,-1.618547 0.44283,-0.34075 1.69754,-0.59631 1.69754,-0.59631 0,0 1.47616,-1.788928 1.40235,-1.192618 -0.0738,0.596309 -0.29523,2.811166 -0.29523,3.151916 0,0.34075 -0.14761,1.533369 -0.22143,1.959309 -0.0738,0.425929 -0.36904,1.703738 -0.36904,2.044488 0,0.34075 0.73808,1.874119 0.73808,1.874119 0,0 0.29523,0.766678 0.81188,1.022238 0.51665,0.255559 1.84518,0 2.14042,0 0.29523,0 0.95949,-1.192619 0.95949,-1.192619 l -0.14761,-1.362988 -0.51665,-1.70375 -0.66427,-1.618547 0.81188,-3.663047 c 0,0 1.10709,0.766678 1.32852,1.277809 0.22143,0.511119 0.8857,2.129678 0.8857,2.129678 0,0 0.36904,0.681488 0.51665,1.107429 0.14761,0.425928 0.81187,1.788928 0.81187,1.788928 l 0.81188,0.937059 c 0,0 0.73808,0.08518 1.10709,0.08518 0.36904,0 1.47617,-0.08518 1.47617,-0.08518 l -1.40235,-2.300059 -0.51665,-1.703738 -0.44283,-1.277797 z"
       id="path70" /><path
       style="fill:#000000;fill-opacity:1;stroke-width:0.258164;paint-order:markers stroke fill;filter:url(#filter116)"
       d="m 168.26735,96.900734 0.46418,-1.720681 c 0,0 1.39253,1.094975 1.52516,1.407828 0.13262,0.312853 1.32624,1.642474 1.52515,2.189962 0.19894,0.547487 0.66312,2.111727 0.66312,2.111727 l 0.0663,4.84921 -2.05563,0.93853 -1.52516,-0.39106 -1.65778,-1.09496 -0.72941,-0.62571 -2.3872,3.36313 -2.58614,0.62571 c 0,0 -1.32624,-0.78212 -1.65777,-1.01677 -0.33156,-0.23463 -0.86207,-1.56424 -0.86207,-1.56424 l -0.53047,-1.95532 0.46418,-2.03353 -0.13262,-1.17319 -1.19359,1.3296 -2.12196,0.23465 0.66309,-1.7989 c 0,0 0.46418,-1.642462 0.72943,-1.955316 0.26525,-0.312853 1.39253,-1.173182 1.79041,-1.486035 0.39786,-0.312854 1.52513,-0.547488 1.52513,-0.547488 0,0 1.32624,-1.642462 1.25993,-1.094975 -0.0663,0.547488 -0.26525,2.581011 -0.26525,2.893864 0,0.312853 -0.13262,1.407828 -0.19894,1.7989 -0.0663,0.39105 -0.33156,1.56424 -0.33156,1.8771 0,0.31285 0.66312,1.72068 0.66312,1.72068 0,0 0.26525,0.70391 0.72942,0.93855 0.46418,0.23463 1.65778,0 1.92304,0 0.26524,0 0.86204,-1.09498 0.86204,-1.09498 l -0.13262,-1.2514 -0.46418,-1.56425 -0.5968,-1.48604 0.72942,-3.363155 c 0,0 0.99465,0.703914 1.19359,1.173194 0.19894,0.46928 0.79575,1.955327 0.79575,1.955327 0,0 0.33156,0.625683 0.46418,1.016754 0.13261,0.39106 0.72941,1.64246 0.72941,1.64246 l 0.72942,0.86034 c 0,0 0.66312,0.0783 0.99465,0.0783 0.33156,0 1.32625,-0.0783 1.32625,-0.0783 l -1.25992,-2.11174 -0.46418,-1.564252 -0.39786,-1.173183 z"
       id="path70-7" /><path
       style="fill:#000000;fill-opacity:1;stroke-width:0.284249;paint-order:markers stroke fill;filter:url(#filter117)"
       d="m 51.26305,98.400713 0.51665,-1.874119 c 0,0 1.54995,1.192619 1.69757,1.533369 0.14761,0.34075 1.47616,1.788928 1.69756,2.385237 0.22143,0.59631 0.73808,2.30005 0.73808,2.30005 l 0.0738,5.2816 -2.28801,1.02224 -1.69757,-0.42594 -1.84518,-1.19261 -0.81187,-0.6815 -2.65705,3.66304 -2.87849,0.6815 c 0,0 -1.47616,-0.85187 -1.84517,-1.10743 -0.36904,-0.25556 -0.95952,-1.70374 -0.95952,-1.70374 l -0.59044,-2.12967 0.51665,-2.21487 -0.14761,-1.27781 -1.32852,1.44818 -2.36183,0.25557 0.73805,-1.95931 c 0,0 0.51665,-1.78893 0.81188,-2.12968 0.29524,-0.34075 1.54995,-1.277798 1.99281,-1.618548 0.44283,-0.34075 1.69754,-0.596309 1.69754,-0.596309 0,0 1.47616,-1.788929 1.40235,-1.192619 -0.0738,0.596309 -0.29523,2.811166 -0.29523,3.151916 0,0.34075 -0.14761,1.53337 -0.22143,1.95931 -0.0738,0.42593 -0.36904,1.70374 -0.36904,2.04449 0,0.34075 0.73808,1.87412 0.73808,1.87412 0,0 0.29523,0.76667 0.81188,1.02223 0.51665,0.25556 1.84518,0 2.14042,0 0.29523,0 0.95949,-1.19261 0.95949,-1.19261 l -0.14761,-1.36299 -0.51665,-1.70375 -0.66427,-1.61855 0.81188,-3.663047 c 0,0 1.10709,0.766679 1.32852,1.277809 0.22143,0.511119 0.8857,2.129678 0.8857,2.129678 0,0 0.36904,0.68149 0.51665,1.10743 0.14761,0.42593 0.81187,1.78893 0.81187,1.78893 l 0.81188,0.93706 c 0,0 0.73808,0.0852 1.10709,0.0852 0.36904,0 1.47617,-0.0852 1.47617,-0.0852 l -1.40235,-2.30006 -0.51665,-1.70374 -0.44283,-1.277798 z"
       id="path70-9" /><path
       style="opacity:1;fill:#000000;fill-opacity:1;stroke-width:0.284249;paint-order:markers stroke fill;filter:url(#filter118)"
       d="m 173.3881,178.94122 c -0.57408,0.24095 -2.87042,0.96378 -2.87042,0.96378 0,0 -1.72226,0.24095 -1.93102,0.24095 -0.20876,0 -1.56568,-0.30119 -1.35693,-0.72284 0.20876,-0.42165 0.88723,-1.68661 1.25255,-1.86732 0.36533,-0.18071 2.92262,-1.3252 3.4967,-1.50592 0.57409,-0.18071 3.027,-0.48189 3.34013,-0.48189 0.31314,0 1.77445,-0.36141 1.82664,0 0.0522,0.36142 0.62627,1.56615 0.52189,1.98781 -0.10438,0.42164 -2.13977,3.61417 -2.13977,3.61417 0,0 -1.61787,2.77088 -2.03539,3.1323 -0.41752,0.36141 -1.09598,1.5059 -1.20036,2.10827 -0.10438,0.60236 0.10438,1.20472 0.26095,1.44567 0.15657,0.24095 1.20036,0.12048 1.77444,0 0.57409,-0.12047 2.13977,-0.96378 2.92262,-1.50591 0.78284,-0.54213 1.82663,-0.72283 2.34852,-1.3252 0.5219,-0.60237 2.5051,-2.04803 3.44451,-2.52993 0.93942,-0.48189 3.44452,-2.83111 3.86203,-3.13229 0.41751,-0.30119 2.03539,-1.62637 2.03539,-1.62637 0,0 0.20875,2.71062 0,2.89133 -0.20876,0.18071 -1.30474,2.46969 -1.56568,2.89135 -0.26095,0.42166 -3.44451,3.19253 -3.80984,3.37324 -0.36533,0.1807 -3.60108,2.34922 -3.91422,2.6504 -0.31313,0.30118 -4.07078,2.71064 -4.07078,2.71064 0,0 -3.02699,0.54212 -3.39232,0.48188 -0.36533,-0.0602 -2.08758,-1.3252 -2.08758,-1.3252 0,0 -1.04379,-1.20472 -1.14817,-1.50591 -0.10438,-0.30117 0.10438,-3.19252 0.36533,-3.67441 0.26095,-0.4819 1.72225,-2.59017 2.03539,-3.01182 0.31314,-0.42165 2.5051,-3.01181 2.5051,-3.01181 l 0.31313,-1.62639 z"
       id="path71" /><path
       style="fill:#000000;fill-opacity:1;stroke-width:0.207875;paint-order:markers stroke fill;filter:url(#filter119)"
       d="m 35.502625,152.42799 c -0.502696,0.14717 -2.5135,0.58864 -2.5135,0.58864 0,0 -1.508108,0.14717 -1.69091,0.14717 -0.182801,0 -1.370997,-0.18395 -1.188203,-0.44148 0.182802,-0.25754 0.776908,-1.03014 1.096802,-1.1405 0.319904,-0.11034 2.55921,-0.80939 3.061907,-0.91976 0.502705,-0.11034 2.65061,-0.29433 2.924805,-0.29433 0.274202,0 1.553807,-0.22073 1.599508,0 0.04571,0.22074 0.548397,0.95656 0.456996,1.21409 -0.0914,0.25752 -1.873702,2.20741 -1.873702,2.20741 0,0 -1.416698,1.69236 -1.782302,1.9131 -0.365604,0.22074 -0.959701,0.91975 -1.051102,1.28765 -0.0914,0.3679 0.0914,0.73581 0.228502,0.88298 0.137102,0.14716 1.051103,0.0735 1.553799,0 0.502705,-0.0736 1.873702,-0.58865 2.55921,-0.91976 0.685498,-0.33112 1.599499,-0.44149 2.056495,-0.8094 0.457005,-0.36789 2.193606,-1.25086 3.016206,-1.54518 0.822609,-0.29433 3.016215,-1.72915 3.38181,-1.9131 0.365595,-0.18395 1.782301,-0.99334 1.782301,-0.99334 0,0 0.182793,1.65557 0,1.76594 -0.182802,0.11034 -1.142503,1.50839 -1.370997,1.76593 -0.228502,0.25754 -3.016206,1.94989 -3.336109,2.06026 -0.319903,0.11034 -3.153307,1.43481 -3.42751,1.61877 -0.274194,0.18395 -3.564603,1.65556 -3.564603,1.65556 0,0 -2.650602,0.33111 -2.970505,0.29433 -0.319904,-0.0368 -1.828002,-0.8094 -1.828002,-0.8094 0,0 -0.914001,-0.7358 -1.005402,-0.91975 -0.0914,-0.18395 0.0914,-1.94988 0.319903,-2.24421 0.228503,-0.29432 1.508099,-1.58197 1.782302,-1.83952 0.274203,-0.25752 2.193605,-1.8395 2.193605,-1.8395 l 0.274195,-0.99334 z"
       id="path71-3" /><path
       style="opacity:1;fill:#000000;fill-opacity:1;stroke-width:0.284249;paint-order:markers stroke fill;filter:url(#filter120)"
       d="m 293.0144,159.82566 2.21422,-6.98534 c 0,0 0.44286,-5.62234 0.59047,-6.64458 0.14761,-1.02225 -0.73808,-9.37058 -0.73808,-9.37058 0,0 -3.54274,-21.46716 -3.54274,-22.14864 0,-0.6815 -6.1998,-30.496977 -6.1998,-30.496977 l 1.18091,-2.385245 4.57605,4.770483 1.18092,0.170369 -0.44286,-4.600102 -10.4806,-18.741157 -2.65708,7.496462 1.919,3.748231 6.34741,46.852896 2.21422,13.80031 1.77138,14.99292 0.73806,9.2002 z"
       id="path72" /><path
       style="fill:#000000;fill-opacity:1;stroke-width:0.266705;paint-order:markers stroke fill;filter:url(#filter121)"
       d="m 212.35343,152.3625 2.39731,-5.95997 c 0,0 0.56777,-4.84713 0.73921,-5.72593 0.17145,-0.87878 -0.55467,-8.13384 -0.55467,-8.13384 0,0 -3.15362,-18.70317 -3.13938,-19.29271 0.0142,-0.58955 -5.66658,-26.614044 -5.66658,-26.614044 l 1.25056,-2.019223 4.55313,4.298056 1.19716,0.191583 -0.35417,-3.996006 -10.2648,-16.60463 -2.85829,6.385534 1.87287,3.314304 5.47493,40.768586 1.96301,12.02111 1.48782,13.03624 0.55821,7.98644 z"
       id="path72-9" /><path
       style="fill:#000000;fill-opacity:1;stroke-width:0.266705;paint-order:markers stroke fill;filter:url(#filter122)"
       d="m 191.61882,154.67922 2.39731,-5.95996 c 0,0 0.56777,-4.84714 0.73921,-5.72593 0.17145,-0.87879 -0.55467,-8.13384 -0.55467,-8.13384 0,0 -3.15362,-18.70317 -3.13938,-19.29272 0.0142,-0.58954 -5.66658,-26.614039 -5.66658,-26.614039 l 1.25056,-2.019223 4.55313,4.298057 1.19716,0.191583 -0.35417,-3.996006 -10.2648,-16.604632 -2.85829,6.385538 1.87287,3.314299 5.47493,40.768593 1.96301,12.02111 1.48782,13.03624 0.55821,7.98643 z"
       id="path72-9-8" /><path
       style="fill:#000000;fill-opacity:1;stroke-width:0.266705;paint-order:markers stroke fill;filter:url(#filter123)"
       d="m 98.392217,155.89179 2.397313,-5.95997 c 0,0 0.56777,-4.84714 0.73921,-5.72593 0.17145,-0.87879 -0.55467,-8.13384 -0.55467,-8.13384 0,0 -3.153623,-18.70317 -3.139383,-19.29271 0.0142,-0.58955 -5.66658,-26.614046 -5.66658,-26.614046 l 1.25056,-2.019222 4.55313,4.298056 1.19716,0.191583 -0.35417,-3.996006 -10.2648,-16.604636 -2.85829,6.385538 1.87287,3.314298 5.47493,40.768595 1.96301,12.02111 1.48782,13.03624 0.55821,7.98644 z"
       id="path72-9-3" /><path
       style="fill:#000000;fill-opacity:1;stroke-width:0.266705;paint-order:markers stroke fill;filter:url(#filter124)"
       d="m 77.635607,157.05201 2.39731,-5.95997 c 0,0 0.56777,-4.84713 0.73921,-5.72593 0.17145,-0.87879 -0.55467,-8.13384 -0.55467,-8.13384 0,0 -3.15362,-18.70317 -3.13938,-19.29271 0.0142,-0.58955 -5.66658,-26.614033 -5.66658,-26.614033 l 1.25056,-2.019223 4.55313,4.298056 1.19716,0.191572 -0.35417,-3.996006 -10.2648,-16.604629 -2.85829,6.385537 1.87287,3.314311 5.47493,40.768575 1.96301,12.02111 1.48782,13.03624 0.55821,7.98644 z"
       id="path72-9-1" /><path
       style="opacity:1;fill:#000000;fill-opacity:1;stroke-width:0.284249;paint-order:markers stroke fill;filter:url(#filter125)"
       d="m 271.34786,121.4155 c 0.73067,0.24093 4.38393,0.60236 4.38393,0.60236 l -1.25256,-4.09608 -3.9664,-4.09607 -3.75763,-3.49371 -1.04381,11.32443 11.58608,26.50401 -3.44451,2.28898 -4.69704,1.08425 -4.27956,-1.08425 -4.80144,-4.09607 c 0,0 -1.35692,-4.93939 -1.4613,-5.66222 -0.10438,-0.72284 -2.40072,-9.15593 -2.60948,-9.75829 -0.20875,-0.60236 -2.71386,-9.27641 -3.02699,-9.99924 -0.31313,-0.72284 -3.86202,-7.34884 -3.86202,-7.34884 l -0.52191,14.33625 c 0,0 4.38393,10.96303 4.59269,11.56539 0.20875,0.60236 0.83502,5.78269 0.83502,5.78269 0,0 -1.46129,2.52993 -1.77443,3.25277 -0.31313,0.72283 -2.19196,2.52992 -2.60948,3.01181 -0.41751,0.48189 -4.17517,4.09607 -4.69706,4.33702 -0.52189,0.24095 -5.01021,1.44567 -5.74085,1.56615 -0.73065,0.12047 -5.84523,-0.96378 -5.84523,-0.96378 l -3.9664,-2.77088 c 0,0 -2.19196,-6.14411 -2.19196,-6.626 0,-0.48189 -0.41752,-5.66222 -0.41752,-5.66222 0,0 0.93941,-5.54175 1.04378,-6.50552 0.10438,-0.96378 1.04381,-7.46931 1.04381,-7.9512 0,-0.48189 0.20876,-3.01183 0.20876,-3.01183 0,0 -3.54891,2.40947 -3.96642,2.77088 -0.41752,0.36142 -1.87881,1.44567 -2.29632,2.77087 -0.41754,1.3252 -1.67008,4.69844 -2.08759,6.14412 -0.41751,1.44567 -1.25256,7.58978 -1.67008,8.55356 -0.41751,0.96377 -2.19196,7.9512 -2.40072,8.67403 -0.20876,0.72284 -1.98318,5.54175 -2.92261,6.02364 -0.93941,0.4819 -3.54889,0.84331 -3.54889,0.84331 l -2.60948,-1.20473 -2.19196,-3.25276 -1.14816,-5.18032 c 0,0 -0.31314,-3.85514 -0.31314,-4.4575 0,-0.60236 -0.20875,-4.57796 -0.20875,-5.05985 0,-0.4819 0.52189,-3.85513 0.52189,-3.85513 l -2.81824,9.15593 -0.20876,4.93938 c 0,0 0.73065,2.1685 0.83503,3.25277 0.10438,1.08425 1.04381,3.61417 1.35694,4.33701 0.31314,0.72284 2.19197,3.9756 2.19197,3.9756 l 3.23575,2.52992 3.4445,0.36142 c 0,0 3.13137,-0.48189 3.34013,-0.96378 0.20875,-0.48189 1.87883,-3.85512 2.29634,-4.81891 0.41752,-0.96378 1.14816,-3.49371 1.35692,-4.45749 0.20876,-0.96377 0.93943,-4.69844 1.04381,-5.54174 0.10437,-0.84331 0.62627,-3.73466 0.73064,-5.05986 0.10438,-1.3252 1.25254,-4.8189 1.4613,-5.42127 0.20875,-0.60236 2.08759,-4.33702 2.08759,-4.33702 0,0 -1.35692,10.84255 -1.25254,11.32444 0.10438,0.48189 0.83502,4.57796 1.04378,6.14411 0.20876,1.56614 1.46132,5.05985 1.98321,6.26458 0.52189,1.20472 2.5051,3.73465 2.92261,4.21654 0.41752,0.4819 1.98319,1.56615 2.81824,1.92756 0.83503,0.36142 3.23575,1.20474 4.38391,1.56615 1.14818,0.36142 4.59269,-0.24095 5.21896,-0.36141 0.62627,-0.12047 3.23575,-2.04804 4.17518,-2.52993 0.9394,-0.48189 4.27952,-2.28899 5.01017,-3.37324 0.73067,-1.08425 2.92262,-3.73465 3.34013,-4.45748 0.41754,-0.72285 1.25256,-3.1323 1.25256,-3.85514 0,-0.72283 0.93941,-3.49371 0.52189,-3.25276 -0.41751,0.24095 2.5051,4.57796 2.60948,5.54175 0.10438,0.96378 2.19197,3.01181 3.02699,4.33701 0.83503,1.3252 3.34013,2.40946 4.17516,2.89135 0.83505,0.48189 6.99341,0 6.99341,0 0,0 3.23575,-1.20473 3.96639,-1.68661 0.73065,-0.4819 2.50511,-3.49372 3.027,-4.21655 0.52189,-0.72284 1.0438,-3.25277 1.14818,-4.4575 0.10438,-1.20472 0.10438,-4.45749 0.10438,-5.18032 0,-0.72283 -0.62629,-5.05986 -0.93943,-5.66223 -0.31313,-0.60235 -1.25254,-3.25275 -1.67005,-4.09606 -0.41751,-0.84331 -1.5657,-4.57797 -2.19197,-5.05986 -0.62626,-0.48189 -1.46129,-2.77088 -1.87883,-3.85513 -0.41751,-1.08425 -3.02699,-5.42126 -3.02699,-5.42126 z"
       id="path73" /><path
       id="path74"
       style="opacity:1;fill:#000000;fill-opacity:1;stroke-width:0.284249;paint-order:markers stroke fill;filter:url(#filter126)"
       d="m 233.24396,92.874119 c -0.15527,0.008 -0.29444,0.04199 -0.41187,0.109752 -0.62627,0.361421 -1.67018,0.843409 -1.77456,1.325292 -0.10438,0.481895 -0.2088,0.481999 -0.52194,1.566252 -0.31313,1.084252 -1.77455,4.09582 -1.56579,4.818655 0.20876,0.72284 0.31319,0.84344 0.83509,1.92769 0.52189,1.08425 0.7307,1.56626 0.7307,1.56626 0,0 -3.44428,1.92774 -4.07055,2.40963 -0.62627,0.48188 -3.65354,3.01145 -4.27984,3.49335 -0.62627,0.48189 -6.88904,2.1687 -7.5153,2.77107 -0.6263,0.60237 -2.60915,1.44578 -2.60915,1.44578 l 0.73071,3.13191 c 0,0 2.29607,-2.2886 3.44423,-2.89096 1.14818,-0.60236 6.36707,-2.89157 6.7846,-3.37347 0.41752,-0.48188 4.38376,-2.16868 5.01003,-2.40962 0.6263,-0.24095 2.92283,-2.28858 3.44475,-2.77047 0.52189,-0.48189 1.98334,-2.89155 1.98334,-2.89155 0,0 1.35656,0.72289 2.08721,0.84336 0.73064,0.12048 1.04393,0.12051 2.08773,0.36145 1.04379,0.24095 2.19213,0.84334 2.40089,0.24097 0.20878,-0.60236 1.14824,-0.72297 1.04386,-1.80722 -0.10438,-1.08426 -5e-5,-1.3254 -0.7307,-2.771073 -0.73067,-1.445674 -0.52202,-2.168147 -1.5658,-3.372874 -1.04378,-1.204726 -2.19218,-2.650619 -3.13159,-3.012029 -0.76326,-0.293647 -1.73322,-0.746561 -2.40605,-0.712155 z m -0.62064,3.001296 1.04387,0.120485 -0.10439,2.168066 -0.10439,1.807211 -1.04386,0.722893 c 0,0 -1.25263,-2.288614 -0.83509,-3.131919 0.41751,-0.843316 1.04386,-1.686736 1.04386,-1.686736 z m 3.02669,0.481929 c 0.41752,0 0.62632,0.361445 0.62632,0.361445 0,0 0.7307,1.204241 0.93948,1.686136 0.20876,0.481896 0.20876,1.084368 0.10438,1.686735 -0.10438,0.60236 -0.20877,1.44578 -0.20877,1.44578 l -1.35702,-0.48193 -0.93896,-1.325292 0.10438,-3.131915 c 0,0 0.31268,-0.240959 0.73019,-0.240959 z" /><path
       style="opacity:1;fill:#000000;fill-opacity:1;stroke-width:0.284249;paint-order:markers stroke fill;filter:url(#filter127)"
       d="m 234.91958,81.659493 c 0,0 1.04378,-2.048036 0.83502,-2.6504 -0.20875,-0.602361 -1.04378,-3.734654 -1.35691,-4.698436 -0.31317,-0.963782 -1.25257,-3.252761 -1.77446,-3.734654 -0.52189,-0.481889 -2.29634,-3.011818 -2.71386,-3.252764 -0.41751,-0.240943 -3.86201,-2.288983 -3.86201,-2.288983 l -4.0708,-2.891343 c 0,0 -1.14816,0.240947 -1.04378,0.963783 0.10437,0.722835 -0.93941,1.3252 0.52189,2.288982 1.46132,0.963779 2.08759,1.3252 3.13137,1.927561 1.04378,0.602364 2.40072,1.927564 3.02699,2.529928 0.62627,0.602365 2.60948,2.529929 3.13137,3.373236 0.52189,0.843311 1.46132,1.927565 1.67007,2.529929 0.20876,0.602361 0.93941,4.45749 0.93941,4.45749 0,0 -1.14816,2.770871 -0.73065,2.891345 0.41751,0.120473 2.29635,-1.445674 2.29635,-1.445674 z"
       id="path75" /><path
       style="opacity:1;fill:#000000;fill-opacity:1;stroke-width:0.284249;paint-order:markers stroke fill;filter:url(#filter128)"
       d="m 113.94421,108.64538 c 0,0 2.71386,-0.24095 2.29634,-0.8433 -0.41751,-0.60237 -1.04379,-1.8071 -1.04379,-1.8071 0,0 -0.62627,0 -2.08758,-0.24095 -1.46131,-0.24093 -1.56569,-0.36141 -2.92261,-0.8433 -1.35693,-0.4819 -2.60948,-0.4819 -2.71386,-0.96378 -0.10438,-0.48189 1.04379,-2.04804 1.35693,-2.52993 0.31314,-0.48189 0.20876,-1.566144 1.87882,-2.168513 1.67007,-0.602357 3.44451,-1.204726 6.05399,-2.6504 2.60947,-1.445662 8.87222,-4.457484 10.12477,-4.939379 1.25255,-0.481883 6.78464,-1.566147 8.55908,-2.409452 1.77445,-0.843305 7.93282,-2.770874 11.89922,-4.216548 3.9664,-1.445674 24.4247,-8.071671 24.4247,-8.071671 l 0.83504,-1.445671 c 0,0 1.14817,-2.048036 0.52189,-1.686618 -0.62627,0.361418 -8.87222,2.288982 -9.49849,2.770871 -0.62628,0.481893 -16.59628,5.903165 -16.59628,5.903165 l -2.29634,0.481889 c 0,0 0.41752,-2.891343 0.83503,-3.734654 0.41752,-0.843307 -0.20875,-1.566146 1.25256,-2.891346 1.4613,-1.325197 1.87882,-1.445672 2.81823,-2.409454 0.93941,-0.963782 2.60948,-3.373236 3.13137,-4.096072 0.5219,-0.722835 1.87883,-1.927564 1.9832,-2.6504 0.10438,-0.722835 0.31314,-3.011818 0.31314,-3.011818 0,0 -1.04379,-1.3252 -1.87882,-1.084253 -0.83503,0.240943 -2.5051,0.481889 -3.23575,0.963782 -0.73066,0.481889 -0.73066,0.722836 -2.81824,1.686618 -2.08758,0.963782 -6.36712,2.6504 -7.09778,3.252761 -0.73065,0.602364 -2.92261,2.048039 -4.27954,2.409457 -1.35693,0.361418 -4.17516,1.084254 -4.17516,0.602361 0,-0.48189 0.93941,-0.240943 0.93941,-0.240943 0,0 0.41751,-1.807093 0,-2.6504 -0.41752,-0.843311 -0.31314,-4.698436 -0.83503,-4.818911 -0.5219,-0.120472 -0.62628,-1.80709 -1.25255,-2.409454 -0.62628,-0.602364 -3.65327,-4.698435 -3.65327,-4.698435 l -2.71385,-2.168511 c 0,0 -0.20876,0 -0.5219,0.722838 -0.31314,0.722836 -1.25255,2.409454 -1.25255,2.409454 l 3.23575,1.3252 c 0,0 1.35693,1.204727 1.77445,2.6504 0.41751,1.445672 2.08758,3.614183 2.19196,4.216544 0.10438,0.602364 0.62627,2.048039 0.62627,3.49371 0,1.445672 0,3.734654 0,3.734654 0,0 -4.07078,0.602365 -4.90581,0.602365 -0.83504,0 -3.75765,-0.48189 -4.59268,-0.48189 -0.83504,0 -2.19197,-0.240946 -3.027,-1.445675 -0.83503,-1.204725 -1.9832,-2.168507 -2.29634,-2.891346 -0.31314,-0.722836 -0.31314,-0.48189 -0.93941,-1.80709 -0.62627,-1.3252 -1.35693,-2.6504 -1.35693,-2.6504 0,0 0.83503,5.3008 0.83503,6.505529 0,1.204725 0.41752,0.963782 0,2.288982 -0.41751,1.3252 0.31314,1.566143 -0.73065,2.409454 -1.04379,0.843307 -3.23575,-1.927564 -3.23575,-1.927564 0,0 -0.73065,-1.084254 -1.35693,-1.204729 -0.62627,-0.120472 -0.62627,-0.240943 -1.25255,-0.240943 -0.62627,0 -1.25255,0.120471 -1.46131,1.204725 -0.20875,1.084257 -2.60947,3.011818 -2.60947,3.011818 l 1.35693,2.6504 0.93941,-1.3252 c 0,0 0.41751,-0.843307 1.04379,-1.204725 0.62627,-0.361418 2.19196,-0.481893 2.19196,-0.481893 l 1.46131,0.963782 c 0,0 0.10438,0 0.93941,0.120472 0.83503,0.120475 3.02699,0.361421 3.23575,-0.120472 0.20876,-0.481889 0.31314,-0.361417 0.73065,-0.963782 0.41752,-0.602364 0.62628,-1.445671 0.62628,-1.445671 0,0 1.04379,0.722836 2.08758,0.722836 1.04379,0 1.04379,-0.120472 1.67007,-0.120472 0.62627,0 5.84522,2.048036 6.05398,1.445672 0.20876,-0.602365 5.94961,-0.602365 6.88902,-1.084254 0.93941,-0.481893 5.63647,-1.807093 6.68026,-2.770875 1.04379,-0.963779 3.86203,-2.168507 5.21896,-2.891343 1.35693,-0.722836 3.75764,-2.529929 4.27954,-2.6504 0.52189,-0.120475 3.02699,-0.963783 3.02699,-0.963783 l 1.04379,0.120472 c 0,0 -0.73065,0.722836 -1.14817,1.445675 -0.41751,0.722836 0.41752,-0.240947 -0.93941,1.445671 -1.35693,1.686618 -1.67006,2.288983 -2.5051,3.493708 -0.83503,1.204728 -1.77444,2.288982 -2.19196,3.011818 -0.41751,0.722839 -1.46131,1.566146 -1.67006,2.288982 -0.20876,0.722839 -0.10438,0.843311 -0.62628,1.927565 -0.52189,1.084253 -1.35692,3.614183 -1.87882,3.855131 -0.5219,0.240936 -2.5051,0.602357 -5.0102,1.204726 -2.50509,0.602357 -13.36052,5.059853 -13.36052,5.059853 0,0 -7.41092,3.252757 -8.4547,4.096074 -1.0438,0.843305 -6.57589,4.457483 -7.09778,4.698431 -0.5219,0.240948 -2.19196,5.662225 -2.19196,5.662225 l 1.25255,2.1685 3.44451,1.92757 z"
       id="path76" /><path
       id="path77"
       style="opacity:1;fill:#000000;fill-opacity:1;stroke-width:0.284249;paint-order:markers stroke fill;filter:url(#filter129)"
       d="m 126.26082,117.31927 -5.32319,3.61444 -1.35702,4.21625 0.7307,5.54212 1.04387,3.01144 4.59248,3.25299 9.60303,5.42106 4.69687,1.32529 -6.26266,3.97588 -7.20215,4.69816 -6.68021,5.7825 -11.79463,11.44512 -5.84564,6.26442 -10.333216,9.03549 -7.515303,5.54214 -7.202145,3.37288 -4.071069,0.12048 -3.757393,-2.77047 c 0,0 -2.400896,-3.37352 -2.505274,-3.97589 -0.104378,-0.60235 0.313159,-9.75837 0.313159,-9.75837 0,0 2.192137,-5.42109 2.505274,-6.02346 0.313138,-0.60236 2.505273,-7.7102 2.505273,-7.7102 l 4.279326,-5.06021 1.461409,-2.16806 -2.2965,-6.86743 c 0,0 -5.01006,2.53012 -5.427576,2.65059 -0.417517,0.12047 -10.960055,4.21684 -10.960055,4.21684 l -12.62972,7.22827 -9.91619,7.46924 -10.959538,14.0951 -6.575826,5.42165 -5.323706,0.72289 c 0,0 -3.757424,-2.16869 -4.1749391,-2.53011 -0.4175178,-0.36142 -1.6701823,-6.62586 -1.6701823,-6.62586 l 1.1482503,-7.95117 3.8622961,-8.3126 5.114417,-8.55357 5.427576,-6.26501 2.505273,-3.01143 -6.367053,2.16806 c 0,0 -4.488615,6.02411 -4.488615,6.62647 0,0.60236 -5.9495077,10.84211 -5.9495077,10.84211 l -3.5486206,8.43308 -0.3131592,6.3855 0.8345744,6.98731 4.0710691,5.18009 3.966166,1.44578 8.037236,0.12048 5.636865,-2.89155 c 0,0 7.723577,-7.83072 7.932333,-8.67404 0.208759,-0.84331 7.724076,-9.39694 7.724076,-9.39694 l 6.680729,-6.14394 9.184969,-4.09577 9.0811,-3.61443 1.878955,0.60241 c 0,0 -1.56581,3.9753 -1.774569,4.4572 -0.208759,0.48189 -3.131614,6.02411 -3.444751,6.74694 -0.313137,0.72284 -2.295984,9.51742 -2.295984,9.51742 l 0.208773,7.58972 2.295984,7.22827 5.114933,4.57769 7.202144,1.08433 8.037236,-2.89155 7.932849,-6.50538 8.976197,-9.27646 7.30653,-8.19212 8.14162,-8.19213 c 0,0 5.42763,-5.05963 6.0539,-5.42105 0.62628,-0.36142 5.42809,-4.21684 5.42809,-4.21684 l 0.7307,0.84337 c 0,0 -3.02721,5.42168 -3.13159,5.90358 -0.10437,0.48188 -4.27932,9.39633 -4.27932,9.39633 v 10.11982 l 2.60914,6.62646 5.11493,4.21625 9.81129,-0.12047 9.70742,-8.31261 c 0,0 5.11444,-8.55362 5.32319,-9.39693 0.20876,-0.84331 9.49864,-9.03549 9.49864,-9.03549 l 8.24601,-4.81865 9.8118,-3.61444 5.74074,-3.13191 3.44423,-3.37347 -2.71353,-6.26443 c -0.62627,0.24093 -6.88898,4.4572 -6.88898,4.4572 0,0 -7.20222,1.80727 -8.24601,2.40963 -1.04379,0.60237 -10.75133,6.14396 -11.48199,6.26442 -0.73065,0.12047 -8.76794,6.86683 -8.76794,6.86683 l -6.99337,10.11982 c 0,0 -3.54864,5.05967 -3.86178,5.66203 -0.31313,0.60237 -4.90564,4.09635 -4.90564,4.09635 l -5.63687,1.68673 c 0,0 -3.02673,-0.12049 -3.54862,-0.36144 -0.5219,-0.24095 -2.08774,-1.68677 -2.40088,-2.16866 -0.31314,-0.48189 -1.5658,-3.61384 -1.5658,-3.61384 0,0 -0.41752,-3.25307 -0.10439,-4.45779 0.31314,-1.20473 1.14827,-5.42113 1.46141,-6.38491 0.31314,-0.96378 1.879,-4.21689 2.50528,-5.06021 0.62627,-0.8433 3.33989,-6.86691 3.86178,-7.95116 0.5219,-1.08427 3.02726,-4.69824 3.75791,-5.66202 0.73066,-0.96378 3.54868,-3.49396 4.38371,-3.61443 0.83503,-0.12047 3.02722,-0.96378 3.13159,0 0.10439,0.96378 0.52198,3.37351 1.25264,4.09635 0.73065,0.72283 0.93907,1.5663 2.40037,2.16867 1.46131,0.60235 3.44477,0.48192 3.86229,0.48192 0.41752,0 1.87847,-2e-5 2.29599,-0.24096 0.41752,-0.24095 1.2526,0.36127 0.7307,-2.16866 -0.52189,-2.52993 -0.73071,-3.01209 -0.83509,-3.8554 -0.10438,-0.84331 0.10485,-0.84282 -0.6258,-1.44518 -0.73066,-0.60237 -2.29651,-2.1687 -2.50527,-2.65058 -0.20876,-0.4819 -0.8351,-2.40963 -0.8351,-2.40963 0,0 -1.98307,-0.48196 1.87896,-1.20481 3.86202,-0.72283 6.78473,-1.20486 8.55917,-1.92769 1.77445,-0.72285 4.90572,-1.80667 6.05389,-2.40903 1.14817,-0.60237 4.4881,-2.40962 4.4881,-2.40962 0,0 8.03727,-3.01206 8.45478,-3.37348 0.41752,-0.36142 2.29653,-1.20424 2.71405,-1.68614 0.41752,-0.48188 2.81791,-7.10839 2.81791,-7.10839 0,0 -6.88905,-0.96328 -7.82846,-1.20422 -0.93942,-0.24094 -18.89239,-3.25298 -18.89239,-3.25298 l -20.04063,-2.04819 z m 9.18549,5.54213 c 0.83504,0 13.46486,1.08375 14.09113,1.08375 0.62627,0 11.06398,1.44576 11.89901,1.44576 0.83504,0 9.91619,1.44578 9.91619,1.44578 0,0 -8.14167,4.21686 -8.87232,4.45781 -0.73066,0.24095 -8.66356,2.16805 -8.66356,2.16805 l -8.66304,3.61445 -2.71404,0.72288 -10.85515,-5.18069 -4.07107,-4.81865 c 0,0 0.83514,-4.69817 1.46141,-4.69817 0.62628,0 5.63641,-0.24097 6.47144,-0.24097 z" /><path
       style="opacity:1;fill:#000000;fill-opacity:1;stroke-width:0.284249;paint-order:markers stroke fill;filter:url(#filter130)"
       d="m 52.464933,201.16844 c 0,0 1.252551,-2.40946 0.939414,-3.85513 -0.313137,-1.44567 0.521893,-3.9756 -0.313137,-4.93939 -0.835033,-0.96378 -2.609479,-4.21655 -3.026995,-4.69843 -0.417515,-0.48189 -3.131372,-3.25277 -3.131372,-3.25277 l -0.313137,-4.09606 c 0,0 1.043791,-0.96379 2.505098,0.36141 1.461307,1.3252 4.905817,6.1441 4.905817,6.1441 0,0 1.356926,2.289 1.461307,2.89135 0.104378,0.60237 0.835033,4.93939 0.626274,5.7827 -0.208759,0.8433 -1.670066,6.38505 -1.670066,6.38505 z"
       id="path78" /><path
       style="opacity:1;fill:#000000;fill-opacity:1;stroke-width:0.284249;paint-order:markers stroke fill;filter:url(#filter131)"
       d="m -66.31846,158.15967 c 0,0 -0.626275,4.45749 -1.252549,5.05986 -0.626275,0.60236 -4.905817,9.99923 -4.905817,9.99923 l -3.026994,7.22836 c 0,0 -0.835032,6.02364 -0.626274,6.86695 0.208758,0.8433 1.356928,3.01182 1.565686,3.4937 0.208758,0.4819 1.356928,3.01183 2.29634,3.85514 0.939412,0.84331 3.34013,2.77087 4.592679,3.25276 1.252549,0.4819 8.03719,2.04804 9.08098,1.92757 1.043791,-0.12047 9.080982,-4.33702 9.080982,-4.33702 0,0 5.323332,-6.26458 5.949606,-6.86695 0.626274,-0.60236 7.202156,-8.67403 7.82843,-9.15593 0.626277,-0.48188 5.74085,-6.26458 6.471505,-6.50552 0.730652,-0.24095 6.993398,-3.61418 8.037189,-3.9756 1.04379,-0.36141 5.427713,-1.56615 6.262743,-1.56615 0.835033,0 5.5320939,0.12047 6.3671268,0.36142 0.8350303,0.24095 5.5320908,1.56615 6.1583649,1.56615 0.626274,0 4.5926797,0.48188 5.6364689,0.8433 1.0437918,0.36142 1.6700659,0.12048 1.6700659,0.12048 0,0 0.626274,-5.05986 0.4175178,-5.66221 -0.2087589,-0.60237 -0.835033,-3.37325 -2.0875837,-3.85514 -1.2525481,-0.48189 -1.8788221,-2.04803 -3.23575092,-2.52993 -1.35692618,-0.48188 -5.21895378,-0.96378 -6.57588268,-1.3252 -1.3569262,-0.36141 -6.680261,-2.04803 -6.680261,-2.04803 0,0 -1.252548,-2.89135 -1.878822,-3.61418 -0.626274,-0.72284 -1.670066,-1.92757 -1.670066,-1.92757 0,0 5.114576,-5.66221 5.532091,-6.74647 0.417518,-1.08425 6.7846417,-4.81891 6.7846417,-4.81891 0,0 3.4445098,0.12048 3.54888793,0.72283 0.10437812,0.60237 -0.10437813,2.16852 0.93941105,4.9394 1.04379182,2.77086 2.60947692,4.21654 2.81823582,4.69843 0.2087589,0.48189 3.2357509,1.80709 3.6532687,2.04803 0.4175151,0.24095 4.4882988,1.3252 5.2189538,1.3252 0.730652,0 5.323332,0.12047 5.323332,0.12047 l 8.454707,-3.01181 11.794834,-5.3008 c 0,0 13.673661,-3.85513 14.404314,-3.9756 0.730654,-0.12047 11.064184,-0.48189 11.064184,-0.48189 l 5.218954,1.20472 c 0,0 5.010195,-7.71025 4.592679,-7.83072 -0.417517,-0.12048 -6.471504,-1.20473 -6.889019,-1.3252 -0.417518,-0.12048 -10.542289,-2.16851 -10.542289,-2.16851 l -11.794836,-2.77087 c 0,0 -6.784639,-2.40946 -8.245946,-3.01182 -1.461307,-0.60236 -13.464902,-4.69844 -13.464902,-4.69844 l -14.6130725,0.36142 c 0,0 -2.1919592,2.77088 -2.5050962,3.25276 -0.313137,0.4819 -2.087581,4.57797 -2.087581,4.57797 l 0.4175152,0.84331 c 0,0 14.2999355,0.8433 14.9262095,0.60235 0.626274,-0.24093 1.774444,-2.04803 1.774444,-2.04803 l 2.191961,1.68662 c 0,0 4.905817,0.84331 5.323332,1.3252 0.417516,0.48189 6.367124,1.44568 6.367124,1.44568 l 6.158365,2.89133 0.208759,1.8071 c 0,0 -8.872223,3.4937 -9.394116,3.4937 -0.521896,0 -11.064184,3.73467 -11.064184,3.73467 l -7.932809,0.60236 -4.3839235,-3.85513 -3.6532661,-6.26458 -4.07078388,-4.33702 -7.30653742,3.01182 -5.9496061,4.69843 -4.59268,7.46932 -0.626274,7.83073 0.208757,6.26457 -5.949606,3.37324 -11.899218,7.34884 -8.9766,9.15593 -7.619672,8.67403 c 0,0 -6.158366,6.38505 -6.784641,6.38505 -0.626274,0 -4.175163,1.8071 -4.175163,1.8071 l -3.548889,-0.84331 -3.966405,-2.77089 c 0,0 -1.356928,-5.66221 -1.356928,-6.38505 0,-0.72283 0.730654,-5.90316 0.730654,-5.90316 0,0 1.983202,-5.18032 2.400719,-5.78269 0.417516,-0.60236 5.218954,-9.63781 5.218954,-9.63781 l 2.19196,-3.49372 0.313138,-0.8433 z"
       id="path79" /><path
       style="opacity:1;fill:#000000;fill-opacity:1;stroke-width:0.284249;paint-order:markers stroke fill;filter:url(#filter132)"
       d="m -65.688368,184.01879 c 0,0 5.609344,-6.13346 6.347416,-6.30384 0.738071,-0.17037 10.480617,-9.54095 10.480617,-9.54095 l 2.952284,-5.11123 -0.590457,-5.11122 c 0,0 1.918988,-1.70374 2.509443,-2.04449 0.590457,-0.34075 2.804673,2.21487 2.804673,2.21487 l 2.0666,2.21485 -1.033299,1.70375 -4.428429,0.17037 c 0,0 -0.885687,4.25936 -1.033301,4.94086 -0.147614,0.68149 -4.723659,5.96309 -4.723659,5.96309 l -6.347415,5.79272 -7.675944,5.62235 z"
       id="path80" /></g></svg>
