<?xml version="1.0" encoding="UTF-8" standalone="no"?>
<svg
   version="1.0"
   width="1200.000000pt"
   height="290.000000pt"
   viewBox="0 0 1200.000000 290.000000"
   preserveAspectRatio="xMidYMid meet"
   id="svg50"
   sodipodi:docname="headerAyah.svg"
   inkscape:version="1.4.3 (0d15f75, 2025-12-25)"
   inkscape:export-filename="headerAyah.png"
   inkscape:export-xdpi="96"
   inkscape:export-ydpi="96"
   xmlns:inkscape="http://www.inkscape.org/namespaces/inkscape"
   xmlns:sodipodi="http://sodipodi.sourceforge.net/DTD/sodipodi-0.dtd"
   xmlns="http://www.w3.org/2000/svg"
   xmlns:svg="http://www.w3.org/2000/svg">
  <defs
     id="defs50" />
  <sodipodi:namedview
     id="namedview50"
     pagecolor="#ffffff"
     bordercolor="#000000"
     borderopacity="0.25"
     inkscape:showpageshadow="2"
     inkscape:pageopacity="0.0"
     inkscape:pagecheckerboard="0"
     inkscape:deskcolor="#d1d1d1"
     inkscape:document-units="pt"
     inkscape:zoom="0.53386562"
     inkscape:cx="600.33834"
     inkscape:cy="4.6828264"
     inkscape:window-width="2560"
     inkscape:window-height="1417"
     inkscape:window-x="-8"
     inkscape:window-y="-8"
     inkscape:window-maximized="1"
     inkscape:current-layer="g50" />
  <g
     transform="translate(0.000000,290.000000) scale(0.100000,-0.100000)"
     fill="#000000"
     stroke="none"
     id="g50">
    <path
       d="m 1098.6926,2615.0116 c -17.7123,-10.0566 -80.8124,-41.3441 -138.37742,-69.2792 -146.12659,-70.3967 -188.19333,-98.3318 -188.19333,-124.0323 0,-12.2915 6.64212,-24.583 15.49827,-27.9351 7.74914,-3.3522 95.20369,35.7571 193.72842,84.923 168.26696,84.9229 179.33716,92.7447 176.01616,119.5625 -4.428,35.7571 -15.4984,39.1093 -58.6721,16.7611 z"
       id="path1"
       style="fill:#165016;stroke-width:1.1122" />
    <path
       d="m 5155.9193,2568.0806 c -57.565,-50.2834 -85.2404,-55.8705 -98.5247,-17.8785 -11.0703,26.8178 -37.6387,44.6962 -49.8159,32.4047 -3.3211,-4.4696 -6.6422,-29.0526 -6.6422,-56.9877 v -49.1659 l -44.2807,7.8218 c -37.6387,6.7045 -47.6018,3.3522 -71.9563,-21.2308 -15.4983,-15.6436 -27.6755,-37.9917 -27.6755,-50.2832 0,-18.996 5.5352,-21.2308 68.6352,-15.6439 l 67.5283,6.7046 -9.9632,-37.9918 c -13.2843,-55.8704 -11.0703,-164.2589 9.9632,-429.0845 35.4246,-445.8454 53.1368,-782.185 45.3877,-882.7517 -5.535,-83.80558 -4.4281,-103.91891 9.9632,-115.09298 14.3913,-12.29148 19.9265,-11.17408 30.9966,10.05666 56.458,107.27112 63.1001,262.59072 27.6755,699.49702 -33.2106,419.0277 -34.3176,427.967 -13.2843,427.967 7.7492,0 19.9264,6.7044 26.5685,14.5262 14.3913,16.7612 -25.4615,143.0281 -76.3844,246.947 -25.4614,52.5182 -28.7825,69.2792 -18.8193,81.5707 6.6422,8.9393 23.2474,13.409 35.4247,10.0568 35.4245,-8.9393 130.6283,15.6437 168.267,44.6963 43.1737,32.4048 55.3508,75.9837 32.1035,111.7406 -24.3545,37.9919 -47.6018,33.5223 -105.1669,-17.8784 z"
       id="path2"
       style="stroke-width:1.1122" />
    <path
       d="m 3921.5924,2558.0239 c -6.6419,-5.587 -52.0298,-25.7005 -101.8456,-44.6963 -76.3845,-29.0526 -106.274,-34.6396 -182.6584,-34.6396 -90.7755,0 -171.5879,23.4655 -190.4073,54.7529 -11.0701,17.8785 -47.6019,15.6437 -54.2439,-3.3523 -3.3211,-8.9392 3.3211,-34.6396 14.3912,-58.1051 11.0702,-24.5829 23.2474,-56.9877 26.5686,-73.7489 7.7489,-35.757 35.4245,-41.3441 45.3876,-8.9393 6.6422,20.1133 13.2843,21.2308 106.274,14.5264 99.6317,-6.7046 140.5915,0 233.5811,37.9919 48.7089,20.1133 81.9194,12.2915 69.7422,-16.7611 -18.8193,-44.6963 -18.8193,-58.1053 -2.214,-58.1053 22.1404,0 107.3809,124.0323 107.3809,155.3196 0,33.5223 -49.8158,56.9878 -71.9564,35.7571 z"
       id="path3"
       style="stroke-width:1.1122" />
    <path
       d="m 9853.0033,2524.5016 c -42.0667,-39.1092 -45.3877,-46.931 -39.8527,-86.0404 3.3212,-24.5829 12.1772,-51.4007 21.0333,-61.4574 36.5317,-41.3441 13.2844,-63.6921 -178.23,-175.4328 -117.3441,-68.1619 -119.5581,-71.514 -100.7388,-97.2145 15.4983,-21.2307 17.7123,-20.1133 111.8089,27.9352 59.7791,31.2873 123.9862,74.8663 164.9459,115.0929 52.03,49.1659 75.2773,63.6922 101.8459,63.6922 53.1369,0 67.5282,24.5829 43.1738,77.1012 -13.2843,31.2873 -16.6054,55.8703 -11.0703,90.51 5.5351,35.757 3.3211,50.2833 -12.1772,68.1618 -27.6755,31.2874 -48.7088,26.8177 -100.7388,-22.3482 z"
       id="path4"
       style="fill:#165016;stroke-width:1.1122" />
    <path
       d="m 10619.061,2522.2668 c -66.421,-24.5829 -137.271,-51.4008 -157.197,-60.3399 -18.819,-8.9393 -37.639,-16.7611 -42.067,-16.7611 -4.428,0 -75.277,-32.4048 -158.303,-72.6316 -204.799,-100.5666 -375.2801,-204.4855 -410.7047,-251.4166 -27.6755,-35.7569 -56.4581,-127.3844 -56.4581,-177.6677 0,-11.1741 29.8896,-50.2834 66.4213,-86.0404 45.3877,-44.6962 66.4211,-73.7489 64.2071,-88.2751 -3.321,-21.2308 -12.1772,-22.3482 -141.6985,-23.4657 l -137.2704,-1.1173 -36.5316,-43.5789 c -55.3511,-65.9271 -47.6019,-75.9837 63.1,-82.6882 85.2405,-5.587 94.0967,-7.8219 94.0967,-27.9352 0,-16.7611 -19.9264,-32.4048 -77.4914,-61.4574 -77.4913,-39.1092 -101.8458,-71.514 -66.4211,-84.9228 9.9631,-4.4697 23.2474,-2.2348 30.9965,5.587 6.6422,6.7044 18.8193,12.2915 26.5685,12.2915 28.7824,0 114.0229,48.0484 163.8389,91.6273 52.0299,46.9311 94.0966,113.9755 94.0966,153.0848 0,26.8177 23.2475,36.8744 53.1369,20.1134 84.1333,-49.1659 335.4273,-222.3641 377.4933,-260.3559 l 49.816,-46.9311 -19.926,-30.1701 c -11.071,-16.7611 -46.495,-41.3441 -81.92,-56.9877 -34.317,-15.6437 -73.063,-32.4048 -85.24,-37.9918 -12.177,-5.5871 -59.779,-23.4656 -107.38,-39.1093 -100.74,-35.757 -137.2713,-70.3967 -151.6625,-143.0281 -5.5352,-30.1701 -11.0702,-54.7531 -13.2843,-55.8704 -2.2141,-2.2348 -32.1036,-17.8785 -65.3141,-34.6396 -86.3475,-45.81372 -152.7687,-94.97966 -309.9655,-233.53817 -169.374,-148.61517 -219.1899,-179.90257 -281.183,-177.66775 -60.8861,2.2348 -84.1335,31.2874 -84.1335,103.91887 0,29.05259 4.4282,64.80963 9.9631,79.33592 5.5352,14.52629 16.6054,48.04851 24.3545,75.98369 7.7492,27.93519 18.8193,55.87037 24.3545,63.69222 16.6052,23.46555 4.428,64.8096 -19.9264,64.8096 -21.0334,0 -36.5316,-34.6396 -80.8124,-174.31551 -18.8194,-55.87037 -16.6053,-183.2548 2.214,-221.24665 22.1404,-41.34406 98.5248,-110.62332 133.9493,-119.56258 16.6054,-4.46963 43.1738,0 66.4213,11.17408 44.2808,21.23073 162.7319,110.62332 250.1864,187.72442 118.451,105.03629 183.7652,153.08479 281.183,208.95516 141.6986,81.57068 215.8686,75.98369 162.7326,-13.40888 -42.067,-73.74888 -59.78,-149.73258 -55.352,-240.24258 3.321,-72.63147 8.856,-93.8622 36.532,-134.08887 29.89,-45.8137 96.31,-91.62739 130.628,-91.62739 50.923,0 167.16,102.80147 350.926,312.87403 141.698,163.14147 262.363,245.82961 357.567,245.82961 44.281,0 60.885,-7.82185 126.2,-56.98777 73.063,-56.98778 75.278,-56.98778 151.662,-56.98778 83.026,1.11741 110.702,8.93927 250.186,72.63147 221.404,99.44916 355.353,129.61926 471.59,102.80156 30.997,-6.7045 38.746,-3.3524 64.207,30.1699 15.499,21.2308 28.783,51.4008 28.783,67.0444 0,24.583 -6.641,30.1701 -40.96,37.992 -23.247,4.4696 -66.421,10.0566 -97.417,11.174 -29.89,1.1174 -79.705,7.8219 -110.703,15.6437 -29.889,6.7043 -71.955,15.6437 -91.882,18.9958 -19.926,3.3524 -38.745,10.0568 -42.066,15.6439 -3.322,5.5869 -17.713,10.0566 -32.103,10.0566 -14.392,0 -28.784,4.4696 -32.105,10.0567 -3.322,5.5869 -19.926,12.2915 -36.532,15.6436 -17.712,3.3523 -75.277,18.9959 -130.627,34.6396 -114.024,32.405 -191.516,36.8744 -238.01,12.2915 -33.211,-17.8785 -88.562,-82.688 -88.562,-103.9188 0,-40.2266 116.238,-61.4574 223.618,-41.3441 19.927,3.3522 58.672,1.1175 86.348,-5.5871 27.676,-6.7044 65.315,-16.7611 83.026,-21.2308 26.569,-5.5869 33.212,-13.4087 33.212,-39.1091 0,-27.9352 -6.643,-33.5222 -60.888,-51.4007 -136.163,-44.6963 -163.838,-50.28342 -226.937,-50.28342 -58.672,0 -73.064,4.46972 -121.773,40.22672 -100.739,72.6314 -179.337,96.0971 -235.795,67.0445 -9.964,-5.5871 -36.532,-16.7612 -57.566,-26.8179 -71.956,-30.1699 -177.122,-121.79737 -278.969,-240.24254 -210.333,-248.06442 -262.363,-292.7607 -335.426,-292.7607 -37.639,0 -50.923,5.58702 -65.315,27.93518 -23.247,35.75703 -23.247,148.61516 0,204.48553 8.857,22.34814 23.248,69.27924 30.997,102.80146 16.605,72.63147 39.853,82.68815 99.632,45.81371 49.815,-31.28741 70.849,-29.05259 85.241,6.70444 29.889,79.33592 27.675,90.51012 -27.676,141.91082 -73.064,69.2792 -69.743,86.0403 32.103,125.1494 140.592,54.7531 203.692,196.6637 142.806,319.5785 -24.355,48.0486 -143.912,143.0283 -301.11,235.773 -79.705,48.0485 -146.126,93.8623 -147.233,100.5666 0,7.8219 -2.214,27.9354 -2.214,46.9312 -2.2141,26.8177 -11.0703,36.8744 -50.923,58.1052 -91.8825,45.8138 -86.3474,71.514 27.6756,138.5585 66.4214,40.2267 325.4634,169.846 450.5574,226.8337 75.277,34.6396 266.791,103.9188 325.463,117.3277 96.312,23.4656 107.382,-8.9392 34.319,-92.7447 -79.707,-90.51 -141.7,-178.7853 -138.379,-196.6637 6.643,-40.2268 39.854,-18.996 108.488,69.2792 111.809,145.2629 146.127,201.1334 153.877,254.7689 13.284,79.3359 2.213,89.3926 -91.884,88.2751 -63.1,-1.1174 -105.166,-10.0567 -201.477,-44.6963 z"
       id="path5"
       style="fill:#000000;stroke-width:1.1122" />
    <path
       d="m 4430.8215,2495.449 c -54.244,-53.6354 -64.2072,-94.9795 -33.2106,-135.2063 22.1404,-29.0524 21.0334,-64.8096 -2.214,-84.9229 -19.9264,-17.8784 -174.9091,-115.0929 -224.725,-140.7932 -15.4982,-7.822 -39.8527,-23.4657 -55.3509,-35.7571 -22.1405,-16.7612 -25.4615,-23.4656 -13.2843,-35.7571 30.9966,-31.2873 228.046,69.2793 339.8549,174.3155 33.2108,31.2875 49.816,40.2268 69.7424,34.6397 14.3911,-3.3522 33.2105,-1.1174 42.0667,6.7044 19.9263,16.7611 19.9263,62.5749 0,82.6882 -9.9632,10.0567 -13.2842,32.4048 -8.8562,71.5141 5.5352,61.4574 -16.6053,112.8581 -47.6018,112.8581 -9.9632,0 -39.8527,-22.3481 -66.4212,-50.2834 z"
       id="path6"
       style="fill:#165016;stroke-width:1.1122" />
    <path
       d="m 5609.7974,2458.5745 c -153.8757,-77.101 -171.5881,-89.3925 -174.9092,-116.2102 -3.321,-24.583 1.107,-31.2875 16.6053,-31.2875 25.4615,0 350.9252,163.1416 368.6376,184.3722 17.7122,21.2308 5.5351,50.2834 -18.8194,49.1659 -11.0701,0 -97.4176,-39.1092 -191.5143,-86.0404 z"
       id="path7"
       style="fill:#165016;stroke-width:1.1122" />
    <path
       d="m 3225.2773,2498.8014 c -11.0704,-5.5872 -26.5686,-29.0527 -35.4247,-49.166 -23.2475,-54.753 -40.9597,-56.9877 -84.1335,-8.9393 -29.8895,31.2874 -43.1738,39.1092 -61.9932,33.5223 -12.1771,-4.4697 -26.5683,-16.7611 -29.8895,-27.9353 -11.0702,-37.9918 -104.0598,-118.4452 -201.4775,-176.5502 -148.3406,-88.2752 -152.7687,-91.6275 -131.7354,-112.8582 15.4984,-15.6438 26.5686,-12.2915 121.7722,35.7569 76.3843,39.1094 119.5581,70.3968 160.5178,113.9757 80.8124,87.1577 122.8792,82.688 148.3408,-15.6438 7.7489,-32.4048 19.9263,-63.6922 27.6754,-71.514 18.8194,-18.996 44.2808,7.8218 52.0299,56.9877 3.3211,22.3481 11.0701,59.2225 17.7123,82.6882 9.9632,35.757 15.4983,41.3441 44.2808,41.3441 40.9597,0 66.4212,43.5788 43.1737,72.6314 -24.3543,29.0526 -48.7088,37.9919 -70.8491,25.7005 z"
       id="path8"
       style="fill:#165016;stroke-width:1.1122" />
    <path
       d="m 2182.4647,2439.5787 c -36.5315,-37.9919 -32.1035,-77.1011 9.9632,-81.5708 35.4247,-4.4695 39.8528,-31.2873 11.0702,-67.0444 -11.0702,-12.2915 -28.7824,-33.5221 -38.7456,-45.8136 -50.9229,-60.3401 6.642,-62.5749 60.8861,-2.2348 48.7088,54.7529 58.6719,73.7488 68.6351,131.854 5.5352,37.9919 3.3211,50.2834 -15.4981,69.2792 -30.9967,31.2874 -61.9932,29.0526 -96.3109,-4.4696 z"
       id="path9"
       style="fill:#165016;stroke-width:1.1122" />
    <path
       d="m 1694.2692,2373.6517 c -86.3476,-43.5789 -197.0495,-98.3319 -246.8654,-121.7974 -64.2071,-31.2873 -92.9896,-51.4008 -105.1668,-74.8663 -28.7825,-55.8704 5.535,-55.8704 115.13,0 52.0299,26.8178 167.1599,83.8056 255.7215,126.267 172.695,82.6882 199.2635,100.5667 199.2635,132.9715 0,35.757 -53.137,20.1133 -218.0828,-62.5748 z"
       id="path10"
       style="fill:#165016;stroke-width:1.1122" />
    <path
       d="m 7088.7755,2444.0483 c -57.5651,-16.761 -71.9562,-80.4532 -23.2474,-99.4492 34.3176,-13.4088 34.3176,-23.4656 3.3211,-78.2186 -27.6756,-48.0484 -22.1404,-65.927 17.7122,-46.931 35.4247,15.6436 86.3476,122.9148 81.9195,169.8458 -4.4281,45.8138 -35.4246,68.162 -79.7054,54.753 z"
       id="path11"
       style="fill:#165016;stroke-width:1.1122" />
    <path
       d="m 7801.6961,2377.0038 c -52.03,-25.7002 -148.3406,-72.6313 -215.8688,-105.0362 -66.4212,-32.4048 -233.5812,-110.6233 -368.6375,-174.3154 -174.9092,-82.6882 -254.6145,-125.1497 -269.0058,-146.3805 -22.1404,-31.2874 -17.7124,-64.8096 7.7491,-64.8096 8.8562,0 114.0231,48.0485 234.6881,107.2711 119.5583,59.2225 263.4708,129.6192 317.7148,155.3196 274.5408,130.7367 400.7409,195.5463 414.0252,211.1899 17.7123,21.2308 12.1773,55.8705 -9.9632,59.2226 -8.8561,1.1175 -58.672,-17.8785 -110.7019,-42.4615 z"
       id="path12"
       style="fill:#165016;stroke-width:1.1122" />
    <path
       d="m 551.82496,2361.3602 c -50.9229,-55.8704 -55.35098,-79.3358 -23.24741,-120.6799 47.60184,-60.3401 32.10356,-79.336 -160.51784,-192.194 -125.09322,-73.7489 -151.66168,-93.8624 -142.80552,-107.2712 9.96317,-17.8785 46.49482,-10.0567 121.77214,23.4655 84.13349,39.1092 185.9793,106.1537 224.72498,149.7325 19.92635,21.2308 37.63866,29.0526 69.74223,29.0526 35.42462,0 43.17376,4.4697 48.70886,30.17 4.42808,15.6438 2.21405,37.992 -5.5351,49.166 -6.64212,11.174 -12.1772,52.5181 -12.1772,91.6275 0,112.8581 -44.28079,130.7366 -120.66514,46.931 z"
       id="path13"
       style="fill:#165016;stroke-width:1.1122" />
    <path
       d="m 1043.3416,2389.2953 c -3.321,-5.5869 -8.8561,-29.0526 -12.1772,-52.5181 -2.214,-23.4655 -8.8561,-45.8137 -13.2842,-50.2834 -5.5351,-5.5869 -36.53166,-10.0566 -69.74224,-12.2915 l -59.77905,-2.2347 v -67.0445 c 0,-63.6922 -1.10702,-67.0443 -27.6755,-67.0443 -25.46144,0 -27.67549,4.4696 -30.99654,59.2225 -3.32106,49.1659 -6.64212,58.1052 -25.46145,58.1052 -12.17721,0 -24.35443,-6.7044 -27.67548,-14.5262 -11.07021,-30.1701 16.60528,-157.5545 39.8527,-179.9026 21.03336,-22.3482 23.2474,-22.3482 56.45798,-2.2348 21.03338,13.4088 43.17378,17.8785 61.99311,12.2914 21.03337,-4.4696 35.42462,0 53.13694,16.7611 14.39123,13.4089 34.31763,22.3483 46.49483,20.1134 16.6053,-3.3523 19.9263,-15.6438 22.1403,-75.9837 6.6422,-160.9067 37.6387,-619.0436 44.2809,-629.1003 3.321,-5.5872 7.7491,-43.5789 11.0702,-84.923 2.214,-40.2266 8.8561,-90.51 15.4982,-110.6233 19.9264,-61.4574 6.6422,-83.8056 -64.2071,-113.9755 -131.73533,-54.753 -245.75835,-40.2268 -302.21635,40.2266 -95.20369,135.2063 -92.98964,132.9714 -141.6985,136.3238 -45.38781,3.3521 -50.9229,0 -111.80898,-62.5749 -49.81589,-52.5181 -79.7054,-101.684 -139.48446,-223.48152 -47.60184,-97.21441 -85.24052,-162.02403 -100.73878,-169.84588 -27.67549,-15.64371 -85.24051,-5.58704 -104.05984,16.76111 -27.67549,33.52222 -44.28078,136.32368 -44.28078,271.52989 0,111.7408 -3.32106,136.3238 -16.6053,136.3238 -33.210584,0 -44.28078,-46.9311 -44.28078,-195.5463 C 59.20125,908.73071 61.415289,893.08701 89.090778,830.51221 132.26454,736.64999 189.82955,679.66223 240.75246,679.66223 c 63.10012,0 90.7756,37.99185 194.83544,261.47329 53.13694,116.21028 115.13004,185.48958 166.05294,185.48958 32.10357,0 39.8527,-6.7044 75.27732,-64.8096 54.24397,-89.39262 101.84581,-132.97146 163.83889,-146.38034 67.52821,-15.6437 159.41085,2.23481 239.11625,44.69629 33.2106,17.87853 68.6352,32.40483 78.5984,32.40483 9.9631,0 40.9597,-27.9352 69.7423,-60.34001 66.4211,-75.9837 117.344,-97.21444 170.481,-68.16184 38.7457,21.23074 56.458,51.40073 66.4212,115.09295 7.749,48.04852 -12.1774,132.97152 -36.5317,160.90662 -8.8562,10.0567 -14.3913,30.17 -12.1773,44.6963 3.3211,23.4657 9.9632,25.7004 64.2072,27.9351 33.2106,1.1175 86.3474,8.9393 118.4511,17.8786 79.7054,21.2307 86.3475,14.5264 70.8492,-72.6314 -27.6755,-160.90672 -8.8562,-261.47337 63.1001,-336.33965 53.137,-55.87036 90.7756,-74.86629 145.0196,-74.86629 91.8826,0 269.0058,89.39259 378.6007,192.19406 115.13,107.27108 135.0564,108.38848 137.2705,12.29148 3.321,-169.84591 118.451,-313.99146 283.397,-356.45292 183.7652,-46.93111 482.6604,62.5748 705.1714,259.23848 44.2808,39.10925 85.2405,71.51407 91.8826,71.51407 19.9263,0 23.2474,-33.52223 11.0702,-106.1537 -11.0702,-64.80961 -11.0702,-78.2185 7.7491,-120.67999 12.1772,-26.81776 39.8527,-67.04442 63.1002,-89.39257 37.6387,-36.87444 48.7088,-41.34407 97.4177,-41.34407 67.5281,0 89.6685,14.5263 235.7951,167.61108 58.6721,61.4574 130.6284,126.26703 159.4109,145.26295 73.0632,48.04851 360.8883,178.78517 390.7778,178.78517 14.3914,0 42.0668,-16.7611 64.2072,-40.2266 19.9263,-22.34822 64.2072,-52.51821 96.3107,-67.0445 30.9966,-14.52629 57.565,-30.16999 57.565,-34.63963 0,-3.35221 -12.1772,-37.99185 -26.5684,-74.86628 -32.1036,-81.57074 -45.3878,-176.55035 -34.3177,-248.06441 5.5351,-40.22667 18.8194,-63.69222 57.5651,-106.15369 47.6018,-51.40074 54.244,-54.75297 105.1668,-54.75297 66.4212,0 115.1301,30.17001 280.076,174.31554 152.7687,132.97147 262.3636,211.18997 359.7813,257.00368 59.7791,27.93517 162.7319,32.40481 221.404,10.05666 87.4545,-32.40481 90.7756,-32.40481 106.2738,-11.17407 8.8562,12.29148 15.4983,44.69628 15.4983,73.74888 0,49.16587 -3.3211,56.98777 -44.2808,89.39259 -24.3544,20.1133 -44.2808,44.6963 -44.2808,55.8704 0,29.0526 95.2038,124.0322 118.4511,119.5625 11.0702,-2.2349 26.5685,-25.7003 37.6387,-55.8702 34.3176,-96.0971 88.5615,-145.263 220.2969,-200.01603 224.725,-91.6274 595.5765,-112.85814 935.4315,-53.63556 197.0495,34.63963 385.2428,91.62737 623.2521,187.72449 78.5983,32.4048 97.4176,30.1699 152.7686,-16.7611 55.351,-44.6963 60.8861,-72.63152 30.9966,-145.26302 -14.3913,-33.52221 -16.6053,-64.80962 -12.1773,-134.08888 11.0702,-158.67183 83.0265,-277.117 209.2267,-340.80921 56.4581,-29.05258 75.2773,-32.40481 162.732,-32.40481 112.9159,0 184.8722,15.64371 301.1092,67.04443 154.9828,68.16185 250.1865,129.61925 338.748,219.01183 66.4212,65.92703 81.9195,107.2711 90.7757,238.00775 l 6.6421,94.97961 58.672,12.2915 c 71.9562,16.7611 127.3073,60.34 182.6582,143.0282 23.2474,35.7569 48.7089,63.6921 57.565,63.6921 7.7492,0 34.3177,-11.174 57.5651,-24.583 102.9528,-62.5747 166.0529,-68.1617 205.9056,-20.1133 71.9564,86.0404 34.3176,307.287 -59.779,346.3963 -29.8896,13.409 -39.8528,12.2915 -74.1703,-6.7045 -49.8159,-26.8177 -107.381,-96.097 -162.7319,-196.6637 -57.565,-103.9188 -115.1301,-149.7324 -200.3706,-160.9065 -66.4212,-7.8219 -115.13,5.5869 -115.13,33.5222 0,8.9392 -7.7492,24.583 -17.7124,34.6396 -16.6051,16.7611 -19.9263,16.7611 -37.6386,0 -33.2106,-31.2874 -32.1035,-79.336 7.7491,-204.4855 19.9263,-64.80972 36.5317,-128.50189 36.5317,-143.02819 0,-65.92703 -187.0863,-208.95517 -366.4235,-281.58664 -207.0127,-81.57073 -366.4235,-92.74479 -480.4464,-32.4048 -35.4247,18.99591 -101.8458,87.15777 -125.0934,129.61923 -17.7122,31.28742 -30.9964,175.43295 -19.9262,219.01183 8.8561,33.52225 17.7122,33.52225 151.6616,4.46964 162.7319,-34.63963 308.8585,99.44923 308.8585,283.82143 0,42.4615 -8.8562,71.5141 -34.3176,118.4452 -30.9965,53.6356 -33.2106,65.927 -23.2474,99.4492 11.0701,35.7571 9.9631,39.1092 -39.8527,87.1579 -67.5283,63.6921 -94.0967,62.5747 -101.8458,-6.7046 -6.6422,-54.7528 0,-72.6314 115.13,-296.1128 24.3545,-46.9311 7.7491,-84.923 -48.7088,-113.9757 -107.381,-53.6355 -276.7549,-27.9351 -285.611,44.6963 -3.3212,29.0526 17.7122,44.6965 102.9528,70.3967 21.0334,6.7045 43.1737,29.0526 65.3141,64.8096 l 33.2106,54.753 -36.5317,30.1701 c -63.1002,53.6355 -188.1934,81.5707 -366.4235,82.6881 -182.6582,1.1173 -245.7583,-18.996 -277.8618,-91.6275 -34.3177,-73.7488 -26.5686,-87.1577 45.3878,-82.6881 80.8124,4.4697 132.8423,-25.7004 132.8423,-75.9836 0,-18.996 -6.6422,-35.7572 -13.2843,-37.9919 -189.3004,-56.9878 -397.42,-110.6234 -501.4799,-128.5019 -451.6638,-79.33588 -885.6156,-46.931 -1069.3808,78.2186 -98.5248,68.1619 -125.0932,163.1414 -153.8757,557.5862 -18.8194,273.7647 -60.8861,514.0074 -88.5616,514.0074 -5.5351,0 -16.6053,-10.0567 -24.3544,-22.3482 -15.4984,-23.4656 -47.6019,-30.1699 -58.6721,-11.1741 -3.321,6.7044 -28.7824,11.1741 -55.3509,11.1741 -43.1738,0 -49.8159,-3.3523 -56.458,-27.9352 -3.3211,-15.6437 -3.3211,-40.2266 0,-54.753 8.8561,-36.8744 -2.2141,-62.5747 -27.6755,-62.5747 -17.7124,0 -21.0334,8.9391 -21.0334,61.4574 0,68.1618 -19.9263,90.51 -52.03,59.2225 -14.3911,-14.5262 -14.3911,-29.0526 -4.428,-92.7448 5.5351,-41.3441 16.6053,-81.5707 24.3545,-90.51 15.4982,-18.9958 71.9562,-21.2307 83.0264,-3.3521 4.4281,7.8218 22.1404,8.9393 45.3878,4.4696 28.7825,-5.5871 44.2808,-2.2349 60.8861,12.2915 32.1035,30.1699 56.458,8.9391 60.8861,-52.5183 1.107,-26.8177 7.7492,-94.9795 14.3911,-150.8499 5.5352,-56.9878 14.3914,-183.2548 17.7124,-282.7041 l 7.7492,-179.9025 -44.2808,-42.4616 c -32.1036,-31.2873 -69.7422,-51.4006 -137.2705,-73.7489 -50.9229,-16.7609 -100.7387,-35.7569 -111.809,-41.3439 -27.6754,-15.6438 -53.1369,-69.2794 -53.1369,-115.0929 0,-37.992 -3.3211,-41.3441 -71.9563,-74.86639 -67.5281,-33.52222 -157.1968,-102.80147 -397.42,-306.1696 -147.2336,-124.03221 -231.3671,-146.38035 -270.1128,-72.63147 -15.4982,30.17 -11.0702,132.97146 7.7492,179.90257 5.5352,14.52629 17.7123,54.75296 27.6755,88.27518 22.1403,73.74888 23.2474,74.86629 77.4913,116.21039 58.6722,44.69632 104.0598,148.61512 119.5582,273.76482 9.9632,78.2185 7.7491,151.9674 -11.0702,403.3839 -13.2843,168.7286 -27.6755,332.9875 -30.9966,364.2748 -5.5351,54.753 -4.4281,58.1052 22.1405,64.8097 15.4981,3.3522 28.7825,14.5263 28.7825,23.4655 0,14.5263 -49.8159,158.6719 -89.6687,260.3559 -13.2842,34.6396 -33.2105,26.8178 -57.565,-21.2306 -13.2842,-25.7005 -17.7123,-52.5183 -14.3912,-82.6882 3.321,-24.583 11.0702,-115.093 16.6053,-201.1334 5.535,-86.0403 21.0334,-309.5218 35.4246,-496.1288 27.6755,-394.4448 25.4614,-429.0843 -34.3176,-460.3718 -45.3878,-24.583 -140.5915,-27.9351 -168.2669,-5.587 -26.5686,20.1133 -24.3546,46.9311 7.749,111.7407 52.0299,103.9188 29.8896,258.121 -44.2807,317.3437 -37.6388,30.1699 -60.8861,31.2873 -95.2037,3.3522 -46.4949,-36.8744 -68.6352,-120.6801 -64.2071,-243.5949 l 4.428,-108.3884 -99.6317,-40.2266 C 4050.0068,1037.2325 3965.8733,982.47958 3844.1011,838.33406 3751.1115,728.82815 3694.6535,690.8363 3626.0183,690.8363 c -67.5282,0 -86.3475,24.58296 -86.3475,115.09295 0,79.33592 16.6053,149.73257 44.2808,186.60703 28.7825,37.99182 38.7457,21.23082 35.4245,-56.98779 -2.214,-56.98777 0,-65.92703 16.6054,-65.92703 23.2474,0 42.0667,39.10925 57.565,122.91482 24.3544,130.73662 23.2475,195.54622 -3.3211,544.17732 -36.5316,460.3719 -36.5316,459.2544 0,472.6633 32.1035,12.2915 32.1035,6.7044 -18.8193,156.437 -54.244,157.5544 -77.4913,182.1373 -107.381,118.4452 -19.9263,-41.344 -21.0333,-81.5708 -4.428,-258.1211 17.7123,-189.9593 57.565,-777.7154 57.565,-848.1121 0,-42.4615 -5.535,-60.34 -24.3543,-78.2185 -14.3914,-13.4089 -33.2107,-35.757 -43.1738,-50.2834 -28.7826,-44.6962 -54.2441,-24.5829 -54.2441,44.6963 0,36.8744 -11.0702,84.923 -33.2105,140.7934 -38.7456,96.0971 -38.7456,102.8014 -15.4983,120.68 24.3545,16.761 12.1772,39.1092 -60.886,110.6233 -46.4948,46.9311 -57.5651,52.5181 -73.0633,40.2266 -17.7124,-15.6436 -24.3545,-120.68 -7.7492,-139.6759 5.5352,-6.7045 21.0333,-43.579 35.4247,-83.8056 13.2842,-40.2266 39.8526,-101.684 56.458,-136.3235 17.7123,-35.7572 32.1035,-75.9838 32.1035,-91.6275 0,-82.68822 -332.1059,-274.88222 -532.4764,-307.28704 -222.5109,-36.87444 -352.0322,8.93927 -419.5603,147.49777 -42.0668,87.15775 -47.6019,172.08067 -15.4984,259.23857 13.2842,37.9917 19.9263,86.0403 19.9263,150.8499 0,80.4533 -4.4279,105.0363 -30.9965,165.3762 -18.8193,40.2268 -50.923,87.1578 -76.3843,109.506 -38.7457,35.7571 -48.7089,40.2266 -88.5617,34.6396 -78.5983,-11.174 -151.6616,-105.0363 -151.6616,-197.781 0,-89.3927 35.4246,-116.2104 171.588,-127.3844 145.0196,-11.1742 150.5547,-44.6963 25.4615,-154.2023 -107.3809,-93.8622 -164.9459,-135.2063 -255.7215,-182.1374 -68.6353,-34.63962 -99.6317,-43.57887 -164.9459,-46.9311 -70.8493,-4.46962 -85.2405,-2.23482 -119.5581,21.23074 -61.9932,42.46148 -79.7054,88.27506 -73.0633,187.72446 11.0701,149.7326 24.3544,181.02 104.0598,239.1251 64.2071,48.0486 135.0565,137.4411 135.0565,170.9634 0,30.17 -47.602,12.2914 -132.8425,-51.4007 -173.8021,-130.7367 -294.4672,-145.263 -400.7411,-48.0487 -54.244,49.166 -97.4177,136.3238 -97.4177,195.5464 0,40.2266 2.214,43.5789 59.7791,70.3965 80.8125,36.8745 229.153,55.8705 301.1093,37.992 110.702,-26.8178 115.13,-26.8178 115.13,-2.2348 0,50.2832 -152.7687,115.093 -274.5409,117.3277 -161.6248,1.1174 -277.8618,-106.1536 -278.9688,-257.0036 0,-54.753 -2.2142,-59.2227 -26.5685,-59.2227 -15.4983,0 -29.8895,4.4697 -34.3176,10.0567 -8.8562,15.6438 -26.5685,168.7286 -32.1035,291.6434 -3.3212,58.1052 -13.2844,174.3155 -23.2476,257.0036 -9.963,82.6882 -18.8192,166.4936 -21.0333,184.3722 -7.7491,69.2793 -21.0333,107.2711 -40.9597,117.3277 -12.1772,7.8218 -22.1404,7.8218 -26.5685,0 z m 1243.1829,-903.9824 c 8.8562,-4.4696 13.2844,-21.2307 11.0703,-35.757 -2.2141,-20.1133 -9.9631,-26.8178 -30.9966,-26.8178 -21.0334,0 -28.7824,6.7045 -30.9964,26.8178 -3.3211,22.3481 12.1771,45.8136 30.9964,45.8136 3.3212,0 12.1774,-4.4695 19.9263,-10.0566 z m 7058.3569,-86.0404 c 9.9631,-8.9392 17.7123,-29.0525 17.7123,-44.6963 0,-21.2307 -5.5352,-26.8178 -29.8896,-26.8178 -34.3175,0 -69.7422,29.0526 -69.7422,56.9877 0,33.5223 54.244,43.579 81.9195,14.5264 z m -4792.2877,-49.1659 c 8.8561,-17.8785 16.6053,-42.4615 16.6053,-54.753 0,-42.4614 -77.4914,-74.8662 -108.488,-43.5789 -7.7492,7.822 -13.2842,40.2267 -13.2842,72.6315 0,51.4008 3.321,61.4574 25.4615,69.2793 32.1035,12.2914 58.672,-2.2348 79.7054,-43.5789 z m 3249.1024,-16.7611 c 19.9264,-24.5829 8.8561,-54.753 -25.4614,-65.927 -46.4949,-16.7612 -97.4178,23.4655 -81.9195,64.8096 8.8562,23.4656 88.5616,24.5829 107.3809,1.1174 z m -6513.7032,-69.2793 c 29.8896,-22.3482 37.6387,-35.7569 35.4247,-58.1051 -3.321,-25.7005 -8.8561,-29.0526 -53.1369,-32.4048 -36.5317,-3.3523 -52.03,1.1174 -63.1002,15.6437 -15.4982,21.2307 -19.9263,84.9228 -6.642,97.2143 14.3911,15.6438 49.8158,6.7045 87.4544,-22.3481 z"
       id="path14"
       style="stroke-width:1.1122" />
    <path
       d="m 228.57524,2349.0687 c -9.96317,-12.2915 -14.39125,-49.1659 -13.28423,-110.6233 v -93.8622 l -67.5282,-35.757 c -37.63866,-20.1133 -86.347521,-48.0485 -110.701951,-63.6923 -39.8527049,-24.583 -40.9597246,-27.9351 -24.35443,-44.6963 16.605292,-17.8784 24.35443,-15.6436 101.845801,24.583 45.3878,23.4657 105.16686,64.8096 132.84234,91.6274 38.74569,39.1092 57.56503,49.1659 87.45455,49.1659 43.17376,0 60.88608,22.3481 60.88608,75.9837 0,24.5829 -12.17722,44.6962 -49.81589,79.3359 -52.02992,49.1659 -91.88262,58.1052 -117.34407,27.9352 z"
       id="path15"
       style="fill:#165016;stroke-width:1.1122" />
    <path
       d="m 8151.5143,2335.6597 c -5.5351,-10.0566 -19.9264,-17.8784 -263.4707,-135.2062 -88.5616,-43.5788 -167.16,-79.3359 -172.6951,-79.3359 -22.1403,0 -79.7054,-64.8095 -73.0632,-82.6881 3.321,-10.0567 12.1772,-17.8786 17.7123,-17.8786 6.6421,0 71.9562,30.17 146.1266,65.9271 73.0633,35.7571 191.5143,93.8622 263.4706,129.6193 70.8493,34.6396 131.7353,70.3965 135.0564,80.4532 12.1772,30.1701 -36.5317,65.9271 -53.1369,39.1092 z"
       id="path16"
       style="fill:#165016;stroke-width:1.1122" />
    <path
       d="m 8503.5466,2322.251 c -13.2844,-5.5871 -34.3178,-27.9351 -48.7089,-49.1659 -21.0335,-34.6397 -22.1405,-43.579 -9.9632,-59.2227 12.1772,-13.4089 28.7825,-15.6437 81.9194,-11.1741 36.5316,3.3523 74.1703,2.2348 81.9195,-2.2348 27.6754,-17.8785 6.6421,-51.4007 -52.03,-80.4532 -71.9562,-34.6396 -99.6317,-61.4574 -83.0264,-78.2186 24.3544,-24.5829 156.0897,31.2875 230.2601,99.4492 91.8826,86.0404 114.023,158.6719 53.1369,182.1374 -33.2106,12.2914 -221.4039,12.2914 -253.5074,-1.1173 z"
       id="path17"
       style="fill:#165016;stroke-width:1.1122" />
    <path
       d="m 6231.9423,2276.4372 c -12.1772,-20.1133 -11.0702,-26.8178 5.5351,-51.4008 81.9195,-116.2102 88.5616,-170.9632 36.5316,-305.0521 -34.3176,-88.2752 -42.0667,-154.2023 -19.9263,-176.5504 26.5685,-26.8178 81.9195,-15.6436 112.916,21.2308 37.6387,44.6963 37.6387,92.7448 0,148.6153 -29.8895,43.5787 -29.8895,43.5787 -12.1772,112.858 18.8194,81.5708 15.4983,111.7408 -19.9264,192.1941 -36.5315,78.2184 -76.3843,101.684 -102.9528,58.1051 z m 97.4178,-440.2585 c 0,-8.9393 -7.7492,-16.7611 -16.6054,-16.7611 -8.8561,0 -16.6053,7.8218 -16.6053,16.7611 0,8.9393 7.7492,16.7612 16.6053,16.7612 8.8562,0 16.6054,-7.8219 16.6054,-16.7612 z"
       id="path18"
       style="fill:#165016;stroke-width:1.1122" />
    <path
       d="m 9179.9354,2264.1457 c -3.321,-20.1133 -9.9631,-62.5747 -13.2842,-94.9795 -8.8562,-94.9797 44.2808,-147.4978 101.8458,-101.6841 34.3176,26.8177 33.2106,68.1618 0,73.7488 -12.1772,2.2348 -28.7825,10.0567 -35.4246,15.6438 -17.7123,14.5264 -18.8193,78.2184 -2.2141,94.9796 17.7124,17.8786 4.4281,48.0485 -22.1404,48.0485 -14.3912,0 -23.2473,-11.1741 -28.7825,-35.7571 z"
       id="path19"
       style="fill:#165016;stroke-width:1.1122" />
    <path
       d="m 11029.765,2284.2591 c -52.03,-11.174 -105.167,-77.1011 -87.454,-105.0362 8.856,-14.5264 29.889,-18.996 87.454,-21.2308 42.067,0 83.027,-2.2349 90.776,-2.2349 6.642,-1.1173 13.284,-11.174 13.284,-23.4655 0,-17.8786 -18.82,-31.2874 -81.919,-60.34 -90.776,-41.3441 -102.953,-53.6356 -78.599,-73.7489 13.284,-11.1739 23.248,-11.1739 45.388,-1.1173 15.498,6.7043 36.532,12.2914 46.494,12.2914 33.212,1.1174 131.736,72.6314 183.767,134.0888 61.993,72.6316 67.527,116.2104 21.033,135.2063 -38.746,15.6439 -187.087,18.996 -240.224,5.5871 z"
       id="path20"
       style="fill:#165016;stroke-width:1.1122" />
    <path
       d="m 3895.024,2227.2713 c -38.7457,-42.4615 -43.1737,-53.6356 -34.3175,-77.101 5.535,-15.6437 6.6421,-45.8138 3.321,-67.0445 -3.321,-22.3481 -2.214,-40.2267 3.3211,-40.2267 12.1771,0 161.6249,101.6841 172.695,117.3278 14.3912,20.1133 9.9632,41.3441 -11.0701,46.9311 -11.0703,2.2348 -25.4616,20.1133 -32.1036,37.9919 -17.7124,45.8136 -47.6019,41.3439 -101.8459,-17.8786 z"
       id="path21"
       style="fill:#165016;stroke-width:1.1122" />
    <path
       d="m 2348.5177,2127.8221 c -85.2405,-43.5789 -205.9056,-102.8015 -267.8986,-132.9714 -90.7757,-42.4616 -114.0231,-58.1053 -119.5583,-81.5707 -11.0701,-42.4616 11.0702,-58.1053 48.7089,-34.6398 16.6053,10.0568 66.4212,37.9919 109.595,60.34 95.2036,50.2833 115.13,43.579 94.0966,-27.9351 -17.7122,-60.34 -16.6052,-115.093 4.4281,-145.2631 22.1404,-32.4048 43.1738,-31.2873 77.4913,3.3524 36.5317,36.8744 33.2106,78.2185 -6.642,78.2185 -25.4615,0 -27.6755,3.3522 -25.4615,52.5181 3.321,106.1537 14.3913,121.7974 125.0932,169.8458 54.2439,24.583 109.595,55.8705 122.8792,69.2793 23.2474,24.5829 25.4614,62.5749 4.4281,65.927 -5.5351,1.1175 -80.8124,-33.522 -167.16,-77.101 z"
       id="path22"
       style="fill:#165016;stroke-width:1.1122" />
    <path
       d="m 1653.3094,2117.7655 c -19.9263,-53.6356 -23.2474,-154.2023 -6.6421,-187.7246 17.7124,-32.4048 60.8861,-26.8177 88.5615,12.2915 28.7825,41.3441 22.1405,67.0445 -17.7122,67.0445 -27.6756,0 -28.7826,2.2349 -23.2474,48.0485 3.321,25.7004 8.8561,60.3401 13.2842,78.2185 6.6421,25.7004 4.4281,30.17 -13.2842,30.17 -16.6053,0 -27.6755,-13.4089 -40.9598,-48.0484 z"
       id="path23"
       style="fill:#165016;stroke-width:1.1122" />
    <path
       d="m 3213.0999,2105.474 c -36.5315,-18.996 -98.5246,-49.1659 -138.3773,-68.1619 -296.6813,-134.0889 -321.0357,-148.6151 -321.0357,-192.1941 0,-18.9959 6.6421,-25.7004 25.4614,-25.7004 14.3913,0 29.8896,4.4696 36.5316,11.1742 22.1405,22.3481 350.9252,179.9025 365.3165,174.3155 9.9632,-4.4697 12.1772,-31.2874 7.7492,-109.506 -5.5351,-96.097 -4.4281,-105.0363 17.7123,-125.1496 32.1035,-29.0526 75.2773,-13.4088 102.9529,36.8744 27.6753,49.1659 18.8192,69.2792 -26.5686,65.9271 -33.2106,-3.3522 -36.5316,0 -39.8527,32.4048 -5.535,54.753 28.7826,157.5544 59.7791,177.6678 14.3911,10.0567 26.5685,27.9351 26.5685,39.1093 0,31.2873 -37.6387,25.7003 -116.2372,-16.7611 z"
       id="path24"
       style="fill:#165016;stroke-width:1.1122" />
    <path
       d="m 10481.79,2122.2351 c -19.926,-36.8744 -26.568,-170.9634 -9.962,-202.2508 30.996,-58.1051 125.092,-31.2873 117.343,32.4048 -2.213,22.3483 -9.962,30.1701 -33.21,32.4049 -37.639,4.4695 -50.923,43.5788 -30.996,91.6274 7.748,17.8784 11.07,40.2266 6.641,50.2832 -8.856,23.4657 -36.532,21.2308 -49.816,-4.4695 z"
       id="path25"
       style="fill:#165016;stroke-width:1.1122" />
    <path
       d="m 11589.917,2082.0083 c -26.568,-14.5262 -90.776,-46.931 -143.912,-71.514 -288.932,-131.8541 -312.18,-144.1456 -312.18,-173.1981 0,-15.6437 5.535,-31.2874 12.178,-34.6397 5.534,-4.4695 86.347,30.1701 179.336,75.9837 92.99,45.8138 205.906,101.6841 252.401,122.9148 89.668,42.4616 116.237,64.8097 105.166,91.6275 -8.856,23.4655 -38.744,20.1133 -92.989,-11.1742 z"
       id="path26"
       style="fill:#165016;stroke-width:1.1122" />
    <path
       d="m 5268.8354,1973.6199 c -48.7089,-63.6923 -64.2072,-189.9593 -26.5686,-224.5988 11.0702,-11.1742 27.6756,-18.996 37.6387,-18.996 23.2474,0 64.2072,48.0484 64.2072,75.9837 0,20.1133 -6.6422,24.583 -34.3176,24.583 h -34.3178 l 7.7492,78.2185 c 7.7492,79.3358 5.5352,89.3925 -14.3911,64.8096 z"
       id="path27"
       style="fill:#165016;stroke-width:1.1122" />
    <path
       d="m 8097.2703,1950.1544 c -29.8894,-23.4657 -32.1036,-23.4657 -64.2072,-4.4696 -48.7087,27.9351 -73.0633,23.4654 -92.9896,-14.5264 -27.6755,-54.7531 -21.0334,-74.8664 36.5317,-111.7408 l 52.03,-33.5221 25.4613,29.0524 c 25.4615,29.0527 25.4615,29.0527 73.0633,11.1742 57.5651,-22.3482 78.5984,-15.6436 94.0967,29.0526 18.8193,53.6356 15.4983,62.5747 -32.1036,92.7448 -52.0299,33.5222 -52.0299,33.5222 -91.8826,2.2349 z"
       id="path28"
       style="stroke-width:1.1122" />
    <path
       d="m 8636.3888,1966.9154 c -40.9598,-25.7003 -63.1001,-181.0199 -35.4246,-241.36 23.2475,-53.6356 87.4545,-45.8137 108.4879,11.1742 16.6053,42.4614 13.2843,49.1659 -21.0334,49.1659 -39.8527,0 -47.6018,25.7003 -33.2105,109.5058 11.0702,60.3401 4.428,87.1579 -18.8194,71.5141 z"
       id="path29"
       style="fill:#165016;stroke-width:1.1122" />
    <path
       d="m 7427.5235,1928.9236 c -13.2842,-17.8785 -35.4247,-120.68 -35.4247,-165.3763 0,-48.0485 22.1405,-89.3926 53.137,-97.2144 22.1404,-5.5871 34.3175,1.1173 59.7791,29.0526 37.6386,42.4614 35.4246,60.3399 -8.8562,68.1618 l -32.1035,6.7044 2.214,86.0403 c 2.214,67.0446 0,86.0404 -12.1772,86.0404 -7.7492,0 -19.9264,-6.7043 -26.5685,-13.4088 z"
       id="path30"
       style="fill:#165016;stroke-width:1.1122" />
    <path
       d="m 4366.6143,1877.5228 c -22.1403,-24.5829 -43.1737,-79.3358 -35.4245,-92.7448 4.428,-5.587 28.7825,-24.5829 55.3509,-43.5789 50.9229,-35.757 77.4915,-34.6396 86.3476,1.1174 7.749,27.9352 34.3176,26.8179 83.0263,-3.3521 l 38.7458,-23.4656 26.5685,30.1699 c 36.5316,42.4616 32.1036,75.9838 -13.2843,117.3279 -43.1738,37.9919 -73.0633,43.5788 -94.0966,17.8784 -17.7123,-21.2306 -56.458,-21.2306 -84.1335,0 -27.6755,21.2308 -42.0667,21.2308 -63.1002,-3.3522 z"
       id="path31"
       style="stroke-width:1.1122" />
    <path
       d="m 9268.497,1866.3487 c -29.8896,-17.8785 -141.6985,-71.5141 -247.9724,-119.5625 -181.5512,-83.8055 -233.581,-119.5626 -233.581,-157.5544 0,-27.9353 32.1035,-16.7611 208.1196,69.2793 95.2037,46.931 201.4775,98.3318 234.6881,113.9755 92.9896,43.5788 121.7721,67.0443 121.7721,98.3318 0,34.6396 -14.3911,33.5223 -83.0264,-4.4697 z"
       id="path32"
       style="fill:#165016;stroke-width:1.1122" />
    <path
       d="m 127.83646,1806.0088 c -8.85615,-14.5263 -22.14039,-43.579 -29.889526,-64.8097 -7.749136,-21.2306 -18.819332,-49.166 -23.247411,-61.4574 -60.886075,-150.85 -32.103567,-351.9833 50.922897,-351.9833 50.9229,0 126.20024,89.3927 126.20024,149.7326 0,40.2267 -19.92635,45.8138 -45.38781,13.409 -24.35443,-31.2875 -53.13693,-36.8744 -74.17031,-15.6438 -23.24741,23.4656 -14.39125,127.3844 19.92635,234.6556 17.71231,55.8702 29.88953,106.1536 26.56847,111.7407 -11.07019,16.7611 -35.42462,8.9393 -50.9229,-15.6437 z"
       id="path33"
       style="fill:#165016;stroke-width:1.1122" />
    <path
       d="m 3847.4221,1784.778 c -28.7824,-30.17 -42.0667,-53.6355 -39.8527,-70.3966 3.3212,-22.3483 7.7492,-23.4656 92.9897,-20.1134 57.565,3.3523 92.9897,0 97.4177,-7.8218 14.3913,-23.4655 -14.3912,-51.4008 -95.2036,-90.51 -92.9897,-44.6963 -108.4879,-74.8663 -36.5317,-69.2792 98.5248,7.8218 254.6145,117.3277 297.7883,208.9551 34.3176,72.6315 -2.214,94.9797 -161.6249,94.9797 h -111.809 z"
       id="path34"
       style="fill:#165016;stroke-width:1.1122" />
    <path
       d="m 10864.82,1788.1303 c -44.282,-45.8138 -53.138,-91.6275 -24.356,-129.6192 34.319,-45.8138 22.141,-65.9271 -85.24,-135.2063 -56.458,-36.8745 -111.809,-72.6316 -125.093,-79.3359 -53.137,-27.9353 -71.956,-44.6964 -71.956,-62.5749 0,-12.2915 7.749,-20.1133 19.926,-20.1133 50.923,0 246.866,118.4451 296.682,178.7852 21.032,24.583 37.639,33.5221 64.207,33.5221 55.35,0 100.738,64.8098 56.458,82.6882 -12.178,4.4696 -16.606,22.3482 -16.606,61.4574 0,119.5626 -40.959,145.263 -114.022,70.3967 z"
       id="path35"
       style="fill:#165016;stroke-width:1.1122" />
    <path
       d="m 783.19205,1759.0777 c -45.38781,-21.2308 -125.09322,-60.34 -177.12314,-87.1579 -79.70541,-41.3441 -94.09665,-52.5181 -97.41772,-78.2185 -5.5351,-46.931 18.81933,-41.3439 192.6214,48.0486 164.94592,83.8055 199.26353,109.506 189.30035,137.4411 -8.85615,23.4655 -11.07019,23.4655 -107.38089,-20.1133 z"
       id="path36"
       style="fill:#165016;stroke-width:1.1122" />
    <path
       d="m 11583.275,1726.6729 c -35.425,-121.7974 -12.176,-220.1293 50.922,-220.1293 22.141,0 34.319,8.9394 47.603,33.5223 25.461,50.2832 22.14,67.0444 -16.605,67.0444 -25.462,0 -34.318,5.587 -39.853,27.9351 -3.321,15.6438 -3.321,42.4616 1.106,59.2226 14.393,58.1052 12.178,84.923 -7.748,89.3926 -13.285,2.2349 -22.141,-11.174 -35.425,-56.9877 z"
       id="path37"
       style="fill:#165016;stroke-width:1.1122" />
    <path
       d="m 5598.7272,1699.8552 c -18.8193,-5.5872 -71.9563,-30.1701 -218.0828,-99.4494 -114.023,-53.6355 -152.7688,-92.7449 -121.7722,-124.0322 15.4981,-15.6437 21.0333,-15.6437 65.3141,10.0567 26.5685,15.6437 104.0599,56.9878 171.5881,91.6274 123.9862,62.5748 160.5178,93.8621 132.8423,116.2103 -6.6421,5.5872 -21.0334,7.8219 -29.8895,5.5872 z"
       id="path38"
       style="fill:#165016;stroke-width:1.1122" />
    <path
       d="m 3033.7628,1671.9198 c -6.642,-7.8218 -19.9264,-32.4047 -29.8896,-53.6355 l -18.8193,-39.1092 33.2107,-27.9352 c 17.7123,-15.6436 47.6018,-36.8744 66.4211,-48.0484 l 33.2105,-20.1135 28.7826,56.9879 c 15.4982,31.2873 25.4614,61.4574 21.0334,68.1618 -11.0702,17.8786 -95.2036,77.1011 -109.5949,77.1011 -7.7492,0 -18.8194,-6.7044 -24.3545,-13.409 z"
       id="path39"
       style="stroke-width:1.1122" />
    <path
       d="m 11318.698,1631.6932 c -23.248,-25.7004 -42.068,-77.101 -34.318,-96.0969 6.641,-17.8786 86.347,-73.7489 104.06,-73.7489 13.284,0 55.35,65.927 55.35,88.2751 0,16.7612 -83.027,101.684 -98.524,101.684 -4.428,0 -16.606,-8.9393 -26.568,-20.1133 z"
       id="path40"
       style="stroke-width:1.1122" />
    <path
       d="m 830.79389,1582.5273 c -39.8527,-63.6922 -49.81589,-194.4288 -16.6053,-224.5988 27.67549,-25.7004 49.81589,-23.4656 78.59838,7.8218 30.99656,33.5222 26.56849,64.8096 -9.96316,73.7489 -28.78252,6.7043 -29.88954,14.5264 -19.92635,116.2104 3.32105,34.6395 -16.6053,51.4007 -32.10357,26.8177 z"
       id="path41"
       style="fill:#165016;stroke-width:1.1122" />
    <path
       d="m 2778.0413,1476.3736 c -40.9597,-106.1536 -42.0667,-184.3722 -3.3211,-221.2466 27.6755,-24.583 57.5651,-14.5263 81.9195,26.8178 22.1403,37.9918 15.4983,65.9269 -17.7124,70.3966 -25.4614,3.3523 -27.6754,18.996 -17.7122,109.506 5.5351,50.2832 -25.4615,60.3399 -43.1738,14.5262 z"
       id="path42"
       style="fill:#165016;stroke-width:1.1122" />
    <path
       d="m 8474.764,1454.0256 c -38.7457,-45.8138 -43.1738,-65.9271 -18.8193,-97.2146 33.2105,-42.4614 77.4913,-63.6922 102.9528,-49.1659 17.7123,10.0567 50.9229,72.6316 50.9229,97.2145 0,11.174 -90.7757,68.1618 -108.4879,68.1618 -5.5351,0 -17.7123,-8.9392 -26.5685,-18.9958 z"
       id="path43"
       style="stroke-width:1.1122" />
    <path
       d="m 9627.1713,1269.6534 c -21.0334,-37.992 -27.6754,-194.4289 -9.9631,-215.6597 32.1036,-39.1092 54.2439,-41.3441 83.0264,-10.0566 37.6387,40.2266 36.5317,69.2792 -2.214,73.7488 -27.6755,3.3522 -30.9966,8.9392 -34.3176,50.2833 -2.214,25.7004 2.214,58.1052 8.8561,70.3967 9.9632,17.8785 8.8562,27.9351 -1.107,40.2266 -17.7123,22.3482 -28.7825,20.1133 -44.2808,-8.9391 z"
       id="path44"
       style="fill:#165016;stroke-width:1.1122" />
    <path
       d="m 8351.8848,1129.9774 c -4.428,-3.3523 -7.7491,-23.4656 -7.7491,-43.5789 0,-20.1133 -4.4281,-40.2267 -11.0702,-43.5789 -18.8194,-12.2915 -12.1773,-68.16182 12.1772,-99.44926 26.5685,-33.52221 54.244,-36.87444 79.7054,-8.93925 26.5685,29.05259 23.2474,45.81369 -8.8561,60.33999 -33.2106,15.64372 -45.3878,53.63562 -27.6756,87.15772 6.6421,13.409 9.9632,31.2875 6.6421,40.2268 -6.6421,16.7609 -30.9965,21.2306 -43.1737,7.8218 z"
       id="path45"
       style="fill:#165016;stroke-width:1.1122" />
    <path
       d="m 1034.4855,849.50813 c -25.4615,-27.93518 -23.2474,-52.51815 5.5351,-71.51406 23.2474,-15.6437 23.2474,-17.87853 5.5351,-42.46149 -23.2474,-33.52221 -24.3544,-55.87035 -3.3211,-55.87035 18.8194,0 84.1335,97.21443 84.1335,125.14961 0,59.22259 -55.351,86.04036 -91.8826,44.69629 z"
       id="path46"
       style="fill:#165016;stroke-width:1.1122" />
    <path
       d="m 5941.9032,824.92517 c -27.6755,-27.93519 -27.6755,-39.10926 0,-67.04444 17.7123,-17.87851 19.9263,-26.81777 8.8562,-55.87036 -16.6053,-51.40074 -3.3211,-53.63555 40.9597,-6.70444 44.2808,48.04851 52.0299,102.80146 18.8193,132.97147 -26.5684,24.58296 -42.0667,23.46555 -68.6352,-3.35223 z"
       id="path47"
       style="fill:#165016;stroke-width:1.1122" />
    <path
       d="m 11533.46,831.62961 c -17.713,-21.23074 -6.643,-40.22665 22.14,-40.22665 14.391,0 21.033,-7.82186 21.033,-26.81778 0,-14.52629 -4.429,-29.0526 -8.857,-31.2874 -23.246,-10.05668 -57.565,-78.21851 -57.565,-113.97554 0,-51.40074 27.676,-67.04445 111.81,-60.34 67.528,4.46962 112.916,31.2874 101.845,60.34 -6.641,18.99591 -39.852,20.11332 -87.454,2.23481 -28.782,-10.05666 -39.853,-10.05666 -53.137,1.11741 -27.675,23.46555 -21.034,42.46147 33.21,101.68405 39.853,42.46149 49.817,61.4574 46.495,86.04036 -3.321,29.0526 -6.642,31.28741 -59.778,34.63963 -39.853,2.23481 -59.78,-1.11741 -69.742,-13.40889 z"
       id="path48"
       style="fill:#165016;stroke-width:1.1122" />
    <path
       d="m 4291.337,812.63369 c -18.8193,-35.75703 -25.4613,-147.49776 -11.0702,-175.43295 19.9264,-36.87444 73.0634,-33.52221 94.0967,6.70446 17.7124,35.75703 12.1772,53.63554 -21.0333,60.33999 -19.9264,3.35222 -22.1404,11.17407 -18.8194,68.16183 3.321,51.40075 0,63.69223 -13.2842,63.69223 -8.8561,0 -22.1404,-11.17408 -29.8896,-23.46556 z"
       id="path49"
       style="fill:#165016;stroke-width:1.1122" />
    <path
       d="m 10785.114,713.18445 c -15.498,-24.58296 -27.676,-49.16592 -27.676,-54.75296 0,-11.17407 63.1,-60.33999 90.776,-71.51406 11.07,-3.35223 29.889,2.2348 45.388,15.64369 34.316,26.81778 46.494,26.81778 90.775,-1.11741 l 36.532,-22.34814 28.783,34.63962 c 44.28,52.51815 36.531,84.92295 -28.783,125.14962 -39.853,24.58296 -60.886,23.46556 -77.492,-3.35223 -7.749,-12.29148 -22.14,-22.34813 -32.103,-22.34813 -9.962,0 -30.997,10.05665 -46.494,22.34813 -38.746,31.28742 -47.603,29.0526 -79.706,-22.34813 z"
       id="path50"
       style="stroke-width:1.1122" />
  </g>
</svg>
