<?xml version="1.0" encoding="UTF-8" standalone="no"?>
<!-- Created with Inkscape (http://www.inkscape.org/) -->

<svg
   width="210mm"
   height="297mm"
   viewBox="0 0 210 297"
   version="1.1"
   id="svg1"
   xml:space="preserve"
   inkscape:version="1.4.3 (fcd0343856, 2026-01-01)"
   sodipodi:docname="othman.svg"
   xmlns:inkscape="http://www.inkscape.org/namespaces/inkscape"
   xmlns:sodipodi="http://sodipodi.sourceforge.net/DTD/sodipodi-0.dtd"
   xmlns="http://www.w3.org/2000/svg"
   xmlns:svg="http://www.w3.org/2000/svg"><sodipodi:namedview
     id="namedview1"
     pagecolor="#ffffff"
     bordercolor="#000000"
     borderopacity="0.25"
     inkscape:showpageshadow="2"
     inkscape:pageopacity="0.0"
     inkscape:pagecheckerboard="0"
     inkscape:deskcolor="#d1d1d1"
     inkscape:document-units="mm"
     inkscape:zoom="0.72630719"
     inkscape:cx="748.99438"
     inkscape:cy="595.47806"
     inkscape:window-width="2560"
     inkscape:window-height="1403"
     inkscape:window-x="1920"
     inkscape:window-y="0"
     inkscape:window-maximized="1"
     inkscape:current-layer="layer1" /><defs
     id="defs1"><filter
       inkscape:collect="always"
       style="color-interpolation-filters:sRGB"
       id="filter1"
       x="-0.0027658436"
       y="-0.0042280432"
       width="1.0055317"
       height="1.0084561"><feGaussianBlur
         inkscape:collect="always"
         stdDeviation="0.11975719"
         id="feGaussianBlur1" /></filter><filter
       inkscape:collect="always"
       style="color-interpolation-filters:sRGB"
       id="filter28"
       x="-0.026857592"
       y="-0.029671822"
       width="1.0537152"
       height="1.0593436"><feGaussianBlur
         inkscape:collect="always"
         stdDeviation="0.30442981"
         id="feGaussianBlur28" /></filter><filter
       inkscape:collect="always"
       style="color-interpolation-filters:sRGB"
       id="filter29"
       x="-0.034945905"
       y="-0.037557775"
       width="1.0698918"
       height="1.0751155"><feGaussianBlur
         inkscape:collect="always"
         stdDeviation="0.30442981"
         id="feGaussianBlur29" /></filter><filter
       inkscape:collect="always"
       style="color-interpolation-filters:sRGB"
       id="filter30"
       x="-0.11394676"
       y="-0.022924847"
       width="1.2278935"
       height="1.0458497"><feGaussianBlur
         inkscape:collect="always"
         stdDeviation="0.30442981"
         id="feGaussianBlur30" /></filter><filter
       inkscape:collect="always"
       style="color-interpolation-filters:sRGB"
       id="filter31"
       x="-0.045363714"
       y="-0.060869221"
       width="1.0907274"
       height="1.1217384"><feGaussianBlur
         inkscape:collect="always"
         stdDeviation="0.30442981"
         id="feGaussianBlur31" /></filter><filter
       inkscape:collect="always"
       style="color-interpolation-filters:sRGB"
       id="filter32"
       x="-0.10241442"
       y="-0.041675381"
       width="1.2048288"
       height="1.0833508"><feGaussianBlur
         inkscape:collect="always"
         stdDeviation="0.30442981"
         id="feGaussianBlur32" /></filter><filter
       inkscape:collect="always"
       style="color-interpolation-filters:sRGB"
       id="filter33"
       x="-0.018724896"
       y="-0.038313067"
       width="1.0374498"
       height="1.0766261"><feGaussianBlur
         inkscape:collect="always"
         stdDeviation="0.30442981"
         id="feGaussianBlur33" /></filter><filter
       inkscape:collect="always"
       style="color-interpolation-filters:sRGB"
       id="filter34"
       x="-0.026133447"
       y="-0.10263005"
       width="1.0522669"
       height="1.2052601"><feGaussianBlur
         inkscape:collect="always"
         stdDeviation="0.30442981"
         id="feGaussianBlur34" /></filter><filter
       inkscape:collect="always"
       style="color-interpolation-filters:sRGB"
       id="filter35"
       x="-0.072418346"
       y="-0.026372695"
       width="1.1448367"
       height="1.0527454"><feGaussianBlur
         inkscape:collect="always"
         stdDeviation="0.30442981"
         id="feGaussianBlur35" /></filter><filter
       inkscape:collect="always"
       style="color-interpolation-filters:sRGB"
       id="filter36"
       x="-0.10119452"
       y="-0.040701982"
       width="1.202389"
       height="1.081404"><feGaussianBlur
         inkscape:collect="always"
         stdDeviation="0.30442981"
         id="feGaussianBlur36" /></filter><filter
       inkscape:collect="always"
       style="color-interpolation-filters:sRGB"
       id="filter37"
       x="-0.032979175"
       y="-0.03540748"
       width="1.0659583"
       height="1.070815"><feGaussianBlur
         inkscape:collect="always"
         stdDeviation="0.30442981"
         id="feGaussianBlur37" /></filter><filter
       inkscape:collect="always"
       style="color-interpolation-filters:sRGB"
       id="filter38"
       x="-0.14816956"
       y="-0.12494064"
       width="1.2963391"
       height="1.2498813"><feGaussianBlur
         inkscape:collect="always"
         stdDeviation="0.30442981"
         id="feGaussianBlur38" /></filter><filter
       inkscape:collect="always"
       style="color-interpolation-filters:sRGB"
       id="filter43"
       x="-0.030202944"
       y="-0.047823171"
       width="1.0604059"
       height="1.0956463"><feGaussianBlur
         inkscape:collect="always"
         stdDeviation="0.11975719"
         id="feGaussianBlur43" /></filter><filter
       inkscape:collect="always"
       style="color-interpolation-filters:sRGB"
       id="filter44"
       x="-0.0030125245"
       y="-0.0049967795"
       width="1.006025"
       height="1.0099936"><feGaussianBlur
         inkscape:collect="always"
         stdDeviation="0.11975719"
         id="feGaussianBlur44" /></filter><filter
       inkscape:collect="always"
       style="color-interpolation-filters:sRGB"
       id="filter45"
       x="-0.031251445"
       y="-0.0064835"
       width="1.0625029"
       height="1.012967"><feGaussianBlur
         inkscape:collect="always"
         stdDeviation="0.11975719"
         id="feGaussianBlur45" /></filter><filter
       inkscape:collect="always"
       style="color-interpolation-filters:sRGB"
       id="filter46"
       x="-0.025142136"
       y="-0.025752642"
       width="1.0502843"
       height="1.0515053"><feGaussianBlur
         inkscape:collect="always"
         stdDeviation="0.11975719"
         id="feGaussianBlur46" /></filter><filter
       inkscape:collect="always"
       style="color-interpolation-filters:sRGB"
       id="filter47"
       x="-0.013932937"
       y="-0.024715603"
       width="1.0278659"
       height="1.0494312"><feGaussianBlur
         inkscape:collect="always"
         stdDeviation="0.11975719"
         id="feGaussianBlur47" /></filter><filter
       inkscape:collect="always"
       style="color-interpolation-filters:sRGB"
       id="filter48"
       x="-0.026751246"
       y="-0.025051884"
       width="1.0535025"
       height="1.0501038"><feGaussianBlur
         inkscape:collect="always"
         stdDeviation="0.11975719"
         id="feGaussianBlur48" /></filter></defs><g
     inkscape:label="Layer 1"
     inkscape:groupmode="layer"
     id="layer1"><path
       style="opacity:1;fill:#000000;stroke-width:0.336513;filter:url(#filter1)"
       d="m 191.33233,121.21706 -3.2662,0.93656 -4.64145,2.10726 -4.98523,1.79508 -4.12573,1.32679 -2.32072,0.54633 -2.66453,0.62437 -2.40669,0.3122 -2.06284,-0.1561 -3.35216,-0.54633 -3.35215,-1.1707 -2.40667,-1.01461 -2.32073,-1.4829 -2.66452,-2.26335 -2.9224,-3.27796 -1.54714,-2.41945 -1.28929,-3.04382 -0.5157,-1.95118 -0.34383,-1.0146 1.54716,-1.09266 2.06286,-0.78046 1.89095,-0.70243 1.71905,-0.39024 3.0943,-1.0146 3.69596,-0.62438 3.09429,-0.31217 4.03979,-0.23416 h 4.21166 l 2.92239,0.0781 3.18023,0.31218 3.00836,0.46828 0.94547,0.3122 h 0.60167 l -0.34381,-0.62439 -1.28929,-1.09265 -2.06286,-1.09265 -1.97691,-0.93655 -1.46119,-0.93657 -2.57859,-0.93656 -2.57857,-0.85853 -2.57856,-0.624373 -3.69596,-0.312176 -4.46956,-0.1561 -3.95382,0.936569 -2.57857,1.09265 -2.57859,1.40485 -2.23476,1.79508 -1.6331,2.10725 -1.54714,1.71704 -1.03143,2.57554 -0.77356,1.79507 0.086,3.74625 0.1719,2.73163 1.11737,4.21453 1.11739,2.02922 1.54716,2.26336 2.40666,2.41945 1.71905,1.71702 3.43811,1.87314 1.97691,1.32679 -0.77358,0.7024 -2.83642,0.93657 -3.26621,1.09265 -2.32072,0.70244 -3.00835,0.54632 -2.66452,-0.0781 -1.46118,-0.078 -2.06287,-0.78048 -1.80501,-1.32679 -1.20333,-1.24874 -1.4612,-1.71703 -0.85951,-2.57554 -1.20334,-2.73165 -1.37526,-1.09266 -1.46118,0.0781 -2.83644,0.70241 -2.49263,2.18532 -1.20333,1.87312 -1.11739,1.56093 -1.46118,2.26336 -1.54716,3.19992 -0.68762,2.02922 -0.51571,2.65359 -0.34381,2.88773 0.60167,2.10726 0.42977,1.56094 -0.51574,0.70242 -0.85952,0.54632 -1.89095,0.70243 -2.49263,1.3268 -1.805,0.62436 -2.75048,0.39025 -1.63311,0.31218 -2.49262,0.15609 -2.492616,-0.15609 -1.461201,-0.1561 -1.28929,-1.0146 -1.289289,-1.40485 -1.890956,-2.3414 -0.343807,-2.41945 -0.171909,-2.88773 c 0,0 0.08596,-2.18531 0,-2.65361 -0.08596,-0.46826 -0.08596,-3.51209 -0.08596,-3.51209 l -0.08596,-3.90233 -0.08596,-2.88774 v -2.41946 l -0.257858,-2.1853 -1.719051,0.62437 -1.890958,1.24876 -0.515714,0.23413 0.08596,3.59015 c 0,0 0.08596,2.10728 0,2.41946 -0.08596,0.31218 0,3.356 0,3.356 v 4.60477 l 0.08596,3.90234 0.171903,2.96577 0.515717,3.74625 0.601667,2.65358 1.117385,1.87313 1.375239,2.10727 1.461194,1.24875 1.375242,0.78047 2.492627,0.93655 3.438105,0.3122 h 3.69596 c 0,0 2.06287,-0.54633 2.40667,-0.70243 0.34381,-0.15609 2.23477,-0.78047 2.23477,-0.78047 l 1.89096,-0.70241 2.75049,-1.56094 2.32073,-1.09266 1.54713,-1.17069 2.23477,3.27796 0.94547,1.1707 1.97692,1.95117 2.14881,1.40484 2.14881,1.09266 2.06286,0.46828 2.23477,-0.15609 1.89096,-0.0781 1.89096,-1.71703 1.4612,-2.49749 0.51571,-2.88774 0.17191,-2.65359 -0.60167,-2.96578 -1.03144,-3.12187 -1.54714,-1.71703 -1.46119,-1.09265 -1.54715,-0.62437 -1.97692,-0.1561 -2.32071,0.1561 -2.14881,0.54632 -2.32073,0.15609 -1.11738,0.46829 -1.20333,0.62437 -0.25785,-0.39023 c 0,0 -1.03144,-1.79508 -1.20334,-2.10727 -0.17192,-0.31218 -0.42976,-2.1853 -0.42976,-2.1853 l -0.086,-1.32679 2.32072,-4.21454 1.71905,-1.63898 1.1174,-0.85851 2.06285,-1.09267 1.805,-0.23413 1.11738,1.71703 1.54716,3.43406 1.63309,3.12187 2.06287,1.48288 3.09429,1.639 1.71905,0.0781 3.61,0.23416 2.9224,-0.1561 2.57858,-0.31219 2.57856,-1.09266 4.55549,-1.56092 2.14883,-1.09266 3.35215,-1.40484 28.53626,-13.42406 0.77357,-1.17069 1.71906,-2.57555 0.94547,-1.79507 z"
       id="path1" /><path
       style="opacity:1;fill:#ffffff;stroke-width:0.448387;filter:url(#filter43)"
       d="m 122.94884,155.49428 2.62181,2.82103 1.84498,1.1039 2.91312,0.61324 2.13629,-0.98122 v -1.47183 l -1.74788,-1.96246 -0.4855,-0.85857 -2.62183,-0.73592 -2.13629,0.12274 -1.35945,0.2453 z"
       id="path2" /><path
       style="opacity:1;fill:#000000;stroke-width:0.336513;filter:url(#filter45)"
       d="m 86.556123,116.92448 -0.08596,1.40484 h 0.601669 l 0.859525,-0.46828 2.062863,-1.48289 1.117382,-0.78046 L 90.08017,95.773793 V 93.2763 L 89.650404,90.622717 89.392548,88.437409 88.962785,86.174051 88.18921,83.13022 87.673498,81.101005 86.72802,78.05718 85.868494,76.027965 85.09492,74.38898 l -0.515716,-0.390231 -0.687621,0.780468 -1.976908,5.463273 0.171905,1.482888 1.203333,4.13648 0.859526,3.980393 0.343813,1.795069 0.601668,3.356012 0.171906,2.341406 0.171903,2.341397 0.171905,3.043835 0.25786,3.04382 0.171904,2.96577 0.08596,2.96579 v 1.56093 l 0.08596,1.63899 z"
       id="path3" /><path
       style="opacity:1;fill:#000000;stroke-width:0.336513;filter:url(#filter47)"
       d="m 117.06929,118.79761 5.58692,3.27796 2.40667,-4.91695 0.25787,-0.54633 6.79025,5.07304 3.61,-6.1657 -7.22003,-5.07304 -3.09429,5.07304 -6.61833,-4.52671 -3.69597,6.47789 z"
       id="path4" /><path
       style="opacity:1;fill:#000000;stroke-width:0.336513;filter:url(#filter48)"
       d="m 128.32908,105.06137 -7.22003,-4.91695 -3.52404,6.79008 6.79026,4.6828 2.06284,-2.18531 z"
       id="path5" /><path
       style="opacity:1;fill:#000000;stroke-width:0.336513;filter:url(#filter44)"
       d="m 110.27904,126.83643 1.54714,-2.88774 0.60167,-3.12187 -0.086,-1.87312 -1.20337,-1.95117 -1.71904,-1.3268 -2.66453,-1.63899 -2.66453,-0.31217 -3.00833,0.0781 -2.234778,0.31219 -2.664523,0.78048 -2.234767,1.09266 -2.406675,1.17068 -3.094292,1.71703 -3.266197,2.18531 -3.094294,2.49751 -3.266198,2.4975 -3.61001,2.80969 -4.211675,3.59014 -3.094295,2.73163 -3.61001,3.27797 -3.438101,2.80969 -3.266198,3.35602 -3.524059,2.65358 -4.03977,3.51211 -3.094295,2.57554 -2.406672,1.63899 -2.062859,1.32679 -3.61001,2.34141 -2.406672,1.48289 -1.547147,0.62436 -1.633098,0.70243 -2.320722,0.62436 -2.062859,0.39024 -1.547148,-0.0781 -2.492627,-0.39022 -1.289286,-0.54632 -1.28929,-0.54633 -1.289287,-1.40485 -1.203339,-1.71703 -0.257855,-2.41945 0.171905,-2.65359 0.429764,-2.96578 1.203334,-2.41945 0.773573,-2.57555 1.03143,-2.73163 1.461194,-3.74625 -0.171903,-3.19991 -0.687622,0.31218 -1.547147,3.8243 -1.805003,3.82428 -1.375243,3.27797 -0.945478,2.57555 -0.515716,2.26335 -0.429762,4.44866 -0.08596,4.44869 0.343808,3.356 1.547146,3.12188 1.547147,2.34139 1.890955,1.24876 2.148817,0.85851 2.320719,0.23414 2.492625,-0.15609 3.180245,-0.46828 3.008342,-1.01461 2.922388,-1.56095 5.071202,-2.96576 4.297628,-3.12187 5.243109,-4.52672 4.727392,-4.37061 4.899298,-4.60477 4.813343,-4.29258 5.157158,-4.8389 5.586917,-4.68281 5.0712,-4.05842 3.094295,-2.34141 2.492625,-2.10727 3.781914,-1.79506 2.320719,-1.32679 2.836447,-0.93658 2.922373,-0.39024 3.35216,0.31219 1.89095,0.70243 1.63311,1.09266 1.20333,1.48287 z"
       id="path6" /><path
       style="opacity:1;fill:#000000;stroke-width:0.336513;filter:url(#filter46)"
       d="m 47.361746,129.8022 1.547146,-1.63898 1.28929,-2.02922 1.03143,-2.34139 -1.633099,-1.17072 -6.618351,-3.98038 -3.180246,6.63397 1.890959,0.85852 2.664528,1.71703 1.89096,1.1707 z"
       id="path7" /><path
       style="opacity:1;fill:#ffb380;stroke-width:0.336513;filter:url(#filter32)"
       d="m 29.918536,127.80259 -1.458666,1.87637 -1.093996,0.44149 -0.729332,-0.1104 -1.093996,-0.33112 -0.850887,-1.10374 -0.364666,-1.76601 0.850884,-3.42161 0.850888,-3.20088 0.607777,-1.65561 0.607776,-1.65564 -1.701772,2.75939 -1.173119,2.01147 -0.687617,2.1853 -0.386788,2.18531 -0.128934,1.13168 -0.300834,2.30238 c 0,0 0.214882,1.87312 0.257858,2.02922 0.04298,0.15609 0.386785,1.20972 0.386785,1.20972 l 0.300835,0.42926 0.945477,0.74144 0.773575,0.42925 0.988455,0.11707 0.859525,-0.39023 1.375242,-1.36582 c 0,0 0.429761,-0.74144 0.515717,-1.0146 0.08596,-0.27317 0.601667,-1.91215 0.601667,-1.91215 l 0.128933,-1.3268 z"
       id="path8" /><path
       style="opacity:1;fill:#ffb380;stroke-width:0.336513;filter:url(#filter31)"
       d="m 47.20978,111.9086 1.54983,-0.82779 2.036049,-1.13136 2.339941,-1.26931 1.701776,-0.63465 2.005662,-1.04857 0.972444,-0.91059 0.364665,-0.27595 -2.005664,-0.27591 -2.248774,-0.35874 -2.279162,-0.0827 c 0,0 -2.279162,0.0551 -2.461495,0.11041 -0.182332,0.0551 -1.853717,0.11042 -1.853717,0.11042 l -0.243112,-0.52429 -0.06079,-0.68984 0.881277,-0.99337 0.850888,-1.49006 0.364665,-0.60705 1.701775,-0.77263 1.154773,-0.11042 2.917329,0.11042 3.373158,0.13797 2.765384,0.19314 2.096829,0.41391 -0.182333,1.29691 -0.425442,1.10374 -0.942055,1.35209 -1.185162,1.51766 -1.094,0.96577 -1.549831,1.29691 -1.306718,0.91059 -1.580219,0.68986 -1.124388,0.35871 -1.154774,0.4691 -1.884107,0.57946 -1.489055,0.46909 -0.97244,0.13797 z"
       id="path9" /><path
       style="opacity:1;fill:#ffb380;stroke-width:0.336513;filter:url(#filter30)"
       d="m 75.744892,117.67569 0.972438,-1.57285 0.790112,-1.43486 0.729331,-1.54525 0.546999,-2.09712 0.455833,-2.92494 0.212721,-1.90395 0.06076,-1.82119 -0.182332,-2.26269 c 0,0 -0.24311,-1.65562 -0.334277,-1.90396 -0.09116,-0.248344 -0.273499,-1.407281 -0.364667,-1.517659 -0.09116,-0.110403 -0.425441,-1.186532 -0.546998,-1.296902 -0.121554,-0.110411 -0.425441,-1.103756 -0.638165,-1.517649 -0.212722,-0.413909 -0.668553,-1.821188 -0.790108,-2.041935 -0.121554,-0.220758 -1.033222,-2.73178 -1.033222,-2.73178 0,0 -0.243108,-1.076159 -0.243108,-1.241725 0,-0.165553 -0.09116,-0.800207 -0.151945,-1.04855 -0.06079,-0.248354 -0.06079,-0.910593 -0.182333,-1.296905 -0.121553,-0.386324 -0.212725,-1.324501 -0.212725,-1.324501 l -0.668551,1.076146 -0.303889,0.883009 c 0,0 -0.303889,1.545248 -0.303889,1.710801 0,0.165566 -0.455834,2.041946 -0.455834,2.041946 l 0.243112,1.103742 c 0,0 0.455831,1.296906 0.546999,1.462471 0.09116,0.165554 0.850889,2.124706 0.881276,2.235084 0.0304,0.110411 0.546998,1.324504 0.607779,1.545244 0.06078,0.220748 0.303885,1.407279 0.334274,1.655621 0.03041,0.248362 0.790111,2.842162 0.790111,2.842162 0,0 0.182333,1.7384 0.182333,1.98675 0,0.24834 0.09116,1.57284 0.09116,1.57284 l 0.0304,2.01434 c 0,0 0.03041,1.3521 0.03041,1.51765 0,0.16556 0.0304,1.43487 0,1.57283 -0.03041,0.13798 -0.243112,1.49006 -0.273501,1.65563 -0.0304,0.16557 -0.06078,0.93819 -0.121553,1.07617 -0.06079,0.13796 -0.486224,1.65561 -0.486224,1.65561 0,0 -0.09116,0.46909 -0.243111,0.66225 -0.151942,0.19316 -0.425444,0.93819 -0.425444,0.93819 L 74.98517,118.062 Z"
       id="path10" /><path
       style="opacity:1;fill:#ffb380;stroke-width:0.336513;filter:url(#filter29)"
       d="m 111.08709,99.98813 0.88128,-1.186531 0.54701,-1.048567 0.63815,-2.207496 c 0,0 0.36467,-1.434874 0.36467,-1.600428 0,-0.165566 0.33429,-2.179902 0.33429,-2.179902 l 0.18232,-0.772625 0.21272,-0.993381 0.30389,-1.048563 0.36467,-1.131339 0.33427,-0.910593 0.63817,-1.076151 0.7901,-0.358718 1.06362,0.05517 1.06361,0.993377 1.12438,0.993381 0.33428,0.02764 0.60778,-1.296906 0.33428,-1.296912 0.21272,-0.689844 0.18232,-0.662248 -0.42544,-0.551873 -0.63816,-0.855407 -0.82049,-0.772624 -0.63817,-0.579464 -1.03324,-0.303532 -1.00281,0.08277 -1.00283,0.745032 -0.72934,0.993372 c 0,0 -0.0912,0.02761 -0.24311,0.275938 -0.15194,0.248345 -0.54701,0.772625 -0.66856,0.993374 -0.12158,0.22075 -0.30389,0.882999 -0.36466,1.020968 -0.0606,0.137968 -0.36466,1.40728 -0.36466,1.40728 l -0.24311,0.993372 -0.36466,1.241712 -0.27352,1.379683 -0.30387,0.80022 -0.2735,1.241712 -0.39506,0.80022 -0.36467,0.05515 -0.36467,-0.855413 -0.45583,-1.434875 -0.69894,-1.628024 -0.63816,-1.296905 -0.79011,-1.352085 -0.72934,-0.855403 -0.48622,-0.71744 -1.00283,-0.82781 -0.88127,-0.607061 -1.12439,-0.22075 -1.18517,0.0552 -0.36466,0.275937 -0.5774,0.662248 -0.39505,0.82781 -0.8205,1.517659 -0.2431,0.524282 c 0,0 0.48621,0.8554 0.57739,0.965773 0.0912,0.11041 1.094,0.855414 1.18515,0.965787 0.0912,0.110409 0.85089,0.71743 0.85089,0.71743 l 1.12439,0.524282 0.51661,0.110409 0.27351,-0.634654 0.21271,-0.358716 0.48623,-0.331119 0.2735,0.303523 0.42543,0.745027 c 0,0 0.36466,0.524282 0.45585,0.689847 0.0912,0.165566 0.48621,0.99337 0.5166,1.13134 0.0305,0.137969 0.45584,0.93819 0.48623,1.076158 0.0305,0.137969 0.45583,1.076148 0.48621,1.186533 0.0305,0.110409 0.36467,1.048562 0.42544,1.158935 0.0607,0.11041 0.51662,1.379682 0.51662,1.49006 0,0.110411 0.45583,0.99337 0.45583,0.99337 l 0.45583,1.848783 z"
       id="path11" /><path
       style="opacity:1;fill:#ffb380;stroke-width:0.336513;filter:url(#filter28)"
       d="m 139.11613,88.710572 0.98846,-0.5073 1.11737,-0.156101 1.28929,0.03903 0.94549,0.585352 0.42977,0.897541 -0.30084,0.897528 -0.9025,1.404842 -0.9025,1.131678 -1.67608,1.638981 -0.94548,0.97559 -1.24631,1.248752 -0.64465,0.585349 0.68761,1.717021 0.85953,-0.702414 1.89096,-0.78046 1.33228,-0.585358 1.46117,-0.468284 1.71906,-0.585357 0.85953,-0.273166 1.11737,-0.585333 1.24632,-0.663403 1.37526,-0.858515 1.03142,-0.468288 1.80501,-1.131668 1.54715,-0.936565 1.50416,-1.170704 1.11739,-1.053629 1.07442,-0.89754 1.0314,-1.170704 0.73061,-0.936558 0.34381,0.03903 0.85952,0.195119 0.90251,0.975578 0.47273,0.624377 0.0429,-0.03903 1.16037,-1.092653 0.47273,-0.936559 0.25786,-0.819489 0.30083,-0.780467 -0.68763,-0.429258 -0.55868,-0.546328 -1.54715,-0.390235 -0.25786,-0.351211 0.34381,-1.1707 0.73061,-1.59996 v -0.897541 -0.624375 -0.897536 l -0.21489,-1.443866 -0.42976,-0.741445 -0.34381,-0.234141 -1.33227,-0.195114 -1.54714,0.195114 -1.11738,0.546328 -0.77358,0.507303 -0.94548,0.897539 -0.85952,1.287772 -0.68763,1.326796 -0.25785,0.975586 -0.17191,0.780467 0.3868,1.209724 0.73059,0.6634 0.81655,0.858514 0.73059,0.429256 1.07441,0.195119 0.25786,0.03903 0.38678,0.234143 -0.30082,0.858514 -0.90252,0.93656 -1.41821,1.014616 -1.0744,0.81949 -0.77358,0.507302 -1.0744,0.585351 -0.90252,0.624377 -1.24631,0.702415 -1.0744,0.546327 -1.41822,0.897541 -0.98844,0.546326 -0.94548,0.351214 -0.98847,0.702427 -1.20333,0.546327 -1.37525,0.702415 -1.03142,0.390235 -0.5587,0.156092 1.20333,-0.858514 0.73061,-0.897542 0.94548,-0.74144 0.98845,-1.131678 0.64465,-0.975579 0.60166,-1.28778 c 0,0 0.21488,-1.365816 0.25787,-1.678005 0.0429,-0.312188 0.12892,-1.482892 0.12892,-1.482892 l -0.3438,-0.975585 -1.20334,-1.170703 -0.81656,-0.312185 c 0,0 -1.28929,-0.03903 -1.50417,0.03903 -0.21488,0.07805 -1.03143,0.585353 -1.03143,0.585353 0,0 -0.64464,0.624376 -0.81655,0.780468 -0.17189,0.156094 -1.03142,1.170702 -1.20333,1.326791 -0.17192,0.1561 -0.3868,0.585352 -0.51571,0.780478 -0.12894,0.195113 -0.30083,1.092653 -0.30083,1.092653 z"
       id="path12" /><path
       style="opacity:1;fill:#ffffff;stroke-width:0.432535;filter:url(#filter38)"
       d="m 156.9605,81.927677 -0.92332,-1.097715 0.25892,-1.291542 0.72896,-1.677959 1.71058,-1.459239 1.32084,0.04592 0.67991,1.156375 0.23184,1.400909 -0.31464,0.895249 -0.80152,1.012574 -0.87921,0.758149 -1.45681,0.578653 z"
       id="path13" /><path
       style="opacity:1;fill:#ffb380;stroke-width:0.336513;filter:url(#filter35)"
       d="m 100.42062,152.47135 0.42545,-0.93818 0.18233,-1.43488 0.24311,-1.7108 0.12159,-1.26931 -0.79011,-2.48344 -0.42544,-1.65561 -0.668557,-2.09713 -0.486219,-1.65563 -0.486219,-2.37304 -0.364665,-1.21413 0.182326,-0.883 0.546998,-0.71745 1.580216,-0.66222 1.09401,-0.33115 1.51943,-0.44149 1.27634,-0.33113 h 0.97244 l 0.79011,0.0551 0.36466,-1.54526 0.547,-1.32449 -0.18234,-0.77262 -0.91165,-1.26931 -1.03322,-0.77263 -0.79012,-0.3863 -0.91166,-0.77263 -1.45866,-0.66226 -0.72933,-0.0551 -1.033219,0.33112 -0.668568,0.44149 -0.546998,0.77263 -0.546995,1.04856 -0.182324,1.10376 0.121594,1.10374 0.425444,1.26932 0.06073,-0.99339 0.790118,-0.93818 0.303879,-0.49668 0.303889,-0.16557 0.85089,0.33113 0.85089,0.38631 0.60778,0.55187 -0.0607,0.22075 -1.3371,0.16556 -2.127218,0.9382 -1.033224,0.88299 -0.546996,0.82781 -0.182337,0.883 -0.121594,2.26268 v 1.49006 l 0.30389,1.54525 0.243107,1.21411 0.790118,1.8212 0.607767,1.71082 0.547008,1.54523 0.36466,1.60043 0.06073,1.60045 0.06073,2.1523 v 1.21413 z"
       id="path14" /><path
       style="opacity:1;fill:#ffb380;stroke-width:0.336513;filter:url(#filter34)"
       d="m 84.436093,170.90396 1.337109,-2.48345 0.486221,-0.99336 0.790109,-1.21413 0.48622,-0.883 0.303892,-0.55186 1.397885,1.43486 0.546997,0.49669 1.397887,0.66225 1.884108,0.66224 2.187998,0.60706 2.431103,0.44151 2.005661,0.22074 1.944887,0.0551 3.22123,-0.0551 2.12719,-0.1104 1.76257,-0.16556 1.51943,-0.27594 0.79012,-0.22075 h 0.60778 l 0.72932,0.0551 -1.27633,0.99337 -1.21554,0.60706 -1.15478,0.4415 -1.45867,0.4415 -2.18799,0.38632 -1.76256,0.33112 h -1.21554 l -1.58023,0.11041 -1.701765,-0.0551 -1.640996,-0.16557 -1.337116,-0.38631 -1.397886,-0.27593 -1.944884,-0.60707 -1.458667,-0.55187 -1.640995,-0.883 -1.154777,-0.66225 -0.364665,-0.44149 -0.850887,1.26931 -0.972442,0.883 -0.850886,0.60706 z"
       id="path15" /><path
       style="opacity:1;fill:#ffb380;stroke-width:0.336513;filter:url(#filter33)"
       d="m 47.118611,167.37196 3.038886,-1.49006 3.403547,-1.71081 3.40355,-2.04194 4.497548,-2.70418 4.072101,-2.75937 1.823328,-1.60043 1.154776,-1.71082 1.093997,-1.87637 0.972444,-1.37969 1.27633,-0.3863 1.397885,0.33112 c 0,0 0.668557,0.77263 0.911668,0.93819 0.243109,0.16555 1.397887,1.7108 1.397887,1.7108 l 0.66855,1.15893 0.547003,1.76602 0.668552,2.42823 0.303888,1.54526 0.425446,-1.65563 0.72933,-2.70418 0.607775,-2.09712 0.790112,-2.09713 0.668555,-1.93156 1.397885,-0.66225 c 0,0 1.397888,-0.27592 1.640998,-0.0551 0.243106,0.22074 1.215552,1.04855 1.215552,1.04855 l 0.546998,1.21412 0.364665,1.76602 -0.425442,1.2693 -1.03322,-0.38631 -0.850888,-0.88299 -1.093998,-0.82783 -0.850886,0.22075 -1.03322,1.98675 c 0,0 -0.546999,1.93155 -0.729332,2.42824 -0.182332,0.49668 -0.911667,2.98013 -0.911667,2.98013 l -1.27633,5.18762 -0.790107,0.0551 -0.364666,-1.15894 -0.607778,-2.64899 -1.033221,-2.98013 -0.546998,-1.3245 -0.243111,-0.82782 -0.547,-0.55185 -0.547,0.3863 -0.790106,0.66226 h -0.790111 l -1.27633,-1.04856 -1.03322,-0.9382 -0.24311,-0.16557 -1.033221,1.3797 -0.790111,1.82118 -0.97244,1.21413 -0.911668,1.10375 -2.674215,1.87637 -1.762553,1.21411 -1.944883,1.21413 -2.066441,0.883 -1.397886,0.55188 -2.613441,0.8278 -2.127215,0.71744 -1.458667,0.33112 -1.03322,0.27593 z"
       id="path16" /><path
       style="opacity:1;fill:#ffb380;stroke-width:0.336513;filter:url(#filter36)"
       d="m 151.27843,150.56265 -1.37526,2.18531 -1.46119,3.04383 -0.60167,2.57554 -0.5157,2.73164 -0.25786,2.3414 0.086,1.87312 0.25785,1.17071 0.77358,1.24874 1.20334,0.78047 1.37525,-0.23413 0.60166,-0.39024 0.77358,-0.85852 0.42976,-0.85851 1.03142,-1.95118 0.51572,-1.40484 0.17191,-0.85851 -0.086,-0.78047 -1.03145,1.56094 -0.77357,1.1707 -0.34381,0.23414 -0.60166,0.0781 h -0.42976 l -1.20333,-0.0781 -0.60167,-0.62438 -0.25787,-1.09265 v -0.85851 -1.01462 c 0,0 0,-0.54632 0,-0.93656 0,-0.39023 0.42977,-2.65358 0.42977,-2.65358 l 0.77357,-3.04382 0.68762,-1.48289 0.68761,-0.93657 z"
       id="path17" /><path
       style="opacity:1;fill:#ffb380;stroke-width:0.336513;filter:url(#filter37)"
       d="m 168.21107,143.65551 0.25786,-0.5073 0.49424,-0.0781 0.27934,0.0976 c 0,0 0.27935,0.19511 0.32233,0.37073 0.0429,0.17559 0.10745,0.33169 0.10745,0.44877 0,0.11706 0,0.52681 0,0.52681 l 0.38679,-0.31218 c 0,0 0.086,-0.11709 0.25787,-0.29269 0.1719,-0.1756 0.27935,-0.31219 0.36529,-0.44876 0.086,-0.13659 0.30083,-0.42927 0.3653,-0.56584 0.0646,-0.13659 0.19339,-0.72194 0.15042,-0.83901 -0.0429,-0.11707 -0.21489,-0.44876 -0.30083,-0.62437 -0.086,-0.17561 -0.7306,-0.839 -0.90251,-0.87803 -0.1719,-0.0391 -0.36529,-0.0976 -0.60167,-0.0976 -0.23637,0 -0.58018,0 -0.77356,0.0781 -0.19341,0.0781 -0.23637,0.0195 -0.49424,0.25364 -0.25786,0.23415 -0.40827,0.39025 -0.62315,0.54633 -0.21489,0.15611 -0.60167,0.44879 -0.79506,0.62439 -0.19339,0.17561 -0.40828,0.42926 -0.53721,0.72194 -0.12893,0.29267 -0.34381,0.66338 -0.47274,0.95606 -0.12894,0.29268 -0.30084,0.35122 -0.38677,0.76096 -0.086,0.40975 -0.12895,0.58535 -0.15044,0.87802 -0.0215,0.29269 -0.086,0.54633 -0.10744,0.91705 -0.0215,0.37073 0,0.50731 -0.0215,0.89754 -0.0214,0.39024 0,0.76096 -0.0214,0.89754 -0.0215,0.13658 -0.0645,1.01461 -0.0645,1.09266 0,0.078 0.086,0.64389 0.086,0.64389 l 0.68763,0.33169 c 0,0 0.12893,0 0.25785,0.0976 0.12894,0.0976 0.25786,0.1756 0.58018,0.29267 0.32232,0.11708 0.92399,0.1756 1.07442,0.21463 0.1504,0.0391 0.45124,0.0586 0.77356,0.0586 0.32232,0 0.85954,-0.0976 1.05293,-0.0976 0.19338,0 1.13886,-0.1756 1.13886,-0.1756 l 0.0215,0.78046 c 0,0 -0.12895,0.62439 -0.21489,0.81951 -0.086,0.19512 -0.83804,1.46337 -0.83804,1.46337 l -0.45126,0.91706 -0.34379,1.0146 c 0,0 -0.17193,0.839 -0.21489,0.95607 -0.0429,0.11709 -0.0429,0.95607 -0.0429,1.09266 0,0.13659 0.0429,0.81949 0.0429,0.93655 0,0.11707 0.0645,0.9951 0.10744,1.15119 0.0429,0.1561 0.47274,0.72194 0.47274,0.72194 l 0.49423,0.42925 c 0,0 0.77358,0.19513 0.9025,0.21465 0.12895,0.0195 0.60167,0.0976 0.73059,0.13658 0.12894,0.0391 1.63311,-0.0391 1.63311,-0.0391 0,0 1.50416,-0.21463 1.69756,-0.21463 0.19339,0 1.71905,-0.46828 1.71905,-0.46828 l 1.84798,-0.97559 1.95543,-1.28777 1.50416,-1.36581 1.00995,-1.19022 1.28929,-1.38534 0.79506,-1.01461 0.51572,-0.72193 0.45125,-0.78046 c 0,0 0.47273,-0.70242 0.51571,-0.79998 0.0429,-0.0976 0.47275,-0.89754 0.51572,-0.9951 0.0429,-0.0976 0.0645,-0.21463 0.15042,-0.54633 0.086,-0.3317 0.23636,-1.22923 0.23636,-1.22923 l -0.10745,-0.39024 -0.32234,0.46828 c 0,0 -0.17191,0.25365 -0.32231,0.44878 -0.15042,0.19511 -0.79507,0.99509 -0.83805,1.07314 -0.0429,0.0781 -0.53719,0.81949 -0.66613,0.93655 -0.12892,0.11708 -0.75208,0.62437 -0.92398,0.8 -0.1719,0.17559 -0.77357,0.8585 -0.83804,0.93654 -0.0645,0.0781 -0.55869,0.60487 -0.70911,0.70243 -0.15042,0.0976 -1.37524,1.50239 -1.37524,1.50239 0,0 -0.60167,0.29268 -0.75209,0.39023 -0.15042,0.0976 -0.94548,0.48781 -1.09589,0.60488 -0.15041,0.11708 -0.83804,0.37072 -0.83804,0.37072 l -1.61161,0.97558 -0.88102,0.37073 -1.37524,0.0976 -1.24631,0.11708 -0.68763,-0.11708 -1.07441,-0.0586 -0.881,-0.31219 -0.49424,-0.68292 c 0,0 -0.10744,-0.46827 -0.1504,-0.54632 -0.0429,-0.0781 -0.0429,-0.62438 -0.0429,-0.62438 l 0.42977,-0.83901 c 0,0 0.21488,-0.40973 0.27934,-0.48779 0.0645,-0.078 0.88101,-0.89753 0.88101,-0.89753 0,0 0.42976,-0.83901 0.45125,-0.93656 0.0214,-0.0976 0.3653,-0.79999 0.3653,-0.79999 l -0.10746,-1.1902 0.0214,-0.93657 -0.10745,-0.97558 -0.0429,-0.46829 -0.66613,-0.11708 -1.28929,0.0391 -1.50417,-0.11707 c 0,0 -0.55869,-0.0586 -0.68763,-0.0586 -0.12893,0 -0.98846,-0.23413 -0.98846,-0.23413 l -0.55868,-0.44879 -0.23637,-0.93655 0.0214,-0.52681 0.21488,-0.42927"
       id="path18" /></g></svg>
