<?xml version="1.0" encoding="UTF-8" standalone="no"?>
<!-- Created with Inkscape (http://www.inkscape.org/) -->

<svg
   width="210mm"
   height="297mm"
   viewBox="0 0 210 297"
   version="1.1"
   id="svg1"
   xml:space="preserve"
   inkscape:version="1.4.3 (fcd0343856, 2026-01-01)"
   sodipodi:docname="quran.svg"
   inkscape:export-filename="quran.png"
   inkscape:export-xdpi="96"
   inkscape:export-ydpi="96"
   xmlns:inkscape="http://www.inkscape.org/namespaces/inkscape"
   xmlns:sodipodi="http://sodipodi.sourceforge.net/DTD/sodipodi-0.dtd"
   xmlns="http://www.w3.org/2000/svg"
   xmlns:svg="http://www.w3.org/2000/svg"><sodipodi:namedview
     id="namedview1"
     pagecolor="#ffffff"
     bordercolor="#000000"
     borderopacity="0.25"
     inkscape:showpageshadow="2"
     inkscape:pageopacity="0.0"
     inkscape:pagecheckerboard="0"
     inkscape:deskcolor="#d1d1d1"
     inkscape:document-units="mm"
     inkscape:zoom="1"
     inkscape:cx="343.5"
     inkscape:cy="387.5"
     inkscape:window-width="1860"
     inkscape:window-height="1131"
     inkscape:window-x="60"
     inkscape:window-y="32"
     inkscape:window-maximized="1"
     inkscape:current-layer="layer1" /><defs
     id="defs1"><filter
       inkscape:collect="always"
       style="color-interpolation-filters:sRGB"
       id="filter5"
       x="-0.0025030308"
       y="-0.0092882028"
       width="1.0050061"
       height="1.0185764"><feGaussianBlur
         inkscape:collect="always"
         stdDeviation="0.15990755"
         id="feGaussianBlur5" /></filter><filter
       inkscape:collect="always"
       style="color-interpolation-filters:sRGB"
       id="filter6"
       x="-0.002306045"
       y="-0.0092448001"
       width="1.0046121"
       height="1.0184896"><feGaussianBlur
         inkscape:collect="always"
         stdDeviation="0.15990755"
         id="feGaussianBlur6" /></filter><filter
       inkscape:collect="always"
       style="color-interpolation-filters:sRGB"
       id="filter7"
       x="-0.023887615"
       y="-0.01815032"
       width="1.0477752"
       height="1.0363006"><feGaussianBlur
         inkscape:collect="always"
         stdDeviation="0.15990755"
         id="feGaussianBlur7" /></filter><filter
       inkscape:collect="always"
       style="color-interpolation-filters:sRGB"
       id="filter8"
       x="-0.0044577302"
       y="-0.0062409674"
       width="1.0089155"
       height="1.0124819"><feGaussianBlur
         inkscape:collect="always"
         stdDeviation="0.15990755"
         id="feGaussianBlur8" /></filter><filter
       inkscape:collect="always"
       style="color-interpolation-filters:sRGB"
       id="filter9"
       x="-0.0036566739"
       y="-0.0057678909"
       width="1.0073133"
       height="1.0115358"><feGaussianBlur
         inkscape:collect="always"
         stdDeviation="0.15990755"
         id="feGaussianBlur9" /></filter></defs><g
     inkscape:label="Layer 1"
     inkscape:groupmode="layer"
     id="layer1"><path
       style="fill:#e5ffd5;stroke-width:0.184053;paint-order:markers stroke fill;filter:url(#filter9)"
       d="m 115.77406,113.34789 c 2.61946,1.74587 2.61946,1.74587 2.61946,1.74587 l 1.7463,-0.96992 1.7463,-2.52182 v -1.55188 l -0.52389,-0.96993 -1.7463,-2.71582 -1.04778,-2.13384 -2.44483,-3.10376 -0.87315,-1.551887 -3.14334,-4.07369 -3.49261,-3.49173 -2.27019,-2.715797 -2.09556,-2.13384 -2.61946,-2.715797 -2.794071,-2.5218 -2.619456,-2.327827 -3.66724,-2.90977 -4.0165,-3.103777 -6.28669,-3.8797 -4.01649,-2.521813 -4.36576,-2.133839 -4.71502,-2.327825 -4.88965,-2.133839 -6.46132,-2.52181 -6.81058,-2.133839 -6.46132,-1.939853 -6.63595,-1.745868 -4.889645,-1.163913 -6.46132,-1.357897 -4.540387,-0.775942 -2.794084,-0.387971 -1.222412,0.775942 -1.047782,1.551882 0.17463,2.133839 1.397042,1.357898 0.698522,1.163912 2.968714,0.775942 3.317975,0.38797 4.715018,0.775943 6.985209,1.745868 7.33447,2.133838 6.11206,1.745868 9.08078,3.297752 6.98521,3.103765 7.68373,3.87971 7.68373,4.267667 7.68373,5.625587 4.0165,3.297747 -5.58817,6.207517 -4.19113,6.5955 -3.66723,6.207537 0.52389,3.29776 1.92093,0.96994 2.96872,-0.58196 1.92093,-3.10379 3.14334,-4.26767 2.79409,-4.461667 3.492603,-4.65565 1.571683,-1.93985 3.317971,3.87971 4.88964,5.625567 3.49261,4.46167 3.14334,4.65567 z"
       id="path1"
       transform="matrix(0.52474127,0,0,0.63770295,-0.60134574,27.814254)" /><path
       style="fill:#e5ffd5;stroke-width:0.184053;paint-order:markers stroke fill;filter:url(#filter7)"
       d="m 89.230263,114.31782 c 4.19113,-0.58195 1.74631,0.38797 1.74631,0.38797 l 1.7463,-0.96992 1.04778,-1.16392 1.39704,-3.10377 1.397043,-2.52183 2.270203,-2.52181 2.095551,-3.29775 2.2702,-2.715797 -1.57168,-1.93985 -3.317964,-2.90978 -3.143353,4.46166 -3.31797,4.849627 -2.79409,4.2677 -1.92093,4.07371 0.87315,1.74586 z"
       id="path2"
       transform="matrix(0.52474127,0,0,0.63770295,-0.60134574,27.814254)" /><path
       style="fill:#e5ffd5;stroke-width:0.184053;paint-order:markers stroke fill;filter:url(#filter8)"
       d="m 123.10854,109.27419 3.31797,0.58196 2.27019,-2.13385 -0.34926,-3.29776 -1.04778,-1.55189 -2.44482,-3.879697 -2.27019,-3.68572 -3.66724,-4.65565 -3.84187,-4.461667 4.36576,-3.103757 6.28669,-4.267677 7.5091,-4.655647 7.5091,-3.87971 8.73152,-3.879705 7.15984,-2.715795 9.2554,-2.909781 10.47782,-2.133838 11.52559,-2.909781 2.79409,-1.551883 1.39704,-2.133839 -0.69852,-2.327824 -1.57167,-1.357899 h -1.7463 l -7.15985,1.551884 -9.2554,1.745868 -9.43004,2.909781 -5.23891,1.551882 -11.35096,3.879708 -7.5091,3.685722 -7.15984,3.491737 -8.55689,5.043623 -5.41354,3.879707 -3.66723,2.90978 -4.01649,3.491727 -3.31798,3.297747 5.41353,6.401517 3.31798,3.68573 3.84187,5.625557 2.79408,4.26769 z"
       id="path3"
       transform="matrix(0.52474127,0,0,0.63770295,-0.60134574,27.814254)" /><path
       style="fill:#7fff2a;stroke-width:0.184053;paint-order:markers stroke fill;filter:url(#filter6)"
       d="m 104.24847,84.250069 6.63594,-5.431587 4.71502,-3.87971 5.58817,-4.073687 6.46132,-4.26768 5.58817,-2.90978 6.98521,-3.297751 7.15984,-2.90978 8.90615,-3.297752 9.60466,-2.909781 7.85836,-1.939853 8.55689,-2.133839 5.23891,-1.163913 -4.88965,-3.29775 -9.2554,2.327824 -10.30319,2.327825 -12.74801,4.073691 -10.65245,3.685723 -11.17634,5.819561 -7.15984,4.073693 -10.47782,7.177462 -6.46132,6.401517 -6.635934,-5.819567 -6.112063,-4.849634 -5.7628,-3.879705 -7.33447,-4.073693 -7.15985,-3.491737 -7.68373,-3.297752 -7.5091,-2.521809 -9.77929,-2.90978 -8.73152,-2.327825 -10.827075,-2.327824 -1.222411,-0.38797 -4.540388,3.491736 6.28669,1.163913 8.906144,2.327824 9.43003,2.327824 9.08078,2.90978 8.73151,3.103766 8.033,3.685722 6.98521,3.685722 6.28669,3.879712 5.7628,3.68572 5.41353,3.685727 4.365757,3.879697 z"
       id="path4"
       transform="matrix(0.52474127,0,0,1.0380042,-0.60134574,-8.8735655)" /><path
       style="fill:#e5ffd5;stroke-width:0.184053;paint-order:markers stroke fill;filter:url(#filter5)"
       d="m 104.42309,75.714712 4.88966,-3.685717 5.93742,-4.655647 6.28669,-4.26768 7.5091,-4.461662 7.68374,-3.491737 7.5091,-3.297751 10.82708,-3.297752 8.20761,-2.715795 10.30319,-2.327825 7.5091,-1.939853 -4.88964,-2.327824 -6.81058,-2.133839 -9.08078,-2.13384 -10.30318,-0.581956 -6.46132,0.387971 -7.68374,0.969927 -7.85836,2.715794 -7.15984,3.297752 -7.5091,4.849634 -4.88965,4.655649 -3.66723,4.267678 -5.588164,-5.43159 -3.841873,-4.073693 -6.28669,-3.879706 -7.5091,-3.491738 -8.03299,-2.327824 -7.15984,-1.357898 -5.7628,-0.38797 h -7.15984 l -7.68374,1.163912 -5.41353,0.969926 -6.985215,2.521811 -5.588168,2.327824 7.334471,1.939853 6.286692,1.551884 7.15984,1.745868 8.38225,2.52181 8.38226,3.103766 7.5091,3.491736 8.73151,3.685722 6.63595,4.461664 6.11206,3.879705 5.41354,3.879714 z"
       id="path5"
       transform="matrix(0.52474127,0,0,1.2127031,-0.60134574,-20.992801)" /></g></svg>
